SplineFontDB: 3.0
FontName: CMUTypewriter-Rglr-NoL
FullName: CMU Typewriter Text Rglr NoL
FamilyName: CMU Typewriter Text NoL
Weight: Regular
Copyright: Converted by Andrey V. Panov from TeX fonts. Some glyphs are copied from Blue Sky fonts released by AMS.
Version: 0.7.0
ItalicAngle: 0
UnderlinePosition: -150
UnderlineWidth: 50
Ascent: 775
Descent: 225
InvalidEm: 0
sfntRevision: 0x0000b333
LayerCount: 2
Layer: 0 1 "Back" 1
Layer: 1 1 "Fore" 0
XUID: [1021 825 151150197 14593]
StyleMap: 0x0040
FSType: 0
OS2Version: 1
OS2_WeightWidthSlopeOnly: 0
OS2_UseTypoMetrics: 0
CreationTime: 1245312771
ModificationTime: 1511431727
PfmFamily: 17
TTFWeight: 500
TTFWidth: 5
LineGap: 200
VLineGap: 0
Panose: 2 0 6 9 0 0 0 0 0 0
OS2TypoAscent: 775
OS2TypoAOffset: 0
OS2TypoDescent: -225
OS2TypoDOffset: 0
OS2TypoLinegap: 200
OS2WinAscent: 827
OS2WinAOffset: 0
OS2WinDescent: 233
OS2WinDOffset: 0
HheadAscent: 827
HheadAOffset: 0
HheadDescent: -233
HheadDOffset: 0
OS2SubXSize: 650
OS2SubYSize: 700
OS2SubXOff: 0
OS2SubYOff: 140
OS2SupXSize: 650
OS2SupYSize: 700
OS2SupXOff: 0
OS2SupYOff: 480
OS2StrikeYSize: 49
OS2StrikeYPos: 258
OS2Vendor: 'PfEd'
OS2CodePages: 0000011f.d7d70000
OS2UnicodeRanges: e10002ff.5201e9eb.00020004.00000000
Lookup: 1 0 0 "'case' Case-Sensitive Forms lookup 0" { "'case' Case-Sensitive Forms lookup 0 subtable"  } ['case' ('cyrl' <'dflt' > 'grek' <'dflt' > 'latn' <'dflt' > ) ]
Lookup: 1 0 0 "'smcp' Lowercase to Small Capitals in Greek lookup 1" { "'smcp' Lowercase to Small Capitals in Greek lookup 1 subtable"  } ['smcp' ('grek' <'dflt' > ) ]
Lookup: 1 0 0 "'c2sc' Capitals to Small Capitals in Greek lookup 2" { "'c2sc' Capitals to Small Capitals in Greek lookup 2 subtable"  } ['c2sc' ('grek' <'dflt' > ) ]
Lookup: 3 0 0 "'salt' Stylistic Alternatives in Greek lookup 3" { "'salt' Stylistic Alternatives in Greek lookup 3 subtable"  } ['salt' ('grek' <'dflt' > ) ]

StartChar: .notdef
Encoding: 0 0 0
Width: 525
Flags: W
TeX: 765 -10
LayerCount: 2
Fore
SplineSet
10 10 m 1,0,-1
 10 765 l 1,1,-1
 515 765 l 1,2,-1
 515 10 l 1,3,-1
 10 10 l 1,0,-1
70 112 m 1,4,-1
 232 388 l 1,5,-1
 70 663 l 1,6,-1
 70 112 l 1,4,-1
105 70 m 1,7,-1
 420 70 l 1,8,-1
 262 337 l 1,9,-1
 105 70 l 1,7,-1
105 705 m 1,10,-1
 262 438 l 1,11,-1
 420 705 l 1,12,-1
 105 705 l 1,10,-1
292 388 m 1,13,-1
 455 112 l 1,14,-1
 455 663 l 1,15,-1
 292 388 l 1,13,-1
EndSplineSet
EndChar

StartChar: exclam
Encoding: 33 33 4
Width: 525
GlyphClass: 2
Flags: W
TeX: 610 0
LayerCount: 2
Fore
SplineSet
199 63 m 0,0,1
 199 87 199 87 217 106 c 128,-1,2
 235 125 235 125 262 125 c 0,3,4
 287 125 287 125 305.5 107 c 128,-1,5
 324 89 324 89 324 63 c 0,6,7
 324 39 324 39 306.5 19.5 c 128,-1,8
 289 0 289 0 262 0 c 0,9,10
 237 0 237 0 218 18.5 c 128,-1,11
 199 37 199 37 199 63 c 0,0,1
199 548 m 1,12,-1
 199 557 l 2,13,14
 199 588 199 588 219 605 c 128,-1,15
 239 622 239 622 262 622 c 0,16,17
 286 622 286 622 305 605 c 128,-1,18
 324 588 324 588 324 557 c 2,19,-1
 312 236 l 2,20,21
 311 220 311 220 304 212 c 128,-1,22
 297 204 297 204 291 203 c 128,-1,23
 285 202 285 202 275 202 c 2,24,-1
 245 202 l 2,25,26
 238 202 238 202 232 203.5 c 128,-1,27
 226 205 226 205 222.5 208.5 c 128,-1,28
 219 212 219 212 217 215 c 128,-1,29
 215 218 215 218 213.5 223.5 c 128,-1,30
 212 229 212 229 212 231.5 c 128,-1,31
 212 234 212 234 211.5 240 c 128,-1,32
 211 246 211 246 211 247 c 2,33,-1
 199 548 l 1,12,-1
EndSplineSet
EndChar

StartChar: quotedbl
Encoding: 34 34 5
Width: 525
GlyphClass: 2
Flags: W
TeX: 610 0
LayerCount: 2
Fore
SplineSet
129 575 m 0,0,1
 129 597 129 597 142.5 609 c 128,-1,2
 156 621 156 621 174 621 c 0,3,4
 191 621 191 621 204.5 609 c 128,-1,5
 218 597 218 597 218 575 c 2,6,-1
 206 368 l 2,7,8
 203 335 203 335 186 330 c 0,9,10
 181 328 181 328 174 328 c 0,11,12
 146 328 146 328 142 365 c 0,13,14
 140 394 140 394 137 446.5 c 128,-1,15
 134 499 134 499 131.5 535.5 c 128,-1,16
 129 572 129 572 129 575 c 0,0,1
305 579 m 0,17,18
 305 596 305 596 318 608.5 c 128,-1,19
 331 621 331 621 350 621 c 0,20,21
 365 621 365 621 379.5 610 c 128,-1,22
 394 599 394 599 394 575 c 0,23,24
 394 572 394 572 391.5 536 c 128,-1,25
 389 500 389 500 386 448.5 c 128,-1,26
 383 397 383 397 381 368 c 0,27,28
 380 356 380 356 379 350 c 128,-1,29
 378 344 378 344 370.5 336 c 128,-1,30
 363 328 363 328 349 328 c 0,31,32
 318 328 318 328 318 365 c 0,33,34
 315 412 315 412 311.5 467 c 128,-1,35
 308 522 308 522 306.5 548 c 128,-1,36
 305 574 305 574 305 579 c 0,17,18
EndSplineSet
EndChar

StartChar: numbersign
Encoding: 35 35 6
Width: 525
GlyphClass: 2
Flags: W
TeX: 610 0
LayerCount: 2
Fore
SplineSet
35 198 m 128,-1,1
 35 229 35 229 75 229 c 2,2,-1
 132 229 l 1,3,-1
 152 382 l 1,4,-1
 72 382 l 2,5,6
 35 382 35 382 35 414 c 0,7,8
 35 426 35 426 45 435 c 128,-1,9
 55 444 55 444 73 444 c 2,10,-1
 160 444 l 1,11,-1
 161 445 l 2,12,13
 161 446 161 446 165.5 480 c 128,-1,14
 170 514 170 514 175 549.5 c 128,-1,15
 180 585 180 585 181 588 c 0,16,17
 188 610 188 610 210 610 c 0,18,19
 223 610 223 610 231.5 601.5 c 128,-1,20
 240 593 240 593 240 581 c 0,21,22
 240 574 240 574 238 557.5 c 128,-1,23
 236 541 236 541 231.5 508 c 128,-1,24
 227 475 227 475 223 444 c 1,25,-1
 339 444 l 1,26,-1
 340 445 l 2,27,28
 340 446 340 446 344.5 480 c 128,-1,29
 349 514 349 514 353.5 549.5 c 128,-1,30
 358 585 358 585 359 588 c 0,31,32
 366 610 366 610 389 610 c 0,33,34
 401 610 401 610 410 601.5 c 128,-1,35
 419 593 419 593 419 581 c 0,36,37
 419 574 419 574 417 557.5 c 128,-1,38
 415 541 415 541 410.5 508 c 128,-1,39
 406 475 406 475 402 444 c 1,40,-1
 451 444 l 2,41,42
 489 444 489 444 489 413 c 0,43,44
 489 395 489 395 472 386 c 0,45,46
 465 382 465 382 443 382 c 2,47,-1
 393 382 l 1,48,-1
 372 229 l 1,49,-1
 452 229 l 2,50,51
 489 229 489 229 489 198 c 128,-1,52
 489 167 489 167 452 167 c 2,53,-1
 364 167 l 1,54,55
 359 132 359 132 354.5 94.5 c 128,-1,56
 350 57 350 57 347.5 41 c 128,-1,57
 345 25 345 25 343 19 c 0,58,59
 335 0 335 0 315 0 c 0,60,61
 303 0 303 0 293.5 9 c 128,-1,62
 284 18 284 18 284 32 c 0,63,64
 284 38 284 38 286.5 54 c 128,-1,65
 289 70 289 70 293.5 101.5 c 128,-1,66
 298 133 298 133 302 167 c 1,67,-1
 185 167 l 1,68,69
 180 132 180 132 175.5 94.5 c 128,-1,70
 171 57 171 57 168.5 41 c 128,-1,71
 166 25 166 25 164 19 c 0,72,73
 156 0 156 0 136 0 c 0,74,75
 124 0 124 0 114.5 9 c 128,-1,76
 105 18 105 18 105 32 c 0,77,78
 105 38 105 38 107.5 54 c 128,-1,79
 110 70 110 70 114.5 101.5 c 128,-1,80
 119 133 119 133 123 167 c 1,81,-1
 74 167 l 2,82,0
 35 167 35 167 35 198 c 128,-1,1
194 229 m 1,83,-1
 310 229 l 1,84,-1
 331 382 l 1,85,-1
 214 382 l 1,86,-1
 194 229 l 1,83,-1
EndSplineSet
EndChar

StartChar: dollar
Encoding: 36 36 7
Width: 525
GlyphClass: 2
Flags: W
TeX: 694 83
LayerCount: 2
Fore
SplineSet
58 168 m 0,0,1
 58 194 58 194 72 205 c 128,-1,2
 86 216 86 216 102 216 c 0,3,4
 121 216 121 216 134 203.5 c 128,-1,5
 147 191 147 191 147 172 c 0,6,7
 147 160 147 160 141 150 c 128,-1,8
 135 140 135 140 135 134 c 0,9,10
 135 127 135 127 139.5 115 c 128,-1,11
 144 103 144 103 168 84 c 128,-1,12
 192 65 192 65 231 58 c 1,13,-1
 231 288 l 1,14,15
 176 299 176 299 138.5 320.5 c 128,-1,16
 101 342 101 342 85 368 c 128,-1,17
 69 394 69 394 63.5 413 c 128,-1,18
 58 432 58 432 58 451 c 0,19,20
 58 506 58 506 101.5 554.5 c 128,-1,21
 145 603 145 603 231 615 c 1,22,-1
 231 653 l 2,23,24
 231 662 231 662 231.5 665.5 c 128,-1,25
 232 669 232 669 234 677.5 c 128,-1,26
 236 686 236 686 243 690 c 128,-1,27
 250 694 250 694 262 694 c 0,28,29
 293 694 293 694 293 654 c 2,30,-1
 293 615 l 1,31,32
 373 606 373 606 419.5 565.5 c 128,-1,33
 466 525 466 525 466 455 c 0,34,35
 466 430 466 430 451.5 418.5 c 128,-1,36
 437 407 437 407 421 407 c 0,37,38
 403 407 403 407 390 419.5 c 128,-1,39
 377 432 377 432 377 452 c 0,40,41
 377 459 377 459 379 465.5 c 128,-1,42
 381 472 381 472 383 475 c 128,-1,43
 385 478 385 478 388 482 c 2,44,-1
 391 485 l 1,45,46
 369 544 369 544 293 553 c 1,47,-1
 293 347 l 1,48,49
 378 333 378 333 422 282 c 128,-1,50
 466 231 466 231 466 172 c 0,51,52
 466 110 466 110 419.5 59 c 128,-1,53
 373 8 373 8 293 -3 c 1,54,-1
 293 -42 l 2,55,56
 293 -83 293 -83 262 -83 c 128,-1,57
 231 -83 231 -83 231 -43 c 2,58,-1
 231 -4 l 1,59,60
 153 2 153 2 105.5 50 c 128,-1,61
 58 98 58 98 58 168 c 0,0,1
123 456 m 0,62,63
 123 425 123 425 150.5 397.5 c 128,-1,64
 178 370 178 370 231 360 c 1,65,-1
 231 552 l 1,66,67
 182 545 182 545 152.5 517 c 128,-1,68
 123 489 123 489 123 456 c 0,62,63
293 59 m 1,69,70
 344 68 344 68 372.5 100 c 128,-1,71
 401 132 401 132 401 167 c 128,-1,72
 401 202 401 202 373.5 233 c 128,-1,73
 346 264 346 264 293 275 c 1,74,-1
 293 59 l 1,69,70
EndSplineSet
EndChar

StartChar: percent
Encoding: 37 37 8
Width: 525
GlyphClass: 2
Flags: W
TeX: 694 83
LayerCount: 2
Fore
SplineSet
35 561 m 0,0,1
 35 617 35 617 60 655.5 c 128,-1,2
 85 694 85 694 122 694 c 0,3,4
 158 694 158 694 183.5 656 c 128,-1,5
 209 618 209 618 209 560 c 0,6,7
 209 504 209 504 184 465.5 c 128,-1,8
 159 427 159 427 122 427 c 0,9,10
 86 427 86 427 60.5 465 c 128,-1,11
 35 503 35 503 35 561 c 0,0,1
87 -48 m 0,12,13
 87 -41 87 -41 93 -26 c 2,14,-1
 366 663 l 2,15,16
 379 694 379 694 402 694 c 0,17,18
 417 694 417 694 427 683.5 c 128,-1,19
 437 673 437 673 437 659 c 0,20,21
 437 652 437 652 431 637 c 2,22,-1
 157 -54 l 2,23,24
 146 -83 146 -83 122 -83 c 0,25,26
 108 -83 108 -83 97.5 -72.5 c 128,-1,27
 87 -62 87 -62 87 -48 c 0,12,13
91 561 m 0,28,29
 91 530 91 530 101.5 509.5 c 128,-1,30
 112 489 112 489 122 489 c 128,-1,31
 132 489 132 489 142.5 509.5 c 128,-1,32
 153 530 153 530 153 561 c 0,33,34
 153 590 153 590 143 611 c 128,-1,35
 133 632 133 632 122 632 c 128,-1,36
 111 632 111 632 101 611 c 128,-1,37
 91 590 91 590 91 561 c 0,28,29
315 50 m 128,-1,39
 315 106 315 106 340 144.5 c 128,-1,40
 365 183 365 183 402 183 c 128,-1,41
 439 183 439 183 464 144.5 c 128,-1,42
 489 106 489 106 489 50 c 128,-1,43
 489 -6 489 -6 464 -44.5 c 128,-1,44
 439 -83 439 -83 402 -83 c 128,-1,45
 365 -83 365 -83 340 -44.5 c 128,-1,38
 315 -6 315 -6 315 50 c 128,-1,39
371 50 m 128,-1,47
 371 20 371 20 381.5 -0.5 c 128,-1,48
 392 -21 392 -21 402 -21 c 128,-1,49
 412 -21 412 -21 422.5 -0.5 c 128,-1,50
 433 20 433 20 433 50 c 128,-1,51
 433 80 433 80 422.5 100.5 c 128,-1,52
 412 121 412 121 402 121 c 128,-1,53
 392 121 392 121 381.5 100.5 c 128,-1,46
 371 80 371 80 371 50 c 128,-1,47
EndSplineSet
EndChar

StartChar: ampersand
Encoding: 38 38 9
Width: 525
GlyphClass: 2
Flags: W
TeX: 610 0
LayerCount: 2
Fore
SplineSet
28 137 m 0,0,1
 28 198 28 198 63 242 c 0,2,3
 64 242 64 242 79 258.5 c 128,-1,4
 94 275 94 275 111 293.5 c 128,-1,5
 128 312 128 312 131 315 c 0,6,7
 103 399 103 399 103 477 c 0,8,9
 103 547 103 547 134 584.5 c 128,-1,10
 165 622 165 622 207 622 c 0,11,12
 255 622 255 622 277 581 c 128,-1,13
 299 540 299 540 299 485 c 0,14,15
 299 403 299 403 198 298 c 1,16,17
 215 252 215 252 272 160 c 1,18,19
 300 215 300 215 359 370 c 1,20,21
 347 370 347 370 340 371 c 128,-1,22
 333 372 333 372 325.5 379.5 c 128,-1,23
 318 387 318 387 318 401 c 0,24,25
 318 431 318 431 358 431 c 2,26,-1
 450 431 l 2,27,28
 462 431 462 431 468.5 430 c 128,-1,29
 475 429 475 429 482.5 421.5 c 128,-1,30
 490 414 490 414 490 400 c 0,31,32
 490 370 490 370 450 370 c 2,33,-1
 419 370 l 1,34,-1
 359 214 l 2,35,36
 334 151 334 151 308 108 c 1,37,38
 352 50 352 50 392 50 c 0,39,40
 426 50 426 50 431 107 c 0,41,42
 431 138 431 138 459 138 c 0,43,44
 463 138 463 138 467.5 137 c 128,-1,45
 472 136 472 136 479.5 128 c 128,-1,46
 487 120 487 120 487 105 c 0,47,48
 487 63 487 63 462 26 c 128,-1,49
 437 -11 437 -11 392 -11 c 0,50,51
 334 -11 334 -11 275 59 c 1,52,53
 218 -11 218 -11 151 -11 c 0,54,55
 96 -11 96 -11 62 33 c 128,-1,56
 28 77 28 77 28 137 c 0,0,1
97 140 m 0,57,58
 97 123 97 123 101 104.5 c 128,-1,59
 105 86 105 86 118 68 c 128,-1,60
 131 50 131 50 152 50 c 0,61,62
 199 50 199 50 239 108 c 1,63,64
 222 131 222 131 195 180 c 0,65,66
 165 230 165 230 155 252 c 1,67,68
 117 210 117 210 107 192 c 128,-1,69
 97 174 97 174 97 140 c 0,57,58
159 477 m 0,70,71
 159 419 159 419 175 364 c 1,72,73
 243 440 243 440 243 485 c 0,74,75
 243 492 243 492 242 501.5 c 128,-1,76
 241 511 241 511 238 526 c 128,-1,77
 235 541 235 541 227 551 c 128,-1,78
 219 561 219 561 207 561 c 0,79,80
 188 561 188 561 173.5 539 c 128,-1,81
 159 517 159 517 159 477 c 0,70,71
EndSplineSet
EndChar

StartChar: quotesingle
Encoding: 39 39 10
Width: 525
GlyphClass: 2
Flags: W
TeX: 610 0
LayerCount: 2
Fore
SplineSet
217 575 m 0,0,1
 217 596 217 596 230.5 608.5 c 128,-1,2
 244 621 244 621 262 621 c 128,-1,3
 280 621 280 621 293 608.5 c 128,-1,4
 306 596 306 596 306 575 c 0,5,6
 306 572 306 572 303.5 536 c 128,-1,7
 301 500 301 500 298 448.5 c 128,-1,8
 295 397 295 397 293 368 c 0,9,10
 293 367 293 367 292.5 363.5 c 128,-1,11
 292 360 292 360 292 358 c 128,-1,12
 292 356 292 356 291.5 352 c 128,-1,13
 291 348 291 348 290 346 c 128,-1,14
 289 344 289 344 287.5 341 c 128,-1,15
 286 338 286 338 283.5 336 c 128,-1,16
 281 334 281 334 278 332 c 128,-1,17
 275 330 275 330 271 329 c 128,-1,18
 267 328 267 328 262 328 c 0,19,20
 255 328 255 328 250 329.5 c 128,-1,21
 245 331 245 331 242 334 c 128,-1,22
 239 337 239 337 236.5 340 c 128,-1,23
 234 343 234 343 233 347.5 c 128,-1,24
 232 352 232 352 231.5 354 c 128,-1,25
 231 356 231 356 230 360 c 2,26,-1
 230 365 l 2,27,28
 228 394 228 394 225 446.5 c 128,-1,29
 222 499 222 499 219.5 535.5 c 128,-1,30
 217 572 217 572 217 575 c 0,0,1
EndSplineSet
EndChar

StartChar: parenleft
Encoding: 40 40 11
Width: 525
GlyphClass: 2
Flags: W
TeX: 694 83
LayerCount: 2
Fore
SplineSet
173 306 m 0,0,1
 173 378 173 378 194.5 444 c 128,-1,2
 216 510 216 510 246.5 554 c 128,-1,3
 277 598 277 598 311 631 c 128,-1,4
 345 664 345 664 370.5 679 c 128,-1,5
 396 694 396 694 406 694 c 0,6,7
 423 694 423 694 430 684.5 c 128,-1,8
 437 675 437 675 437 666 c 0,9,10
 437 659 437 659 434 653.5 c 128,-1,11
 431 648 431 648 427.5 645.5 c 128,-1,12
 424 643 424 643 414 636 c 0,13,14
 351 593 351 593 310.5 532 c 128,-1,15
 270 471 270 471 256 416.5 c 128,-1,16
 242 362 242 362 242 306 c 0,17,18
 242 213 242 213 283.5 124.5 c 128,-1,19
 325 36 325 36 412 -23 c 0,20,21
 423 -31 423 -31 427 -33.5 c 128,-1,22
 431 -36 431 -36 434 -41.5 c 128,-1,23
 437 -47 437 -47 437 -54 c 0,24,25
 437 -63 437 -63 430 -72.5 c 128,-1,26
 423 -82 423 -82 406 -82 c 0,27,28
 386 -82 386 -82 338.5 -43.5 c 128,-1,29
 291 -5 291 -5 254 47 c 0,30,31
 173 163 173 163 173 306 c 0,0,1
EndSplineSet
EndChar

StartChar: parenright
Encoding: 41 41 12
Width: 525
GlyphClass: 2
Flags: W
TeX: 694 83
LayerCount: 2
Fore
SplineSet
88 -54 m 0,0,1
 88 -39 88 -39 111 -24 c 0,2,3
 203 38 203 38 243 127.5 c 128,-1,4
 283 217 283 217 283 306 c 0,5,6
 283 338 283 338 277.5 372 c 128,-1,7
 272 406 272 406 256 455 c 128,-1,8
 240 504 240 504 200.5 553.5 c 128,-1,9
 161 603 161 603 104 641 c 0,10,11
 88 651 88 651 88 666 c 0,12,13
 88 675 88 675 95.5 684.5 c 128,-1,14
 103 694 103 694 119 694 c 0,15,16
 139 694 139 694 186.5 655.5 c 128,-1,17
 234 617 234 617 271 565 c 0,18,19
 352 449 352 449 352 306 c 0,20,21
 352 234 352 234 330.5 168 c 128,-1,22
 309 102 309 102 278.5 58 c 128,-1,23
 248 14 248 14 214 -19 c 128,-1,24
 180 -52 180 -52 154.5 -67 c 128,-1,25
 129 -82 129 -82 119 -82 c 0,26,27
 103 -82 103 -82 95.5 -72.5 c 128,-1,28
 88 -63 88 -63 88 -54 c 0,0,1
EndSplineSet
EndChar

StartChar: asterisk
Encoding: 42 42 13
Width: 525
GlyphClass: 2
Flags: W
TeX: 520 0
LayerCount: 2
Fore
SplineSet
68 214 m 0,0,1
 68 223 68 223 72.5 230 c 128,-1,2
 77 237 77 237 80.5 239.5 c 128,-1,3
 84 242 84 242 93 247 c 2,4,-1
 201 306 l 1,5,-1
 92 365 l 2,6,7
 68 378 68 378 68 397 c 0,8,9
 68 409 68 409 77.5 419.5 c 128,-1,10
 87 430 87 430 101 430 c 0,11,12
 110 430 110 430 124 421 c 2,13,-1
 232 358 l 1,14,15
 229 397 229 397 229 479 c 0,16,17
 229 521 229 521 262 521 c 128,-1,18
 295 521 295 521 295 479 c 0,19,20
 295 397 295 397 292 358 c 1,21,-1
 416 430 l 1,22,23
 456 430 456 430 456 397 c 0,24,25
 456 379 456 379 431 364 c 2,26,-1
 323 305 l 1,27,28
 330 301 330 301 357.5 287 c 128,-1,29
 385 273 385 273 408 261 c 128,-1,30
 431 249 431 249 442 241 c 0,31,32
 456 234 456 234 456 214 c 0,33,34
 456 202 456 202 446.5 191.5 c 128,-1,35
 437 181 437 181 423 181 c 0,36,37
 413 181 413 181 386 197 c 0,38,39
 301 248 301 248 292 253 c 1,40,41
 295 214 295 214 295 132 c 0,42,43
 295 90 295 90 262 90 c 128,-1,44
 229 90 229 90 229 132 c 0,45,46
 229 214 229 214 232 253 c 1,47,-1
 108 181 l 1,48,49
 68 181 68 181 68 214 c 0,0,1
EndSplineSet
EndChar

StartChar: plus
Encoding: 43 43 14
Width: 525
GlyphClass: 2
Flags: W
TeX: 530 -80
LayerCount: 2
Fore
SplineSet
37 306 m 0,0,1
 37 337 37 337 77 337 c 2,2,-1
 231 337 l 1,3,-1
 231 489 l 2,4,5
 231 503 231 503 233 509 c 0,6,7
 240 530 240 530 262 530 c 0,8,9
 293 530 293 530 293 489 c 2,10,-1
 293 337 l 1,11,-1
 447 337 l 2,12,13
 486 337 486 337 486 306 c 128,-1,14
 486 275 486 275 449 275 c 2,15,-1
 293 275 l 1,16,-1
 293 122 l 2,17,18
 293 109 293 109 291 103 c 0,19,20
 284 81 284 81 262 81 c 128,-1,21
 240 81 240 81 233 103 c 0,22,23
 231 109 231 109 231 122 c 2,24,-1
 231 275 l 1,25,-1
 80 275 l 2,26,27
 64 275 64 275 60 276 c 0,28,29
 37 283 37 283 37 306 c 0,0,1
EndSplineSet
EndChar

StartChar: comma
Encoding: 44 44 15
Width: 525
GlyphClass: 2
Flags: W
TeX: 124 138
LayerCount: 2
Fore
SplineSet
180 -107 m 0,0,1
 180 -87 180 -87 208 -79 c 0,2,3
 267 -59 267 -59 282 3 c 1,4,5
 272 0 272 0 262 0 c 0,6,7
 236 0 236 0 218 17.5 c 128,-1,8
 200 35 200 35 200 63 c 0,9,10
 200 88 200 88 217 106.5 c 128,-1,11
 234 125 234 125 263 125 c 0,12,13
 297 125 297 125 321.5 97 c 128,-1,14
 346 69 346 69 346 25 c 0,15,16
 346 -47 346 -47 296.5 -93 c 128,-1,17
 247 -139 247 -139 212 -139 c 0,18,19
 200 -139 200 -139 190 -129 c 128,-1,20
 180 -119 180 -119 180 -107 c 0,0,1
EndSplineSet
EndChar

StartChar: hyphen
Encoding: 45 45 16
Width: 525
GlyphClass: 2
Flags: W
TeX: 430 0
LayerCount: 2
Fore
SplineSet
87 216 m 128,-1,1
 87 246 87 246 122 246 c 2,2,-1
 403 246 l 2,3,4
 436 246 436 246 436 216 c 0,5,6
 436 185 436 185 401 185 c 2,7,-1
 120 185 l 2,8,0
 87 186 87 186 87 216 c 128,-1,1
EndSplineSet
EndChar

StartChar: period
Encoding: 46 46 17
Width: 525
GlyphClass: 2
Flags: W
TeX: 124 0
LayerCount: 2
Fore
SplineSet
199 63 m 0,0,1
 199 87 199 87 217 106 c 128,-1,2
 235 125 235 125 262 125 c 0,3,4
 287 125 287 125 305.5 107 c 128,-1,5
 324 89 324 89 324 63 c 0,6,7
 324 39 324 39 306.5 19.5 c 128,-1,8
 289 0 289 0 262 0 c 0,9,10
 237 0 237 0 218 18.5 c 128,-1,11
 199 37 199 37 199 63 c 0,0,1
EndSplineSet
EndChar

StartChar: slash
Encoding: 47 47 18
Width: 525
GlyphClass: 2
Flags: W
TeX: 694 83
LayerCount: 2
Fore
SplineSet
58 -53 m 0,0,1
 58 -44 58 -44 67 -26 c 2,2,-1
 404 669 l 2,3,4
 418 694 418 694 435 694 c 0,5,6
 447 694 447 694 456 685.5 c 128,-1,7
 465 677 465 677 465 664 c 0,8,9
 465 656 465 656 458 640 c 2,10,-1
 121 -57 l 2,11,12
 107 -83 107 -83 89 -83 c 0,13,14
 77 -83 77 -83 67.5 -74.5 c 128,-1,15
 58 -66 58 -66 58 -53 c 0,0,1
EndSplineSet
EndChar

StartChar: zero
Encoding: 48 48 19
Width: 525
GlyphClass: 2
Flags: W
TeX: 610 0
LayerCount: 2
Fore
SplineSet
50 306 m 0,0,1
 50 440 50 440 113 531 c 128,-1,2
 176 622 176 622 262 622 c 0,3,4
 347 622 347 622 410.5 531.5 c 128,-1,5
 474 441 474 441 474 305 c 0,6,7
 474 171 474 171 411 80 c 128,-1,8
 348 -11 348 -11 262 -11 c 0,9,10
 177 -11 177 -11 113.5 79.5 c 128,-1,11
 50 170 50 170 50 306 c 0,0,1
119 316 m 0,12,13
 119 206 119 206 161 128 c 128,-1,14
 203 50 203 50 262 50 c 128,-1,15
 321 50 321 50 363 128 c 128,-1,16
 405 206 405 206 405 316 c 0,17,18
 405 423 405 423 362 492 c 128,-1,19
 319 561 319 561 262 561 c 128,-1,20
 205 561 205 561 162 491.5 c 128,-1,21
 119 422 119 422 119 316 c 0,12,13
EndSplineSet
Substitution2: "'onum' Oldstyle Figures lookup 16 subtable" zerooldstyle
EndChar

StartChar: one
Encoding: 49 49 20
Width: 525
GlyphClass: 2
Flags: W
TeX: 610 0
LayerCount: 2
Fore
SplineSet
105 469 m 0,0,1
 105 498 105 498 142 500 c 0,2,3
 210 507 210 507 251 598 c 0,4,5
 261 622 261 622 281 622 c 0,6,7
 311 622 311 622 311 581 c 2,8,-1
 311 61 l 1,9,-1
 402 61 l 2,10,11
 414 61 414 61 420.5 60 c 128,-1,12
 427 59 427 59 434.5 51.5 c 128,-1,13
 442 44 442 44 442 30 c 0,14,15
 442 0 442 0 402 0 c 2,16,-1
 151 0 l 2,17,18
 111 0 111 0 111 30 c 0,19,20
 111 44 111 44 118.5 51.5 c 128,-1,21
 126 59 126 59 132.5 60 c 128,-1,22
 139 61 139 61 151 61 c 2,23,-1
 242 61 l 1,24,-1
 242 483 l 1,25,26
 191 439 191 439 138 439 c 0,27,28
 105 439 105 439 105 469 c 0,0,1
EndSplineSet
Substitution2: "'onum' Oldstyle Figures lookup 16 subtable" oneoldstyle
EndChar

StartChar: two
Encoding: 50 50 21
Width: 525
GlyphClass: 2
Flags: W
TeX: 610 0
LayerCount: 2
Fore
SplineSet
52 31 m 0,0,1
 52 45 52 45 67 58 c 2,2,-1
 288 244 l 2,3,4
 403 340 403 340 403 427 c 0,5,6
 403 490 403 490 356.5 525.5 c 128,-1,7
 310 561 310 561 244 561 c 0,8,9
 203 561 203 561 170.5 540 c 128,-1,10
 138 519 138 519 127 484 c 1,11,12
 141 473 141 473 141 452 c 0,13,14
 141 432 141 432 127.5 419.5 c 128,-1,15
 114 407 114 407 97 407 c 0,16,17
 81 407 81 407 66.5 418.5 c 128,-1,18
 52 430 52 430 52 455 c 0,19,20
 52 521 52 521 107.5 571.5 c 128,-1,21
 163 622 163 622 249 622 c 0,22,23
 343 622 343 622 407.5 568.5 c 128,-1,24
 472 515 472 515 472 427 c 0,25,26
 472 324 472 324 363 227 c 0,27,28
 339 205 339 205 264 143 c 128,-1,29
 189 81 189 81 165 61 c 1,30,-1
 403 61 l 1,31,32
 403 79 403 79 404 86.5 c 128,-1,33
 405 94 405 94 413 101 c 128,-1,34
 421 108 421 108 438 108 c 0,35,36
 461 108 461 108 466.5 97.5 c 128,-1,37
 472 87 472 87 472 67 c 2,38,-1
 472 41 l 2,39,40
 472 17 472 17 464 8.5 c 128,-1,41
 456 0 456 0 432 0 c 2,42,-1
 93 0 l 2,43,44
 52 0 52 0 52 31 c 0,0,1
EndSplineSet
Substitution2: "'onum' Oldstyle Figures lookup 16 subtable" twooldstyle
EndChar

StartChar: three
Encoding: 51 51 22
Width: 525
GlyphClass: 2
Flags: W
TeX: 610 0
LayerCount: 2
Fore
SplineSet
44 136 m 0,0,1
 44 159 44 159 57 171 c 128,-1,2
 70 183 70 183 89 183 c 128,-1,3
 108 183 108 183 120.5 170 c 128,-1,4
 133 157 133 157 133 139 c 0,5,6
 133 120 133 120 121 108 c 1,7,8
 138 77 138 77 181 63.5 c 128,-1,9
 224 50 224 50 264 50 c 0,10,11
 329 50 329 50 370 87.5 c 128,-1,12
 411 125 411 125 411 174 c 0,13,14
 411 222 411 222 370.5 260.5 c 128,-1,15
 330 299 330 299 261 299 c 2,16,-1
 215 299 l 2,17,18
 203 299 203 299 196.5 300 c 128,-1,19
 190 301 190 301 182.5 308.5 c 128,-1,20
 175 316 175 316 175 330 c 0,21,22
 175 350 175 350 187.5 355 c 128,-1,23
 200 360 200 360 247 363 c 0,24,25
 307 366 307 366 340 393 c 0,26,27
 382 427 382 427 382 480 c 0,28,29
 382 514 382 514 348.5 537.5 c 128,-1,30
 315 561 315 561 264 561 c 0,31,32
 184 561 184 561 153 530 c 1,33,34
 162 521 162 521 162 503 c 0,35,36
 162 483 162 483 148.5 470.5 c 128,-1,37
 135 458 135 458 118 458 c 128,-1,38
 101 458 101 458 87 470 c 128,-1,39
 73 482 73 482 73 505 c 0,40,41
 73 558 73 558 123.5 590 c 128,-1,42
 174 622 174 622 263 622 c 0,43,44
 346 622 346 622 398.5 580.5 c 128,-1,45
 451 539 451 539 451 481 c 0,46,47
 451 439 451 439 429.5 399.5 c 128,-1,48
 408 360 408 360 367 334 c 1,49,50
 418 311 418 311 449 268.5 c 128,-1,51
 480 226 480 226 480 174 c 0,52,53
 480 101 480 101 419.5 45 c 128,-1,54
 359 -11 359 -11 264 -11 c 0,55,56
 170 -11 170 -11 107 29.5 c 128,-1,57
 44 70 44 70 44 136 c 0,0,1
EndSplineSet
Substitution2: "'onum' Oldstyle Figures lookup 16 subtable" threeoldstyle
EndChar

StartChar: four
Encoding: 52 52 23
Width: 525
GlyphClass: 2
Flags: W
TeX: 610 0
LayerCount: 2
Fore
SplineSet
29 209 m 0,0,1
 29 231 29 231 38 244 c 2,2,-1
 266 602 l 2,3,4
 275 617 275 617 282 620 c 128,-1,5
 289 623 289 623 308 623 c 2,6,-1
 336 623 l 2,7,8
 361 623 361 623 369 615 c 128,-1,9
 377 607 377 607 377 582 c 2,10,-1
 377 230 l 1,11,-1
 455 230 l 2,12,13
 467 230 467 230 473.5 229 c 128,-1,14
 480 228 480 228 487.5 220.5 c 128,-1,15
 495 213 495 213 495 199 c 0,16,17
 495 169 495 169 455 169 c 2,18,-1
 377 169 l 1,19,-1
 377 61 l 1,20,-1
 439 61 l 2,21,22
 451 61 451 61 457.5 60 c 128,-1,23
 464 59 464 59 471.5 51.5 c 128,-1,24
 479 44 479 44 479 30 c 0,25,26
 479 0 479 0 439 0 c 2,27,-1
 259 0 l 2,28,29
 219 0 219 0 219 30 c 0,30,31
 219 44 219 44 226.5 51.5 c 128,-1,32
 234 59 234 59 240.5 60 c 128,-1,33
 247 61 247 61 259 61 c 2,34,-1
 321 61 l 1,35,-1
 321 169 l 1,36,-1
 69 169 l 2,37,38
 45 169 45 169 37 177 c 128,-1,39
 29 185 29 185 29 209 c 0,0,1
99 230 m 1,40,-1
 321 230 l 1,41,-1
 321 579 l 1,42,-1
 99 230 l 1,40,-1
EndSplineSet
Substitution2: "'onum' Oldstyle Figures lookup 16 subtable" fouroldstyle
EndChar

StartChar: five
Encoding: 53 53 24
Width: 525
GlyphClass: 2
Flags: W
TeX: 610 0
LayerCount: 2
Fore
SplineSet
52 142 m 0,0,1
 52 168 52 168 66.5 179 c 128,-1,2
 81 190 81 190 97 190 c 0,3,4
 114 190 114 190 127.5 178 c 128,-1,5
 141 166 141 166 141 145 c 0,6,7
 141 126 141 126 128 113 c 1,8,9
 160 50 160 50 248 50 c 0,10,11
 312 50 312 50 357.5 90.5 c 128,-1,12
 403 131 403 131 403 190 c 0,13,14
 403 243 403 243 368.5 285.5 c 128,-1,15
 334 328 334 328 276 328 c 0,16,17
 192 328 192 328 150 278 c 0,18,19
 138 263 138 263 120 263 c 0,20,21
 105 263 105 263 97.5 270.5 c 128,-1,22
 90 278 90 278 89 284.5 c 128,-1,23
 88 291 88 291 88 304 c 2,24,-1
 88 570 l 2,25,26
 88 594 88 594 96 602.5 c 128,-1,27
 104 611 104 611 128 611 c 2,28,-1
 397 611 l 2,29,30
 409 611 409 611 415.5 610 c 128,-1,31
 422 609 422 609 429.5 601.5 c 128,-1,32
 437 594 437 594 437 580 c 0,33,34
 437 550 437 550 397 550 c 2,35,-1
 157 550 l 1,36,-1
 157 360 l 1,37,38
 211 389 211 389 277 389 c 0,39,40
 362 389 362 389 417 329 c 128,-1,41
 472 269 472 269 472 190 c 0,42,43
 472 107 472 107 407 48 c 128,-1,44
 342 -11 342 -11 248 -11 c 0,45,46
 165 -11 165 -11 108.5 34 c 128,-1,47
 52 79 52 79 52 142 c 0,0,1
EndSplineSet
Substitution2: "'onum' Oldstyle Figures lookup 16 subtable" fiveoldstyle
EndChar

StartChar: six
Encoding: 54 54 25
Width: 525
GlyphClass: 2
Flags: W
TeX: 610 0
LayerCount: 2
Fore
SplineSet
53 299 m 0,0,1
 53 444 53 444 133.5 533 c 128,-1,2
 214 622 214 622 321 622 c 0,3,4
 388 622 388 622 421 591.5 c 128,-1,5
 454 561 454 561 454 519 c 0,6,7
 454 497 454 497 441 484.5 c 128,-1,8
 428 472 428 472 409 472 c 128,-1,9
 390 472 390 472 377.5 485 c 128,-1,10
 365 498 365 498 365 516 c 0,11,12
 365 535 365 535 375 545 c 1,13,14
 359 561 359 561 320 561 c 0,15,16
 250 561 250 561 192 500 c 128,-1,17
 134 439 134 439 124 338 c 1,18,19
 188 396 188 396 273 396 c 0,20,21
 356 396 356 396 413.5 337 c 128,-1,22
 471 278 471 278 471 193 c 0,23,24
 471 105 471 105 409.5 47 c 128,-1,25
 348 -11 348 -11 264 -11 c 0,26,27
 224 -11 224 -11 188.5 5 c 128,-1,28
 153 21 153 21 121.5 54.5 c 128,-1,29
 90 88 90 88 71.5 151 c 128,-1,30
 53 214 53 214 53 299 c 0,0,1
132 222 m 0,31,32
 132 212 132 212 135 191 c 1,33,-1
 134 182 l 1,34,-1
 135 178 l 2,35,36
 136 175 136 175 137.5 169 c 128,-1,37
 139 163 139 163 140 160 c 0,38,39
 176 50 176 50 264 50 c 0,40,41
 320 50 320 50 361 90 c 128,-1,42
 402 130 402 130 402 193 c 0,43,44
 402 251 402 251 364.5 292.5 c 128,-1,45
 327 334 327 334 268 334 c 0,46,47
 211 334 211 334 171.5 301.5 c 128,-1,48
 132 269 132 269 132 222 c 0,31,32
EndSplineSet
Substitution2: "'onum' Oldstyle Figures lookup 16 subtable" sixoldstyle
EndChar

StartChar: seven
Encoding: 55 55 26
Width: 525
GlyphClass: 2
Flags: W
TeX: 610 0
LayerCount: 2
Fore
SplineSet
44 544 m 2,0,-1
 44 586 l 2,1,2
 44 599 44 599 45 606 c 128,-1,3
 46 613 46 613 54 620 c 128,-1,4
 62 627 62 627 78 627 c 0,5,6
 104 627 104 627 110 611 c 1,7,-1
 440 611 l 2,8,9
 452 611 452 611 458.5 610 c 128,-1,10
 465 609 465 609 472.5 601.5 c 128,-1,11
 480 594 480 594 480 580 c 0,12,13
 480 570 480 570 476.5 565 c 128,-1,14
 473 560 473 560 458 546 c 0,15,16
 435 523 435 523 412 496.5 c 128,-1,17
 389 470 389 470 356.5 420.5 c 128,-1,18
 324 371 324 371 300 317 c 128,-1,19
 276 263 276 263 258 186.5 c 128,-1,20
 240 110 240 110 239 29 c 0,21,22
 239 9 239 9 229 -1 c 128,-1,23
 219 -11 219 -11 205 -11 c 0,24,25
 170 -11 170 -11 170 36 c 0,26,27
 170 84 170 84 178.5 138.5 c 128,-1,28
 187 193 187 193 208 263.5 c 128,-1,29
 229 334 229 334 272.5 409.5 c 128,-1,30
 316 485 316 485 377 550 c 1,31,-1
 113 550 l 1,32,33
 113 532 113 532 112 524.5 c 128,-1,34
 111 517 111 517 103 510 c 128,-1,35
 95 503 95 503 78 503 c 0,36,37
 55 503 55 503 49.5 513.5 c 128,-1,38
 44 524 44 524 44 544 c 2,0,-1
EndSplineSet
Substitution2: "'onum' Oldstyle Figures lookup 16 subtable" sevenoldstyle
EndChar

StartChar: eight
Encoding: 56 56 27
Width: 525
GlyphClass: 2
Flags: W
TeX: 610 0
LayerCount: 2
Fore
SplineSet
44 174 m 0,0,1
 44 228 44 228 84 270 c 128,-1,2
 124 312 124 312 183 329 c 1,3,4
 124 348 124 348 91 383.5 c 128,-1,5
 58 419 58 419 58 462 c 0,6,7
 58 525 58 525 116.5 573.5 c 128,-1,8
 175 622 175 622 262 622 c 128,-1,9
 349 622 349 622 407.5 574 c 128,-1,10
 466 526 466 526 466 462 c 0,11,12
 466 419 466 419 433.5 384 c 128,-1,13
 401 349 401 349 341 329 c 1,14,15
 400 312 400 312 440 270 c 128,-1,16
 480 228 480 228 480 174 c 0,17,18
 480 100 480 100 417.5 44.5 c 128,-1,19
 355 -11 355 -11 262 -11 c 0,20,21
 170 -11 170 -11 107 44.5 c 128,-1,22
 44 100 44 100 44 174 c 0,0,1
113 175 m 0,23,24
 113 123 113 123 156.5 86.5 c 128,-1,25
 200 50 200 50 262 50 c 128,-1,26
 324 50 324 50 367.5 86.5 c 128,-1,27
 411 123 411 123 411 175 c 0,28,29
 411 224 411 224 369.5 261.5 c 128,-1,30
 328 299 328 299 262 299 c 0,31,32
 197 299 197 299 155 261 c 128,-1,33
 113 223 113 223 113 175 c 0,23,24
127 461 m 0,34,35
 127 419 127 419 167 389.5 c 128,-1,36
 207 360 207 360 262 360 c 128,-1,37
 317 360 317 360 357 389.5 c 128,-1,38
 397 419 397 419 397 461 c 0,39,40
 397 501 397 501 358 531 c 128,-1,41
 319 561 319 561 262 561 c 0,42,43
 204 561 204 561 165.5 531 c 128,-1,44
 127 501 127 501 127 461 c 0,34,35
EndSplineSet
Substitution2: "'onum' Oldstyle Figures lookup 16 subtable" eightoldstyle
EndChar

StartChar: nine
Encoding: 57 57 28
Width: 525
GlyphClass: 2
Flags: W
TeX: 610 0
LayerCount: 2
Fore
SplineSet
53 418 m 0,0,1
 53 506 53 506 116 564 c 128,-1,2
 179 622 179 622 265 622 c 0,3,4
 303 622 303 622 337.5 607 c 128,-1,5
 372 592 372 592 403 558.5 c 128,-1,6
 434 525 434 525 452.5 461.5 c 128,-1,7
 471 398 471 398 471 312 c 0,8,9
 471 169 471 169 395 79 c 128,-1,10
 319 -11 319 -11 216 -11 c 0,11,12
 171 -11 171 -11 139.5 0 c 128,-1,13
 108 11 108 11 94.5 29 c 128,-1,14
 81 47 81 47 75.5 62 c 128,-1,15
 70 77 70 77 70 92 c 0,16,17
 70 114 70 114 83 126.5 c 128,-1,18
 96 139 96 139 115 139 c 128,-1,19
 134 139 134 139 146.5 126 c 128,-1,20
 159 113 159 113 159 95 c 0,21,22
 159 78 159 78 150 67 c 1,23,24
 172 50 172 50 216 50 c 0,25,26
 287 50 287 50 339.5 114.5 c 128,-1,27
 392 179 392 179 400 273 c 1,28,29
 336 215 336 215 251 215 c 0,30,31
 168 215 168 215 110.5 274 c 128,-1,32
 53 333 53 333 53 418 c 0,0,1
122 418 m 0,33,34
 122 360 122 360 159.5 318.5 c 128,-1,35
 197 277 197 277 256 277 c 0,36,37
 316 277 316 277 354.5 311 c 128,-1,38
 393 345 393 345 393 389 c 0,39,40
 393 394 393 394 391 405.5 c 128,-1,41
 389 417 389 417 389 419 c 0,42,43
 389 422 389 422 389.5 424.5 c 128,-1,44
 390 427 390 427 390 428 c 0,45,46
 390 432 390 432 386 446 c 128,-1,47
 382 460 382 460 373 481.5 c 128,-1,48
 364 503 364 503 352 518 c 0,49,50
 318 561 318 561 265 561 c 0,51,52
 208 561 208 561 165 521 c 128,-1,53
 122 481 122 481 122 418 c 0,33,34
EndSplineSet
Substitution2: "'onum' Oldstyle Figures lookup 16 subtable" nineoldstyle
EndChar

StartChar: less
Encoding: 60 60 31
Width: 525
GlyphClass: 2
Flags: W
TeX: 554 -55
LayerCount: 2
Fore
SplineSet
56 306 m 0,0,1
 56 312 56 312 58 316.5 c 128,-1,2
 60 321 60 321 63.5 325 c 128,-1,3
 67 329 67 329 69.5 331 c 128,-1,4
 72 333 72 333 76 336 c 2,5,-1
 81 338 l 1,6,-1
 414 543 l 2,7,8
 428 551 428 551 437 551 c 0,9,10
 448 551 448 551 458 542.5 c 128,-1,11
 468 534 468 534 468 521 c 0,12,13
 468 505 468 505 446 490 c 2,14,-1
 146 305 l 2,15,16
 149 304 149 304 169 291 c 2,17,-1
 446 121 l 2,18,19
 468 106 468 106 468 90 c 0,20,21
 468 77 468 77 458 68.5 c 128,-1,22
 448 60 448 60 437 60 c 0,23,24
 428 60 428 60 414 68 c 2,25,-1
 81 273 l 2,26,27
 56 287 56 287 56 306 c 0,0,1
EndSplineSet
EndChar

StartChar: equal
Encoding: 61 61 32
Width: 525
GlyphClass: 2
Flags: W
TeX: 415 -195
LayerCount: 2
Fore
SplineSet
37 382 m 0,0,1
 37 412 37 412 78 412 c 2,2,-1
 447 412 l 2,3,4
 486 412 486 412 486 381 c 0,5,6
 486 370 486 370 478 360 c 128,-1,7
 470 350 470 350 452 350 c 2,8,-1
 74 350 l 2,9,10
 37 350 37 350 37 382 c 0,0,1
38 230 m 0,11,12
 38 261 38 261 74 261 c 2,13,-1
 449 261 l 2,14,15
 464 261 464 261 473 254 c 128,-1,16
 482 247 482 247 484 241.5 c 128,-1,17
 486 236 486 236 486 230 c 0,18,19
 486 199 486 199 446 199 c 2,20,-1
 75 199 l 2,21,22
 38 200 38 200 38 230 c 0,11,12
EndSplineSet
EndChar

StartChar: greater
Encoding: 62 62 33
Width: 525
GlyphClass: 2
Flags: W
TeX: 554 -55
LayerCount: 2
Fore
SplineSet
56 90 m 0,0,1
 56 106 56 106 78 121 c 2,2,-1
 378 306 l 2,3,4
 375 308 375 308 355 320 c 2,5,-1
 78 490 l 2,6,7
 56 505 56 505 56 521 c 0,8,9
 56 532 56 532 65 541.5 c 128,-1,10
 74 551 74 551 87 551 c 0,11,12
 96 551 96 551 110 543 c 2,13,-1
 443 339 l 2,14,15
 468 325 468 325 468 306 c 0,16,17
 468 290 468 290 443 273 c 2,18,-1
 110 68 l 2,19,20
 96 60 96 60 87 60 c 0,21,22
 75 60 75 60 65.5 68.5 c 128,-1,23
 56 77 56 77 56 90 c 0,0,1
EndSplineSet
EndChar

StartChar: question
Encoding: 63 63 34
Width: 525
GlyphClass: 2
Flags: W
TeX: 610 0
LayerCount: 2
Fore
SplineSet
62 495 m 0,0,1
 62 544 62 544 108.5 580.5 c 128,-1,2
 155 617 155 617 252 617 c 0,3,4
 317 617 317 617 362 603.5 c 128,-1,5
 407 590 407 590 427 568.5 c 128,-1,6
 447 547 447 547 454.5 529 c 128,-1,7
 462 511 462 511 462 493 c 0,8,9
 462 432 462 432 396 396 c 0,10,11
 287 336 287 336 287 241 c 2,12,-1
 287 224 l 2,13,14
 287 199 287 199 278.5 191.5 c 128,-1,15
 270 184 270 184 247 184 c 0,16,17
 219 184 219 184 213 194 c 128,-1,18
 207 204 207 204 207 236 c 0,19,20
 207 254 207 254 208 266 c 128,-1,21
 209 278 209 278 216.5 303.5 c 128,-1,22
 224 329 224 329 238 349 c 128,-1,23
 252 369 252 369 281.5 395.5 c 128,-1,24
 311 422 311 422 352 445 c 0,25,26
 365 452 365 452 372 456.5 c 128,-1,27
 379 461 379 461 386 471 c 128,-1,28
 393 481 393 481 393 493 c 0,29,30
 393 519 393 519 358 537.5 c 128,-1,31
 323 556 323 556 252 556 c 0,32,33
 172 556 172 556 141 521 c 1,34,35
 151 509 151 509 151 493 c 0,36,37
 151 473 151 473 137.5 460.5 c 128,-1,38
 124 448 124 448 107 448 c 0,39,40
 89 448 89 448 75.5 460.5 c 128,-1,41
 62 473 62 473 62 495 c 0,0,1
197 50 m 128,-1,43
 197 71 197 71 211.5 85.5 c 128,-1,44
 226 100 226 100 247 100 c 128,-1,45
 268 100 268 100 282.5 85.5 c 128,-1,46
 297 71 297 71 297 50 c 128,-1,47
 297 29 297 29 282.5 14.5 c 128,-1,48
 268 0 268 0 247 0 c 128,-1,49
 226 0 226 0 211.5 14.5 c 128,-1,42
 197 29 197 29 197 50 c 128,-1,43
EndSplineSet
EndChar

StartChar: at
Encoding: 64 64 35
Width: 525
GlyphClass: 2
Flags: W
TeX: 610 0
LayerCount: 2
Fore
SplineSet
44 306 m 128,-1,1
 44 438 44 438 121.5 527.5 c 128,-1,2
 199 617 199 617 304 617 c 0,3,4
 480 617 480 617 480 321 c 0,5,6
 480 260 480 260 464.5 215 c 128,-1,7
 449 170 449 170 425 148 c 128,-1,8
 401 126 401 126 378.5 116 c 128,-1,9
 356 106 356 106 335 106 c 0,10,11
 277 106 277 106 234 162.5 c 128,-1,12
 191 219 191 219 191 306 c 0,13,14
 191 390 191 390 233.5 447.5 c 128,-1,15
 276 505 276 505 336 505 c 0,16,17
 370 505 370 505 400 485 c 1,18,19
 373 556 373 556 304 556 c 0,20,21
 224 556 224 556 162 484.5 c 128,-1,22
 100 413 100 413 100 305 c 0,23,24
 100 200 100 200 161.5 127.5 c 128,-1,25
 223 55 223 55 305 55 c 0,26,27
 365 55 365 55 412 98 c 0,28,29
 422 108 422 108 442 108 c 0,30,31
 480 108 480 108 480 80 c 0,32,33
 480 56 480 56 424.5 25 c 128,-1,34
 369 -6 369 -6 306 -6 c 0,35,36
 199 -6 199 -6 121.5 84 c 128,-1,0
 44 174 44 174 44 306 c 128,-1,1
247 305 m 0,37,38
 247 247 247 247 273.5 207 c 128,-1,39
 300 167 300 167 336 167 c 0,40,41
 370 167 370 167 397 206.5 c 128,-1,42
 424 246 424 246 424 305 c 128,-1,43
 424 364 424 364 397 404 c 128,-1,44
 370 444 370 444 335 444 c 0,45,46
 301 444 301 444 274 404.5 c 128,-1,47
 247 365 247 365 247 305 c 0,37,38
EndSplineSet
EndChar

StartChar: A
Encoding: 65 65 36
Width: 525
GlyphClass: 2
Flags: W
TeX: 610 0
AnchorPoint: "Anchor-5" 262 622 basechar 0
AnchorPoint: "Anchor-4" 262 0 basechar 0
AnchorPoint: "Anchor-1" 401 0 basechar 0
LayerCount: 2
Fore
SplineSet
27 30 m 0,0,1
 27 50 27 50 44 59 c 0,2,3
 50 61 50 61 87 61 c 1,4,-1
 208 585 l 2,5,6
 212 603 212 603 220 611.5 c 128,-1,7
 228 620 228 620 236 621.5 c 128,-1,8
 244 623 244 623 262 623 c 128,-1,9
 280 623 280 623 288.5 621.5 c 128,-1,10
 297 620 297 620 304.5 611 c 128,-1,11
 312 602 312 602 316 584 c 2,12,-1
 437 61 l 1,13,14
 474 61 474 61 480 58 c 0,15,16
 497 51 497 51 497 30 c 0,17,18
 497 0 497 0 454 0 c 2,19,-1
 352 0 l 2,20,21
 339 0 339 0 332 1 c 128,-1,22
 325 2 325 2 317.5 9 c 128,-1,23
 310 16 310 16 310 30 c 0,24,25
 310 45 310 45 317.5 52 c 128,-1,26
 325 59 325 59 334.5 60 c 128,-1,27
 344 61 344 61 366 61 c 1,28,-1
 343 165 l 1,29,-1
 181 165 l 1,30,-1
 158 61 l 1,31,32
 180 61 180 61 189.5 60 c 128,-1,33
 199 59 199 59 206.5 52 c 128,-1,34
 214 45 214 45 214 30 c 0,35,36
 214 16 214 16 206.5 9 c 128,-1,37
 199 2 199 2 192 1 c 128,-1,38
 185 0 185 0 172 0 c 2,39,-1
 70 0 l 2,40,41
 27 0 27 0 27 30 c 0,0,1
196 226 m 1,42,-1
 328 226 l 1,43,-1
 262 540 l 1,44,-1
 196 226 l 1,42,-1
EndSplineSet
EndChar

StartChar: B
Encoding: 66 66 37
Width: 525
GlyphClass: 2
Flags: W
TeX: 610 0
AnchorPoint: "Anchor-5" 218 622 basechar 0
AnchorPoint: "Anchor-4" 218 0 basechar 0
LayerCount: 2
Fore
SplineSet
23 30 m 0,0,1
 23 61 23 61 64 61 c 2,2,-1
 91 61 l 1,3,-1
 91 550 l 1,4,-1
 64 550 l 2,5,6
 23 550 23 550 23 581 c 0,7,8
 23 611 23 611 63 611 c 2,9,-1
 289 611 l 2,10,11
 367 611 367 611 414 563.5 c 128,-1,12
 461 516 461 516 461 456 c 0,13,14
 461 410 461 410 431.5 373.5 c 128,-1,15
 402 337 402 337 353 320 c 1,16,17
 412 306 412 306 447 263 c 128,-1,18
 482 220 482 220 482 167 c 0,19,20
 482 103 482 103 435 51.5 c 128,-1,21
 388 0 388 0 309 0 c 2,22,-1
 63 0 l 2,23,24
 23 0 23 0 23 30 c 0,0,1
160 61 m 1,25,-1
 287 61 l 2,26,27
 347 61 347 61 380 94 c 128,-1,28
 413 127 413 127 413 169 c 128,-1,29
 413 211 413 211 384 249 c 128,-1,30
 355 287 355 287 298 287 c 2,31,-1
 160 287 l 1,32,-1
 160 61 l 1,25,-1
160 348 m 1,33,-1
 263 348 l 2,34,35
 328 348 328 348 360 382 c 128,-1,36
 392 416 392 416 392 455 c 0,37,38
 392 489 392 489 367 519.5 c 128,-1,39
 342 550 342 550 285 550 c 2,40,-1
 160 550 l 1,41,-1
 160 348 l 1,33,-1
EndSplineSet
EndChar

StartChar: C
Encoding: 67 67 38
Width: 525
GlyphClass: 2
Flags: W
TeX: 610 0
AnchorPoint: "Anchor-5" 280 622 basechar 0
AnchorPoint: "Anchor-4" 282 0 basechar 0
LayerCount: 2
Fore
SplineSet
40 306 m 0,0,1
 40 440 40 440 111.5 531 c 128,-1,2
 183 622 183 622 281 622 c 0,3,4
 354 622 354 622 411 574 c 1,5,6
 417 585 417 585 420 591.5 c 128,-1,7
 423 598 423 598 424.5 601 c 128,-1,8
 426 604 426 604 426 605 c 0,9,10
 438 622 438 622 454 622 c 0,11,12
 484 622 484 622 484 581 c 2,13,-1
 484 442 l 2,14,15
 484 429 484 429 483 422 c 128,-1,16
 482 415 482 415 473.5 408 c 128,-1,17
 465 401 465 401 449 401 c 0,18,19
 435 401 435 401 427 406.5 c 128,-1,20
 419 412 419 412 417.5 417 c 128,-1,21
 416 422 416 422 414 434 c 0,22,23
 404 493 404 493 368 527 c 128,-1,24
 332 561 332 561 285 561 c 0,25,26
 216 561 216 561 162.5 487.5 c 128,-1,27
 109 414 109 414 109 306 c 0,28,29
 109 197 109 197 162.5 123.5 c 128,-1,30
 216 50 216 50 286 50 c 0,31,32
 328 50 328 50 369 78.5 c 128,-1,33
 410 107 410 107 415 172 c 0,34,35
 417 201 417 201 449 201 c 0,36,37
 484 201 484 201 484 168 c 0,38,39
 484 98 484 98 425.5 43.5 c 128,-1,40
 367 -11 367 -11 282 -11 c 0,41,42
 183 -11 183 -11 111.5 80 c 128,-1,43
 40 171 40 171 40 306 c 0,0,1
EndSplineSet
EndChar

StartChar: D
Encoding: 68 68 39
Width: 525
GlyphClass: 2
Flags: W
TeX: 610 0
AnchorPoint: "Anchor-5" 217 622 basechar 0
AnchorPoint: "Anchor-4" 217 0 basechar 0
LayerCount: 2
Fore
SplineSet
19 30 m 0,0,1
 19 61 19 61 60 61 c 2,2,-1
 82 61 l 1,3,-1
 82 550 l 1,4,-1
 60 550 l 2,5,6
 19 550 19 550 19 580 c 0,7,8
 19 611 19 611 60 611 c 2,9,-1
 266 611 l 2,10,11
 362 611 362 611 423.5 518.5 c 128,-1,12
 485 426 485 426 485 301 c 0,13,14
 485 177 485 177 423.5 88.5 c 128,-1,15
 362 0 362 0 266 0 c 2,16,-1
 60 0 l 2,17,18
 19 0 19 0 19 30 c 0,0,1
151 61 m 1,19,-1
 247 61 l 2,20,21
 326 61 326 61 371 133.5 c 128,-1,22
 416 206 416 206 416 301 c 0,23,24
 416 397 416 397 371 473.5 c 128,-1,25
 326 550 326 550 247 550 c 2,26,-1
 151 550 l 1,27,-1
 151 61 l 1,19,-1
EndSplineSet
EndChar

StartChar: E
Encoding: 69 69 40
Width: 525
GlyphClass: 2
Flags: W
TeX: 610 0
AnchorPoint: "Anchor-5" 264 622 basechar 0
AnchorPoint: "Anchor-4" 264 0 basechar 0
AnchorPoint: "Anchor-1" 264 0 basechar 0
LayerCount: 2
Fore
SplineSet
26 30 m 0,0,1
 26 61 26 61 67 61 c 2,2,-1
 97 61 l 1,3,-1
 97 550 l 1,4,-1
 67 550 l 2,5,6
 26 550 26 550 26 581 c 0,7,8
 26 611 26 611 67 611 c 2,9,-1
 440 611 l 2,10,11
 465 611 465 611 472.5 602.5 c 128,-1,12
 480 594 480 594 480 570 c 2,13,-1
 480 497 l 2,14,15
 480 484 480 484 479 477 c 128,-1,16
 478 470 478 470 469.5 463 c 128,-1,17
 461 456 461 456 445 456 c 0,18,19
 422 456 422 456 416.5 466.5 c 128,-1,20
 411 477 411 477 411 497 c 2,21,-1
 411 550 l 1,22,-1
 166 550 l 1,23,-1
 166 347 l 1,24,-1
 297 347 l 1,25,26
 297 372 297 372 298.5 381.5 c 128,-1,27
 300 391 300 391 307.5 397.5 c 128,-1,28
 315 404 315 404 332 404 c 0,29,30
 355 404 355 404 360.5 393.5 c 128,-1,31
 366 383 366 383 366 363 c 2,32,-1
 366 270 l 2,33,34
 366 257 366 257 365 250 c 128,-1,35
 364 243 364 243 356 236 c 128,-1,36
 348 229 348 229 332 229 c 0,37,38
 308 229 308 229 302.5 240 c 128,-1,39
 297 251 297 251 297 286 c 1,40,-1
 166 286 l 1,41,-1
 166 61 l 1,42,-1
 433 61 l 1,43,-1
 433 130 l 2,44,45
 433 143 433 143 434 150 c 128,-1,46
 435 157 435 157 443.5 164 c 128,-1,47
 452 171 452 171 468 171 c 0,48,49
 491 171 491 171 496.5 160.5 c 128,-1,50
 502 150 502 150 502 130 c 2,51,-1
 502 41 l 2,52,53
 502 17 502 17 494 8.5 c 128,-1,54
 486 0 486 0 462 0 c 2,55,-1
 67 0 l 2,56,57
 26 0 26 0 26 30 c 0,0,1
EndSplineSet
EndChar

StartChar: F
Encoding: 70 70 41
Width: 525
GlyphClass: 2
Flags: W
TeX: 610 0
AnchorPoint: "Anchor-5" 259 622 basechar 0
AnchorPoint: "Anchor-4" 259 0 basechar 0
LayerCount: 2
Fore
SplineSet
28 30 m 0,0,1
 28 61 28 61 69 61 c 2,2,-1
 102 61 l 1,3,-1
 102 550 l 1,4,-1
 69 550 l 2,5,6
 28 550 28 550 28 580 c 0,7,8
 28 611 28 611 69 611 c 2,9,-1
 450 611 l 2,10,11
 475 611 475 611 482.5 602.5 c 128,-1,12
 490 594 490 594 490 570 c 2,13,-1
 490 497 l 2,14,15
 490 484 490 484 489 477 c 128,-1,16
 488 470 488 470 479.5 463 c 128,-1,17
 471 456 471 456 455 456 c 0,18,19
 432 456 432 456 426.5 466.5 c 128,-1,20
 421 477 421 477 421 497 c 2,21,-1
 421 550 l 1,22,-1
 171 550 l 1,23,-1
 171 336 l 1,24,-1
 307 336 l 1,25,26
 307 361 307 361 308.5 370.5 c 128,-1,27
 310 380 310 380 317.5 386.5 c 128,-1,28
 325 393 325 393 342 393 c 0,29,30
 365 393 365 393 370.5 382.5 c 128,-1,31
 376 372 376 372 376 352 c 2,32,-1
 376 259 l 2,33,34
 376 246 376 246 375 239 c 128,-1,35
 374 232 374 232 366 225 c 128,-1,36
 358 218 358 218 342 218 c 0,37,38
 318 218 318 218 312.5 229 c 128,-1,39
 307 240 307 240 307 275 c 1,40,-1
 171 275 l 1,41,-1
 171 61 l 1,42,-1
 223 61 l 2,43,44
 235 61 235 61 241.5 60 c 128,-1,45
 248 59 248 59 255.5 51.5 c 128,-1,46
 263 44 263 44 263 30 c 0,47,48
 263 0 263 0 223 0 c 2,49,-1
 69 0 l 2,50,51
 28 0 28 0 28 30 c 0,0,1
EndSplineSet
EndChar

StartChar: G
Encoding: 71 71 42
Width: 525
GlyphClass: 2
Flags: W
TeX: 610 0
AnchorPoint: "Anchor-5" 260 622 basechar 0
AnchorPoint: "Anchor-4" 261 0 basechar 0
LayerCount: 2
Fore
SplineSet
38 306 m 0,0,1
 38 440 38 440 104 531 c 128,-1,2
 170 622 170 622 261 622 c 0,3,4
 326 622 326 622 378 577 c 1,5,6
 390 605 390 605 397 613.5 c 128,-1,7
 404 622 404 622 419 622 c 0,8,9
 449 622 449 622 449 581 c 2,10,-1
 449 442 l 2,11,12
 449 429 449 429 448 422 c 128,-1,13
 447 415 447 415 438.5 408 c 128,-1,14
 430 401 430 401 414 401 c 0,15,16
 383 401 383 401 380 430 c 0,17,18
 369 502 369 502 334.5 531.5 c 128,-1,19
 300 561 300 561 265 561 c 0,20,21
 204 561 204 561 155.5 488 c 128,-1,22
 107 415 107 415 107 305 c 0,23,24
 107 197 107 197 154.5 123.5 c 128,-1,25
 202 50 202 50 264 50 c 0,26,27
 307 50 307 50 338 89.5 c 128,-1,28
 369 129 369 129 378 209 c 1,29,-1
 336 209 l 2,30,31
 324 209 324 209 317.5 210 c 128,-1,32
 311 211 311 211 303.5 218.5 c 128,-1,33
 296 226 296 226 296 240 c 0,34,35
 296 270 296 270 336 270 c 2,36,-1
 455 270 l 2,37,38
 496 270 496 270 496 240 c 0,39,40
 496 226 496 226 488.5 218.5 c 128,-1,41
 481 211 481 211 473 210 c 128,-1,42
 465 209 465 209 449 209 c 1,43,-1
 449 41 l 2,44,45
 449 28 449 28 448 21 c 128,-1,46
 447 14 447 14 439 7 c 128,-1,47
 431 0 431 0 415 0 c 128,-1,48
 399 0 399 0 390.5 7 c 128,-1,49
 382 14 382 14 381 21 c 128,-1,50
 380 28 380 28 380 42 c 1,51,52
 334 -11 334 -11 261 -11 c 0,53,54
 170 -11 170 -11 104 80 c 128,-1,55
 38 171 38 171 38 306 c 0,0,1
EndSplineSet
EndChar

StartChar: H
Encoding: 72 72 43
Width: 525
GlyphClass: 2
Flags: W
TeX: 610 0
AnchorPoint: "Anchor-5" 262 622 basechar 0
AnchorPoint: "Anchor-4" 262 0 basechar 0
LayerCount: 2
Fore
SplineSet
22 30 m 0,0,1
 22 44 22 44 29.5 51.5 c 128,-1,2
 37 59 37 59 43.5 60 c 128,-1,3
 50 61 50 61 62 61 c 2,4,-1
 87 61 l 1,5,-1
 87 550 l 1,6,-1
 62 550 l 2,7,8
 22 550 22 550 22 580 c 0,9,10
 22 594 22 594 29.5 601.5 c 128,-1,11
 37 609 37 609 43.5 610 c 128,-1,12
 50 611 50 611 62 611 c 2,13,-1
 181 611 l 2,14,15
 193 611 193 611 199.5 610 c 128,-1,16
 206 609 206 609 213.5 601.5 c 128,-1,17
 221 594 221 594 221 580 c 0,18,19
 221 550 221 550 181 550 c 2,20,-1
 156 550 l 1,21,-1
 156 348 l 1,22,-1
 368 348 l 1,23,-1
 368 550 l 1,24,-1
 343 550 l 2,25,26
 331 550 331 550 324.5 551 c 128,-1,27
 318 552 318 552 310.5 559.5 c 128,-1,28
 303 567 303 567 303 581 c 0,29,30
 303 611 303 611 343 611 c 2,31,-1
 462 611 l 2,32,33
 474 611 474 611 480.5 610 c 128,-1,34
 487 609 487 609 494.5 601.5 c 128,-1,35
 502 594 502 594 502 580 c 0,36,37
 502 550 502 550 462 550 c 2,38,-1
 437 550 l 1,39,-1
 437 61 l 1,40,-1
 462 61 l 2,41,42
 474 61 474 61 480.5 60 c 128,-1,43
 487 59 487 59 494.5 51.5 c 128,-1,44
 502 44 502 44 502 30 c 0,45,46
 502 0 502 0 462 0 c 2,47,-1
 343 0 l 2,48,49
 331 0 331 0 324.5 1 c 128,-1,50
 318 2 318 2 310.5 9.5 c 128,-1,51
 303 17 303 17 303 31 c 0,52,53
 303 61 303 61 343 61 c 2,54,-1
 368 61 l 1,55,-1
 368 287 l 1,56,-1
 156 287 l 1,57,-1
 156 61 l 1,58,-1
 181 61 l 2,59,60
 193 61 193 61 199.5 60 c 128,-1,61
 206 59 206 59 213.5 51.5 c 128,-1,62
 221 44 221 44 221 30 c 0,63,64
 221 0 221 0 181 0 c 2,65,-1
 62 0 l 2,66,67
 22 0 22 0 22 30 c 0,0,1
EndSplineSet
EndChar

StartChar: I
Encoding: 73 73 44
Width: 525
GlyphClass: 2
Flags: W
TeX: 610 0
AnchorPoint: "Anchor-5" 262 622 basechar 0
AnchorPoint: "Anchor-4" 262 0 basechar 0
AnchorPoint: "Anchor-1" 262 0 basechar 0
LayerCount: 2
Fore
SplineSet
79 31 m 0,0,1
 79 61 79 61 120 61 c 2,2,-1
 228 61 l 1,3,-1
 228 550 l 1,4,-1
 120 550 l 2,5,6
 79 550 79 550 79 581 c 0,7,8
 79 611 79 611 120 611 c 2,9,-1
 405 611 l 2,10,11
 446 611 446 611 446 580 c 0,12,13
 446 550 446 550 405 550 c 2,14,-1
 297 550 l 1,15,-1
 297 61 l 1,16,-1
 405 61 l 2,17,18
 446 61 446 61 446 30 c 0,19,20
 446 0 446 0 405 0 c 2,21,-1
 120 0 l 2,22,23
 79 0 79 0 79 31 c 0,0,1
EndSplineSet
EndChar

StartChar: J
Encoding: 74 74 45
Width: 525
GlyphClass: 2
Flags: W
TeX: 610 0
AnchorPoint: "Anchor-5" 372 622 basechar 0
AnchorPoint: "Anchor-4" 274 0 basechar 0
LayerCount: 2
Fore
SplineSet
71 99 m 0,0,1
 71 122 71 122 84 134 c 128,-1,2
 97 146 97 146 116 146 c 128,-1,3
 135 146 135 146 147.5 133 c 128,-1,4
 160 120 160 120 160 102 c 0,5,6
 160 86 160 86 152 76 c 1,7,8
 181 50 181 50 237 50 c 0,9,10
 249 50 249 50 261.5 52.5 c 128,-1,11
 274 55 274 55 293.5 62.5 c 128,-1,12
 313 70 313 70 325.5 90 c 128,-1,13
 338 110 338 110 338 140 c 2,14,-1
 338 550 l 1,15,-1
 256 550 l 2,16,17
 215 550 215 550 215 581 c 0,18,19
 215 611 215 611 256 611 c 2,20,-1
 437 611 l 2,21,22
 478 611 478 611 478 581 c 0,23,24
 478 550 478 550 437 550 c 2,25,-1
 407 550 l 1,26,-1
 407 134 l 2,27,28
 407 68 407 68 357 28.5 c 128,-1,29
 307 -11 307 -11 237 -11 c 0,30,31
 163 -11 163 -11 117 20 c 128,-1,32
 71 51 71 51 71 99 c 0,0,1
EndSplineSet
EndChar

StartChar: K
Encoding: 75 75 46
Width: 525
GlyphClass: 2
Flags: W
TeX: 610 0
AnchorPoint: "Anchor-5" 260 622 basechar 0
AnchorPoint: "Anchor-4" 260 0 basechar 0
LayerCount: 2
Fore
SplineSet
26 31 m 0,0,1
 26 61 26 61 67 61 c 2,2,-1
 89 61 l 1,3,-1
 89 550 l 1,4,-1
 67 550 l 2,5,6
 26 550 26 550 26 581 c 0,7,8
 26 611 26 611 67 611 c 2,9,-1
 167 611 l 2,10,11
 208 611 208 611 208 580 c 0,12,13
 208 550 208 550 167 550 c 2,14,-1
 145 550 l 1,15,-1
 145 284 l 1,16,-1
 356 550 l 1,17,18
 315 550 315 550 315 580 c 0,19,20
 315 611 315 611 356 611 c 2,21,-1
 444 611 l 2,22,23
 485 611 485 611 485 581 c 0,24,25
 485 566 485 566 477 559 c 128,-1,26
 469 552 469 552 459.5 551 c 128,-1,27
 450 550 450 550 428 550 c 1,28,-1
 276 358 l 1,29,-1
 436 73 l 2,30,31
 436 72 436 72 439 67.5 c 128,-1,32
 442 63 442 63 443 61 c 0,33,34
 462 61 462 61 470.5 60 c 128,-1,35
 479 59 479 59 487 52 c 128,-1,36
 495 45 495 45 495 30 c 0,37,38
 495 0 495 0 454 0 c 2,39,-1
 379 0 l 2,40,41
 338 0 338 0 338 31 c 0,42,43
 338 61 338 61 378 61 c 1,44,-1
 238 311 l 1,45,-1
 145 194 l 1,46,-1
 145 61 l 1,47,-1
 167 61 l 2,48,49
 208 61 208 61 208 30 c 0,50,51
 208 0 208 0 167 0 c 2,52,-1
 67 0 l 2,53,54
 26 0 26 0 26 31 c 0,0,1
EndSplineSet
EndChar

StartChar: L
Encoding: 76 76 47
Width: 525
GlyphClass: 2
Flags: W
TeX: 610 0
AnchorPoint: "Anchor-5" 260 622 basechar 0
AnchorPoint: "Anchor-4" 260 0 basechar 0
LayerCount: 2
Fore
SplineSet
32 30 m 0,0,1
 32 44 32 44 39.5 51.5 c 128,-1,2
 47 59 47 59 53.5 60 c 128,-1,3
 60 61 60 61 72 61 c 2,4,-1
 109 61 l 1,5,-1
 109 550 l 1,6,-1
 72 550 l 2,7,8
 32 550 32 550 32 580 c 0,9,10
 32 594 32 594 39.5 601.5 c 128,-1,11
 47 609 47 609 53.5 610 c 128,-1,12
 60 611 60 611 72 611 c 2,13,-1
 234 611 l 2,14,15
 275 611 275 611 275 580 c 0,16,17
 275 550 275 550 234 550 c 2,18,-1
 178 550 l 1,19,-1
 178 61 l 1,20,-1
 419 61 l 1,21,-1
 419 130 l 2,22,23
 419 144 419 144 420 151 c 128,-1,24
 421 158 421 158 429.5 164.5 c 128,-1,25
 438 171 438 171 454 171 c 0,26,27
 477 171 477 171 482.5 160.5 c 128,-1,28
 488 150 488 150 488 130 c 2,29,-1
 488 41 l 2,30,31
 488 17 488 17 480 8.5 c 128,-1,32
 472 0 472 0 448 0 c 2,33,-1
 72 0 l 2,34,35
 32 0 32 0 32 30 c 0,0,1
EndSplineSet
EndChar

StartChar: M
Encoding: 77 77 48
Width: 525
GlyphClass: 2
Flags: W
TeX: 610 0
AnchorPoint: "Anchor-5" 262 622 basechar 0
AnchorPoint: "Anchor-4" 262 0 basechar 0
LayerCount: 2
Fore
SplineSet
17 30 m 0,0,1
 17 45 17 45 24.5 52 c 128,-1,2
 32 59 32 59 41 60 c 128,-1,3
 50 61 50 61 70 61 c 1,4,-1
 70 550 l 1,5,6
 50 550 50 550 41 551 c 128,-1,7
 32 552 32 552 24.5 559 c 128,-1,8
 17 566 17 566 17 581 c 0,9,10
 17 611 17 611 57 611 c 2,11,-1
 113 611 l 2,12,13
 152 611 152 611 162 587 c 0,14,15
 255 308 255 308 262 275 c 1,16,-1
 263 275 l 1,17,18
 270 309 270 309 290 369 c 2,19,-1
 357 571 l 2,20,21
 363 587 363 587 366.5 593.5 c 128,-1,22
 370 600 370 600 380.5 605.5 c 128,-1,23
 391 611 391 611 411 611 c 2,24,-1
 467 611 l 2,25,26
 507 611 507 611 507 581 c 0,27,28
 507 566 507 566 499.5 559 c 128,-1,29
 492 552 492 552 483 551 c 128,-1,30
 474 550 474 550 454 550 c 1,31,-1
 454 61 l 1,32,33
 474 61 474 61 483 60 c 128,-1,34
 492 59 492 59 499.5 52 c 128,-1,35
 507 45 507 45 507 30 c 0,36,37
 507 0 507 0 467 0 c 2,38,-1
 385 0 l 2,39,40
 345 0 345 0 345 30 c 0,41,42
 345 45 345 45 352.5 52 c 128,-1,43
 360 59 360 59 369 60 c 128,-1,44
 378 61 378 61 398 61 c 1,45,-1
 398 538 l 1,46,-1
 397 538 l 1,47,48
 392 514 392 514 367.5 437.5 c 128,-1,49
 343 361 343 361 321 295.5 c 128,-1,50
 299 230 299 230 297 226 c 0,51,52
 284 204 284 204 262 204 c 0,53,54
 243 204 243 204 232 219 c 0,55,56
 227 225 227 225 206 287 c 0,57,58
 205 289 205 289 193.5 325 c 128,-1,59
 182 361 182 361 169 400.5 c 128,-1,60
 156 440 156 440 143.5 481 c 128,-1,61
 131 522 131 522 127 538 c 1,62,-1
 126 538 l 1,63,-1
 126 61 l 1,64,65
 146 61 146 61 155 60 c 128,-1,66
 164 59 164 59 171.5 52 c 128,-1,67
 179 45 179 45 179 30 c 0,68,69
 179 0 179 0 139 0 c 2,70,-1
 57 0 l 2,71,72
 17 0 17 0 17 30 c 0,0,1
EndSplineSet
EndChar

StartChar: N
Encoding: 78 78 49
Width: 525
GlyphClass: 2
Flags: W
TeX: 610 0
AnchorPoint: "Anchor-5" 262 622 basechar 0
AnchorPoint: "Anchor-4" 262 0 basechar 0
LayerCount: 2
Fore
SplineSet
28 31 m 0,0,1
 28 61 28 61 68 61 c 2,2,-1
 93 61 l 1,3,-1
 93 550 l 1,4,-1
 68 550 l 2,5,6
 56 550 56 550 49.5 551 c 128,-1,7
 43 552 43 552 35.5 559.5 c 128,-1,8
 28 567 28 567 28 581 c 0,9,10
 28 611 28 611 68 611 c 2,11,-1
 136 611 l 2,12,13
 159 611 159 611 170.5 604.5 c 128,-1,14
 182 598 182 598 190 575 c 2,15,-1
 374 75 l 1,16,-1
 375 75 l 1,17,-1
 375 550 l 1,18,-1
 350 550 l 2,19,20
 310 550 310 550 310 580 c 0,21,22
 310 594 310 594 317.5 601.5 c 128,-1,23
 325 609 325 609 331.5 610 c 128,-1,24
 338 611 338 611 350 611 c 2,25,-1
 456 611 l 2,26,27
 468 611 468 611 474.5 610 c 128,-1,28
 481 609 481 609 488.5 601.5 c 128,-1,29
 496 594 496 594 496 580 c 0,30,31
 496 550 496 550 456 550 c 2,32,-1
 431 550 l 1,33,-1
 431 41 l 2,34,35
 431 14 431 14 422.5 7 c 128,-1,36
 414 0 414 0 389 0 c 0,37,38
 373 0 373 0 365.5 1.5 c 128,-1,39
 358 3 358 3 349 11 c 128,-1,40
 340 19 340 19 334 36 c 2,41,-1
 150 536 l 1,42,-1
 149 536 l 1,43,-1
 149 61 l 1,44,-1
 174 61 l 2,45,46
 186 61 186 61 192.5 60 c 128,-1,47
 199 59 199 59 206.5 51.5 c 128,-1,48
 214 44 214 44 214 30 c 0,49,50
 214 0 214 0 174 0 c 2,51,-1
 68 0 l 2,52,53
 56 0 56 0 49.5 1 c 128,-1,54
 43 2 43 2 35.5 9.5 c 128,-1,55
 28 17 28 17 28 31 c 0,0,1
EndSplineSet
EndChar

StartChar: O
Encoding: 79 79 50
Width: 525
GlyphClass: 2
Flags: W
TeX: 610 0
AnchorPoint: "Anchor-5" 262 622 basechar 0
AnchorPoint: "Anchor-4" 262 0 basechar 0
AnchorPoint: "Anchor-1" 262 0 basechar 0
LayerCount: 2
Fore
SplineSet
56 305 m 128,-1,1
 56 383 56 383 58 429.5 c 128,-1,2
 60 476 60 476 69 515.5 c 128,-1,3
 78 555 78 555 89.5 573 c 128,-1,4
 101 591 101 591 127 603.5 c 128,-1,5
 153 616 153 616 182 619 c 128,-1,6
 211 622 211 622 262 622 c 0,7,8
 300 622 300 622 324.5 620.5 c 128,-1,9
 349 619 349 619 372 613 c 128,-1,10
 395 607 395 607 408.5 598.5 c 128,-1,11
 422 590 422 590 434 571.5 c 128,-1,12
 446 553 446 553 451.5 532.5 c 128,-1,13
 457 512 457 512 461.5 476.5 c 128,-1,14
 466 441 466 441 467 402 c 128,-1,15
 468 363 468 363 468 305 c 0,16,17
 468 227 468 227 466 180.5 c 128,-1,18
 464 134 464 134 455 95 c 128,-1,19
 446 56 446 56 434.5 38 c 128,-1,20
 423 20 423 20 397 7.5 c 128,-1,21
 371 -5 371 -5 341.5 -8 c 128,-1,22
 312 -11 312 -11 262 -11 c 0,23,24
 211 -11 211 -11 182 -8 c 128,-1,25
 153 -5 153 -5 127 7.5 c 128,-1,26
 101 20 101 20 89.5 38 c 128,-1,27
 78 56 78 56 69 95 c 128,-1,28
 60 134 60 134 58 180.5 c 128,-1,0
 56 227 56 227 56 305 c 128,-1,1
125 314 m 0,29,30
 125 172 125 172 137 121 c 0,31,32
 146 82 146 82 172 66 c 128,-1,33
 198 50 198 50 262 50 c 0,34,35
 327 50 327 50 353.5 67 c 128,-1,36
 380 84 380 84 388 127 c 0,37,38
 399 181 399 181 399 314 c 0,39,40
 399 450 399 450 387 497 c 0,41,42
 376 536 376 536 349 548.5 c 128,-1,43
 322 561 322 561 262 561 c 0,44,45
 198 561 198 561 171.5 547 c 128,-1,46
 145 533 145 533 136 490 c 0,47,48
 125 444 125 444 125 314 c 0,29,30
EndSplineSet
EndChar

StartChar: P
Encoding: 80 80 51
Width: 525
GlyphClass: 2
Flags: W
TeX: 610 0
AnchorPoint: "Anchor-5" 218 622 basechar 0
AnchorPoint: "Anchor-4" 218 0 basechar 0
LayerCount: 2
Fore
SplineSet
26 30 m 0,0,1
 26 61 26 61 67 61 c 2,2,-1
 97 61 l 1,3,-1
 97 550 l 1,4,-1
 67 550 l 2,5,6
 26 550 26 550 26 581 c 0,7,8
 26 611 26 611 67 611 c 2,9,-1
 291 611 l 2,10,11
 374 611 374 611 427 556 c 128,-1,12
 480 501 480 501 480 428 c 128,-1,13
 480 355 480 355 427.5 300 c 128,-1,14
 375 245 375 245 291 245 c 2,15,-1
 166 245 l 1,16,-1
 166 61 l 1,17,-1
 196 61 l 2,18,19
 237 61 237 61 237 30 c 0,20,21
 237 0 237 0 196 0 c 2,22,-1
 67 0 l 2,23,24
 26 0 26 0 26 30 c 0,0,1
166 306 m 1,25,-1
 272 306 l 2,26,27
 338 306 338 306 374.5 344 c 128,-1,28
 411 382 411 382 411 428 c 128,-1,29
 411 474 411 474 374.5 512 c 128,-1,30
 338 550 338 550 272 550 c 2,31,-1
 166 550 l 1,32,-1
 166 306 l 1,25,-1
EndSplineSet
EndChar

StartChar: Q
Encoding: 81 81 52
Width: 525
GlyphClass: 2
Flags: W
TeX: 610 138
AnchorPoint: "Anchor-5" 262 622 basechar 0
AnchorPoint: "Anchor-4" 262 -222 basechar 0
LayerCount: 2
Fore
SplineSet
56 305 m 128,-1,1
 56 383 56 383 58 429.5 c 128,-1,2
 60 476 60 476 69 515.5 c 128,-1,3
 78 555 78 555 89.5 573 c 128,-1,4
 101 591 101 591 127 603.5 c 128,-1,5
 153 616 153 616 182 619 c 128,-1,6
 211 622 211 622 262 622 c 0,7,8
 300 622 300 622 324.5 620.5 c 128,-1,9
 349 619 349 619 372 613 c 128,-1,10
 395 607 395 607 408.5 598.5 c 128,-1,11
 422 590 422 590 434 571.5 c 128,-1,12
 446 553 446 553 451.5 532.5 c 128,-1,13
 457 512 457 512 461.5 476.5 c 128,-1,14
 466 441 466 441 467 402 c 128,-1,15
 468 363 468 363 468 305 c 0,16,17
 468 192 468 192 462 138 c 0,18,19
 455 77 455 77 439.5 47 c 128,-1,20
 424 17 424 17 391 4 c 1,21,22
 418 -47 418 -47 424 -56 c 0,23,24
 455 -118 455 -118 455 -120 c 0,25,26
 455 -139 455 -139 423 -139 c 2,27,-1
 414 -139 l 2,28,29
 387 -139 387 -139 379 -127 c 0,30,31
 379 -126 379 -126 364.5 -99 c 128,-1,32
 350 -72 350 -72 335.5 -44 c 128,-1,33
 321 -16 321 -16 318 -10 c 1,34,35
 307 -11 307 -11 262 -11 c 0,36,37
 211 -11 211 -11 182 -8 c 128,-1,38
 153 -5 153 -5 127 7.5 c 128,-1,39
 101 20 101 20 89.5 38 c 128,-1,40
 78 56 78 56 69 95 c 128,-1,41
 60 134 60 134 58 180.5 c 128,-1,0
 56 227 56 227 56 305 c 128,-1,1
125 305 m 0,42,43
 125 183 125 183 134 132 c 0,44,45
 142 88 142 88 166 69 c 128,-1,46
 190 50 190 50 254 50 c 2,47,-1
 286 50 l 1,48,-1
 240 139 l 2,49,50
 236 146 236 146 236 152 c 0,51,52
 236 171 236 171 268 171 c 2,53,-1
 279 171 l 2,54,55
 294 171 294 171 298 168.5 c 128,-1,56
 302 166 302 166 309 155 c 2,57,-1
 357 68 l 1,58,59
 371 78 371 78 378 90 c 128,-1,60
 385 102 385 102 392 155 c 128,-1,61
 399 208 399 208 399 306 c 0,62,63
 399 428 399 428 390 479 c 0,64,65
 382 528 382 528 355.5 544.5 c 128,-1,66
 329 561 329 561 262 561 c 128,-1,67
 195 561 195 561 170 545 c 128,-1,68
 145 529 145 529 135 486 c 0,69,70
 125 438 125 438 125 305 c 0,42,43
EndSplineSet
EndChar

StartChar: R
Encoding: 82 82 53
Width: 525
GlyphClass: 2
Flags: W
TeX: 610 0
AnchorPoint: "Anchor-5" 218 622 basechar 0
AnchorPoint: "Anchor-4" 218 0 basechar 0
LayerCount: 2
Fore
SplineSet
22 30 m 0,0,1
 22 44 22 44 29.5 51.5 c 128,-1,2
 37 59 37 59 43.5 60 c 128,-1,3
 50 61 50 61 62 61 c 2,4,-1
 87 61 l 1,5,-1
 87 550 l 1,6,-1
 62 550 l 2,7,8
 22 550 22 550 22 580 c 0,9,10
 22 594 22 594 29.5 601.5 c 128,-1,11
 37 609 37 609 43.5 610 c 128,-1,12
 50 611 50 611 62 611 c 2,13,-1
 239 611 l 2,14,15
 324 611 324 611 378.5 560.5 c 128,-1,16
 433 510 433 510 433 443 c 0,17,18
 433 406 433 406 413 367.5 c 128,-1,19
 393 329 393 329 348 304 c 1,20,21
 383 276 383 276 397 243 c 0,22,23
 406 220 406 220 406 149 c 0,24,25
 406 123 406 123 406.5 110 c 128,-1,26
 407 97 407 97 409.5 80.5 c 128,-1,27
 412 64 412 64 418 57 c 128,-1,28
 424 50 424 50 434 50 c 0,29,30
 453 50 453 50 453 95 c 0,31,32
 454 125 454 125 487 125 c 0,33,34
 522 125 522 125 522 93 c 0,35,36
 522 57 522 57 499.5 23 c 128,-1,37
 477 -11 477 -11 435 -11 c 0,38,39
 382 -11 382 -11 356 35 c 0,40,41
 343 57 343 57 340 81.5 c 128,-1,42
 337 106 337 106 337 162 c 0,43,44
 337 188 337 188 336 199.5 c 128,-1,45
 335 211 335 211 330.5 224 c 128,-1,46
 326 237 326 237 315 247 c 0,47,48
 283 275 283 275 234 275 c 2,49,-1
 156 275 l 1,50,-1
 156 61 l 1,51,-1
 181 61 l 2,52,53
 193 61 193 61 199.5 60 c 128,-1,54
 206 59 206 59 213.5 51.5 c 128,-1,55
 221 44 221 44 221 30 c 0,56,57
 221 0 221 0 181 0 c 2,58,-1
 62 0 l 2,59,60
 22 0 22 0 22 30 c 0,0,1
156 336 m 1,61,-1
 228 336 l 2,62,63
 292 336 292 336 328 369 c 128,-1,64
 364 402 364 402 364 443 c 128,-1,65
 364 484 364 484 328 517 c 128,-1,66
 292 550 292 550 228 550 c 2,67,-1
 156 550 l 1,68,-1
 156 336 l 1,61,-1
EndSplineSet
EndChar

StartChar: S
Encoding: 83 83 54
Width: 525
GlyphClass: 2
Flags: W
TeX: 610 0
AnchorPoint: "Anchor-5" 237 622 basechar 0
AnchorPoint: "Anchor-4" 284 0 basechar 0
LayerCount: 2
Fore
SplineSet
52 30 m 2,0,-1
 52 162 l 2,1,2
 52 175 52 175 53 182 c 128,-1,3
 54 189 54 189 62.5 196 c 128,-1,4
 71 203 71 203 87 203 c 0,5,6
 102 203 102 203 110 197 c 128,-1,7
 118 191 118 191 119 185 c 128,-1,8
 120 179 120 179 121 168 c 0,9,10
 124 109 124 109 168 81 c 0,11,12
 214 50 214 50 285 50 c 0,13,14
 341 50 341 50 374 84 c 128,-1,15
 407 118 407 118 407 161 c 0,16,17
 407 250 407 250 296 274 c 0,18,19
 247 284 247 284 181 301 c 0,20,21
 121 318 121 318 86.5 362 c 128,-1,22
 52 406 52 406 52 458 c 0,23,24
 52 524 52 524 104.5 573 c 128,-1,25
 157 622 157 622 238 622 c 0,26,27
 323 622 323 622 378 575 c 1,28,29
 383 593 383 593 386 601 c 128,-1,30
 389 609 389 609 396.5 615.5 c 128,-1,31
 404 622 404 622 415 622 c 0,32,33
 445 622 445 622 445 581 c 2,34,-1
 445 449 l 2,35,36
 445 436 445 436 444 429 c 128,-1,37
 443 422 443 422 434.5 415 c 128,-1,38
 426 408 426 408 410 408 c 0,39,40
 380 408 380 408 376 436 c 0,41,42
 373 453 373 453 370.5 462 c 128,-1,43
 368 471 368 471 358 492.5 c 128,-1,44
 348 514 348 514 335 526.5 c 128,-1,45
 322 539 322 539 296 550 c 128,-1,46
 270 561 270 561 237 561 c 0,47,48
 185 561 185 561 151 531.5 c 128,-1,49
 117 502 117 502 117 462 c 0,50,51
 117 428 117 428 140 403 c 128,-1,52
 163 378 163 378 197 368 c 2,53,-1
 278 350 l 2,54,55
 342 335 342 335 368.5 324 c 128,-1,56
 395 313 395 313 424 285 c 0,57,58
 472 233 472 233 472 166 c 0,59,60
 472 96 472 96 419.5 42.5 c 128,-1,61
 367 -11 367 -11 284 -11 c 0,62,63
 180 -11 180 -11 119 35 c 1,64,65
 112 9 112 9 104.5 -1 c 128,-1,66
 97 -11 97 -11 82 -11 c 0,67,68
 52 -11 52 -11 52 30 c 2,0,-1
EndSplineSet
EndChar

StartChar: T
Encoding: 84 84 55
Width: 525
GlyphClass: 2
Flags: W
TeX: 610 0
AnchorPoint: "Anchor-5" 262 622 basechar 0
AnchorPoint: "Anchor-4" 262 0 basechar 0
LayerCount: 2
Fore
SplineSet
26 497 m 2,0,-1
 26 570 l 2,1,2
 26 595 26 595 34 603 c 128,-1,3
 42 611 42 611 67 611 c 2,4,-1
 458 611 l 2,5,6
 483 611 483 611 490.5 602.5 c 128,-1,7
 498 594 498 594 498 570 c 2,8,-1
 498 497 l 2,9,10
 498 484 498 484 497 477 c 128,-1,11
 496 470 496 470 487.5 463 c 128,-1,12
 479 456 479 456 463 456 c 0,13,14
 440 456 440 456 434.5 466.5 c 128,-1,15
 429 477 429 477 429 497 c 2,16,-1
 429 550 l 1,17,-1
 297 550 l 1,18,-1
 297 61 l 1,19,-1
 349 61 l 2,20,21
 361 61 361 61 367.5 60 c 128,-1,22
 374 59 374 59 381.5 51.5 c 128,-1,23
 389 44 389 44 389 30 c 0,24,25
 389 0 389 0 349 0 c 2,26,-1
 176 0 l 2,27,28
 164 0 164 0 157.5 1 c 128,-1,29
 151 2 151 2 143.5 9.5 c 128,-1,30
 136 17 136 17 136 31 c 0,31,32
 136 61 136 61 176 61 c 2,33,-1
 228 61 l 1,34,-1
 228 550 l 1,35,-1
 95 550 l 1,36,-1
 95 497 l 2,37,38
 95 484 95 484 94 477 c 128,-1,39
 93 470 93 470 84.5 463 c 128,-1,40
 76 456 76 456 60 456 c 0,41,42
 37 456 37 456 31.5 466.5 c 128,-1,43
 26 477 26 477 26 497 c 2,0,-1
EndSplineSet
EndChar

StartChar: U
Encoding: 85 85 56
Width: 525
GlyphClass: 2
Flags: W
TeX: 610 0
AnchorPoint: "Anchor-5" 262 622 basechar 0
AnchorPoint: "Anchor-4" 262 0 basechar 0
AnchorPoint: "Anchor-1" 262 0 basechar 0
LayerCount: 2
Fore
SplineSet
4 581 m 0,0,1
 4 611 4 611 45 611 c 2,2,-1
 174 611 l 2,3,4
 215 611 215 611 215 581 c 0,5,6
 215 550 215 550 174 550 c 2,7,-1
 144 550 l 1,8,-1
 144 209 l 2,9,10
 144 134 144 134 180.5 92 c 128,-1,11
 217 50 217 50 262 50 c 0,12,13
 306 50 306 50 343 92.5 c 128,-1,14
 380 135 380 135 380 209 c 2,15,-1
 380 550 l 1,16,-1
 350 550 l 2,17,18
 309 550 309 550 309 581 c 0,19,20
 309 611 309 611 350 611 c 2,21,-1
 479 611 l 2,22,23
 520 611 520 611 520 581 c 0,24,25
 520 550 520 550 479 550 c 2,26,-1
 449 550 l 1,27,-1
 449 204 l 2,28,29
 449 113 449 113 393.5 51 c 128,-1,30
 338 -11 338 -11 262 -11 c 128,-1,31
 186 -11 186 -11 130.5 51 c 128,-1,32
 75 113 75 113 75 204 c 2,33,-1
 75 550 l 1,34,-1
 45 550 l 2,35,36
 4 550 4 550 4 581 c 0,0,1
EndSplineSet
EndChar

StartChar: V
Encoding: 86 86 57
Width: 525
GlyphClass: 2
Flags: W
TeX: 610 0
AnchorPoint: "Anchor-5" 262 622 basechar 0
AnchorPoint: "Anchor-4" 262 0 basechar 0
LayerCount: 2
Fore
SplineSet
18 581 m 0,0,1
 18 611 18 611 59 611 c 2,2,-1
 161 611 l 2,3,4
 202 611 202 611 202 581 c 0,5,6
 202 566 202 566 194 559 c 128,-1,7
 186 552 186 552 177 551 c 128,-1,8
 168 550 168 550 146 550 c 1,9,-1
 243 161 l 2,10,11
 256 108 256 108 261 72 c 1,12,-1
 262 72 l 1,13,14
 268 111 268 111 301 244 c 2,15,-1
 378 550 l 1,16,17
 356 550 356 550 347 551 c 128,-1,18
 338 552 338 552 330 559 c 128,-1,19
 322 566 322 566 322 581 c 0,20,21
 322 611 322 611 363 611 c 2,22,-1
 465 611 l 2,23,24
 506 611 506 611 506 581 c 0,25,26
 506 566 506 566 498 559 c 128,-1,27
 490 552 490 552 480.5 551 c 128,-1,28
 471 550 471 550 449 550 c 1,29,-1
 317 29 l 2,30,31
 313 11 313 11 304 3 c 128,-1,32
 295 -5 295 -5 287 -6.5 c 128,-1,33
 279 -8 279 -8 262 -8 c 0,34,35
 244 -8 244 -8 236 -6.5 c 128,-1,36
 228 -5 228 -5 220 3.5 c 128,-1,37
 212 12 212 12 207 30 c 2,38,-1
 75 550 l 1,39,40
 53 550 53 550 43.5 551 c 128,-1,41
 34 552 34 552 26 559 c 128,-1,42
 18 566 18 566 18 581 c 0,0,1
EndSplineSet
EndChar

StartChar: W
Encoding: 87 87 58
Width: 525
GlyphClass: 2
Flags: W
TeX: 610 0
AnchorPoint: "Anchor-5" 262 622 basechar 0
AnchorPoint: "Anchor-4" 262 0 basechar 0
LayerCount: 2
Fore
SplineSet
11 580 m 0,0,1
 11 611 11 611 52 611 c 2,2,-1
 131 611 l 2,3,4
 143 611 143 611 149.5 610 c 128,-1,5
 156 609 156 609 163.5 601.5 c 128,-1,6
 171 594 171 594 171 580 c 0,7,8
 171 550 171 550 131 550 c 2,9,-1
 106 550 l 1,10,-1
 158 154 l 2,11,12
 166 92 166 92 166 76 c 1,13,-1
 167 76 l 1,14,15
 169 104 169 104 182.5 169.5 c 128,-1,16
 196 235 196 235 208 288 c 128,-1,17
 220 341 220 341 222 345 c 0,18,19
 232 367 232 367 262 367 c 0,20,21
 294 367 294 367 303 344 c 0,22,23
 303 343 303 343 311 308.5 c 128,-1,24
 319 274 319 274 328 232 c 128,-1,25
 337 190 337 190 346 144 c 128,-1,26
 355 98 355 98 357 76 c 1,27,-1
 358 76 l 1,28,29
 359 102 359 102 374 217 c 2,30,-1
 418 550 l 1,31,-1
 393 550 l 2,32,33
 353 550 353 550 353 580 c 0,34,35
 353 594 353 594 360.5 601.5 c 128,-1,36
 368 609 368 609 374.5 610 c 128,-1,37
 381 611 381 611 393 611 c 2,38,-1
 472 611 l 2,39,40
 513 611 513 611 513 580 c 0,41,42
 513 550 513 550 475 550 c 1,43,-1
 403 27 l 2,44,45
 398 -8 398 -8 362 -8 c 0,46,47
 329 -8 329 -8 322 17 c 0,48,49
 321 19 321 19 307.5 77.5 c 128,-1,50
 294 136 294 136 279.5 204.5 c 128,-1,51
 265 273 265 273 263 293 c 1,52,-1
 262 293 l 1,53,54
 259 267 259 267 231.5 143 c 128,-1,55
 204 19 204 19 201 12 c 0,56,57
 191 -8 191 -8 162 -8 c 0,58,59
 126 -8 126 -8 121 27 c 2,60,-1
 49 550 l 1,61,-1
 48 550 l 2,62,63
 11 550 11 550 11 580 c 0,0,1
EndSplineSet
EndChar

StartChar: X
Encoding: 88 88 59
Width: 525
GlyphClass: 2
Flags: W
TeX: 610 0
AnchorPoint: "Anchor-5" 262 622 basechar 0
AnchorPoint: "Anchor-4" 262 0 basechar 0
LayerCount: 2
Fore
SplineSet
27 30 m 0,0,1
 27 44 27 44 34.5 51.5 c 128,-1,2
 42 59 42 59 48.5 60 c 128,-1,3
 55 61 55 61 67 61 c 2,4,-1
 89 61 l 1,5,-1
 222 325 l 1,6,-1
 102 550 l 1,7,-1
 79 550 l 2,8,9
 38 550 38 550 38 581 c 0,10,11
 38 611 38 611 79 611 c 2,12,-1
 183 611 l 2,13,14
 223 611 223 611 223 581 c 0,15,16
 223 567 223 567 215.5 559.5 c 128,-1,17
 208 552 208 552 201 551 c 128,-1,18
 194 550 194 550 180 550 c 1,19,-1
 257 404 l 1,20,-1
 328 550 l 1,21,22
 313 550 313 550 305 551 c 128,-1,23
 297 552 297 552 289.5 559.5 c 128,-1,24
 282 567 282 567 282 581 c 0,25,26
 282 611 282 611 322 611 c 2,27,-1
 426 611 l 2,28,29
 467 611 467 611 467 580 c 0,30,31
 467 550 467 550 426 550 c 2,32,-1
 404 550 l 1,33,-1
 291 326 l 1,34,-1
 432 61 l 1,35,-1
 455 61 l 2,36,37
 496 61 496 61 496 30 c 0,38,39
 496 0 496 0 455 0 c 2,40,-1
 351 0 l 2,41,42
 311 0 311 0 311 30 c 0,43,44
 311 44 311 44 318.5 51.5 c 128,-1,45
 326 59 326 59 333.5 60 c 128,-1,46
 341 61 341 61 356 61 c 1,47,-1
 257 255 l 1,48,-1
 165 61 l 1,49,50
 180 61 180 61 188 60 c 128,-1,51
 196 59 196 59 204 51.5 c 128,-1,52
 212 44 212 44 212 30 c 0,53,54
 212 0 212 0 171 0 c 2,55,-1
 67 0 l 2,56,57
 27 0 27 0 27 30 c 0,0,1
EndSplineSet
EndChar

StartChar: Y
Encoding: 89 89 60
Width: 525
GlyphClass: 2
Flags: W
TeX: 610 0
AnchorPoint: "Anchor-5" 262 622 basechar 0
AnchorPoint: "Anchor-4" 262 0 basechar 0
LayerCount: 2
Fore
SplineSet
19 581 m 0,0,1
 19 611 19 611 59 611 c 2,2,-1
 163 611 l 2,3,4
 203 611 203 611 203 581 c 0,5,6
 203 566 203 566 195.5 559 c 128,-1,7
 188 552 188 552 180.5 551 c 128,-1,8
 173 550 173 550 157 550 c 1,9,10
 252 351 252 351 262 314 c 1,11,-1
 367 550 l 1,12,13
 351 550 351 550 343.5 551 c 128,-1,14
 336 552 336 552 328.5 559 c 128,-1,15
 321 566 321 566 321 581 c 0,16,17
 321 611 321 611 361 611 c 2,18,-1
 465 611 l 2,19,20
 477 611 477 611 483.5 610 c 128,-1,21
 490 609 490 609 497.5 601.5 c 128,-1,22
 505 594 505 594 505 580 c 0,23,24
 505 550 505 550 465 550 c 2,25,-1
 444 550 l 1,26,-1
 297 244 l 1,27,-1
 297 61 l 1,28,-1
 322 61 l 2,29,30
 334 61 334 61 340.5 60 c 128,-1,31
 347 59 347 59 354.5 51.5 c 128,-1,32
 362 44 362 44 362 30 c 0,33,34
 362 0 362 0 322 0 c 2,35,-1
 203 0 l 2,36,37
 191 0 191 0 184.5 1 c 128,-1,38
 178 2 178 2 170.5 9.5 c 128,-1,39
 163 17 163 17 163 31 c 0,40,41
 163 61 163 61 203 61 c 2,42,-1
 228 61 l 1,43,-1
 228 244 l 1,44,-1
 80 550 l 1,45,-1
 59 550 l 2,46,47
 47 550 47 550 40.5 551 c 128,-1,48
 34 552 34 552 26.5 559.5 c 128,-1,49
 19 567 19 567 19 581 c 0,0,1
EndSplineSet
EndChar

StartChar: Z
Encoding: 90 90 61
Width: 525
GlyphClass: 2
Flags: W
TeX: 610 0
AnchorPoint: "Anchor-5" 264 622 basechar 0
AnchorPoint: "Anchor-4" 264 0 basechar 0
LayerCount: 2
Fore
SplineSet
48 34 m 128,-1,1
 48 50 48 50 58 65 c 2,2,-1
 387 550 l 1,3,-1
 129 550 l 1,4,-1
 129 497 l 2,5,6
 129 484 129 484 128 477 c 128,-1,7
 127 470 127 470 118.5 463 c 128,-1,8
 110 456 110 456 94 456 c 0,9,10
 71 456 71 456 65.5 466.5 c 128,-1,11
 60 477 60 477 60 497 c 2,12,-1
 60 570 l 2,13,14
 60 595 60 595 68 603 c 128,-1,15
 76 611 76 611 101 611 c 2,16,-1
 435 611 l 2,17,18
 448 611 448 611 455 610 c 128,-1,19
 462 609 462 609 469 601 c 128,-1,20
 476 593 476 593 476 577 c 128,-1,21
 476 561 476 561 466 546 c 2,22,-1
 137 61 l 1,23,-1
 412 61 l 1,24,-1
 412 133 l 2,25,26
 412 146 412 146 413 153 c 128,-1,27
 414 160 414 160 422.5 167 c 128,-1,28
 431 174 431 174 447 174 c 0,29,30
 470 174 470 174 475.5 163.5 c 128,-1,31
 481 153 481 153 481 133 c 2,32,-1
 481 41 l 2,33,34
 481 17 481 17 473 8.5 c 128,-1,35
 465 0 465 0 441 0 c 2,36,-1
 89 0 l 2,37,38
 76 0 76 0 69 1 c 128,-1,39
 62 2 62 2 55 10 c 128,-1,0
 48 18 48 18 48 34 c 128,-1,1
EndSplineSet
EndChar

StartChar: bracketleft
Encoding: 91 91 62
Width: 525
GlyphClass: 2
Flags: W
TeX: 694 83
LayerCount: 2
Fore
SplineSet
222 -49 m 2,0,-1
 222 660 l 2,1,2
 222 694 222 694 259 694 c 2,3,-1
 446 694 l 2,4,5
 483 694 483 694 483 663 c 128,-1,6
 483 632 483 632 450 632 c 2,7,-1
 292 632 l 1,8,-1
 292 -22 l 1,9,-1
 450 -22 l 2,10,11
 483 -22 483 -22 483 -53 c 0,12,13
 483 -83 483 -83 448 -83 c 2,14,-1
 257 -83 l 2,15,16
 220 -83 220 -83 222 -49 c 2,0,-1
EndSplineSet
EndChar

StartChar: backslash
Encoding: 92 92 63
Width: 525
GlyphClass: 2
Flags: W
TeX: 694 83
LayerCount: 2
Fore
SplineSet
58 663 m 0,0,1
 58 676 58 676 68 685 c 128,-1,2
 78 694 78 694 89 694 c 0,3,4
 93 694 93 694 96.5 693 c 128,-1,5
 100 692 100 692 102.5 691 c 128,-1,6
 105 690 105 690 107.5 687.5 c 128,-1,7
 110 685 110 685 111.5 683.5 c 128,-1,8
 113 682 113 682 115 678 c 128,-1,9
 117 674 117 674 118 673 c 128,-1,10
 119 672 119 672 121 668 c 128,-1,11
 123 664 123 664 123 663 c 2,12,-1
 456 -24 l 2,13,14
 465 -42 465 -42 465 -53 c 0,15,16
 465 -66 465 -66 456 -74.5 c 128,-1,17
 447 -83 447 -83 435 -83 c 0,18,19
 414 -83 414 -83 399 -50 c 2,20,-1
 67 638 l 2,21,22
 58 659 58 659 58 663 c 0,0,1
EndSplineSet
EndChar

StartChar: bracketright
Encoding: 93 93 64
Width: 525
GlyphClass: 2
Flags: W
TeX: 694 83
LayerCount: 2
Fore
SplineSet
40 -53 m 0,0,1
 40 -41 40 -41 48 -31.5 c 128,-1,2
 56 -22 56 -22 74 -22 c 2,3,-1
 232 -22 l 1,4,-1
 232 633 l 1,5,-1
 75 633 l 1,6,-1
 74 632 l 1,7,8
 56 632 56 632 48 641.5 c 128,-1,9
 40 651 40 651 40 663 c 0,10,11
 40 694 40 694 76 694 c 2,12,-1
 266 694 l 2,13,14
 304 694 304 694 302 660 c 2,15,-1
 302 -49 l 2,16,17
 302 -83 302 -83 265 -83 c 2,18,-1
 78 -83 l 2,19,20
 40 -83 40 -83 40 -53 c 0,0,1
EndSplineSet
EndChar

StartChar: asciicircum
Encoding: 94 94 65
Width: 525
GlyphClass: 2
Flags: W
TeX: 610 0
LayerCount: 2
Fore
SplineSet
76 462 m 0,0,1
 76 482 76 482 104 493 c 0,2,3
 123 502 123 502 142 511 c 128,-1,4
 161 520 161 520 173.5 526 c 128,-1,5
 186 532 186 532 198 538 c 128,-1,6
 210 544 210 544 217.5 547.5 c 128,-1,7
 225 551 225 551 232.5 554.5 c 128,-1,8
 240 558 240 558 244 559.5 c 128,-1,9
 248 561 248 561 251.5 562.5 c 128,-1,10
 255 564 255 564 257.5 564.5 c 128,-1,11
 260 565 260 565 262 565 c 2,12,-1
 263 565 l 2,13,14
 269 565 269 565 420 493 c 0,15,16
 448 480 448 480 448 462 c 0,17,18
 448 450 448 450 438 436 c 128,-1,19
 428 422 428 422 414 422 c 2,20,-1
 413 422 l 2,21,22
 406 422 406 422 350 451 c 0,23,24
 308 473 308 473 276 489 c 0,25,26
 274 490 274 490 271.5 491 c 128,-1,27
 269 492 269 492 267.5 493 c 128,-1,28
 266 494 266 494 264 494 c 128,-1,29
 262 494 262 494 259 493 c 128,-1,30
 256 492 256 492 250.5 490 c 128,-1,31
 245 488 245 488 239.5 485 c 128,-1,32
 234 482 234 482 223 476.5 c 128,-1,33
 212 471 212 471 201 465 c 128,-1,34
 190 459 190 459 171.5 449.5 c 128,-1,35
 153 440 153 440 134 430 c 0,36,37
 120 422 120 422 110 422 c 0,38,39
 96 422 96 422 86 436 c 128,-1,40
 76 450 76 450 76 462 c 0,0,1
EndSplineSet
EndChar

StartChar: underscore
Encoding: 95 95 66
Width: 525
GlyphClass: 2
Flags: W
TeX: 0 95
LayerCount: 2
Fore
SplineSet
56 -60 m 0,0,1
 56 -53 56 -53 58 -46.5 c 128,-1,2
 60 -40 60 -40 70.5 -32.5 c 128,-1,3
 81 -25 81 -25 98 -25 c 2,4,-1
 427 -25 l 2,5,6
 450 -25 450 -25 459 -37 c 128,-1,7
 468 -49 468 -49 468 -61 c 0,8,9
 468 -74 468 -74 458.5 -84.5 c 128,-1,10
 449 -95 449 -95 425 -95 c 2,11,-1
 97 -95 l 2,12,13
 56 -94 56 -94 56 -60 c 0,0,1
EndSplineSet
EndChar

StartChar: grave
Encoding: 96 96 67
Width: 525
GlyphClass: 2
Flags: W
TeX: 610 0
LayerCount: 2
Fore
SplineSet
108 604 m 0,0,1
 108 619 108 619 118.5 629 c 128,-1,2
 129 639 129 639 142 639 c 2,3,-1
 144 639 l 2,4,5
 150 639 150 639 293 577 c 0,6,7
 321 564 321 564 321 546 c 0,8,9
 321 533 321 533 311.5 519.5 c 128,-1,10
 302 506 302 506 288 506 c 2,11,-1
 287 506 l 2,12,13
 282 506 282 506 139 568 c 0,14,15
 129 573 129 573 125 575.5 c 128,-1,16
 121 578 121 578 114.5 586 c 128,-1,17
 108 594 108 594 108 604 c 0,0,1
EndSplineSet
EndChar

StartChar: a
Encoding: 97 97 68
Width: 525
GlyphClass: 2
Flags: W
TeX: 430 0
AnchorPoint: "Anchor-5" 226 440 basechar 0
AnchorPoint: "Anchor-4" 226 0 basechar 0
AnchorPoint: "Anchor-3" 525 611 basechar 0
AnchorPoint: "Anchor-2" 525 -222 basechar 0
AnchorPoint: "Anchor-1" 390 0 basechar 0
LayerCount: 2
Fore
SplineSet
55 128 m 0,0,1
 55 198 55 198 136.5 236.5 c 128,-1,2
 218 275 218 275 355 277 c 1,3,4
 355 328 355 328 321 353.5 c 128,-1,5
 287 379 287 379 227 379 c 0,6,7
 205 379 205 379 191 378 c 0,8,9
 176 377 176 377 173 375 c 128,-1,10
 170 373 170 373 170 367 c 0,11,12
 169 342 169 342 155 331.5 c 128,-1,13
 141 321 141 321 126 321 c 0,14,15
 107 321 107 321 94 333 c 128,-1,16
 81 345 81 345 81 367 c 0,17,18
 81 440 81 440 226 440 c 0,19,20
 325 440 325 440 374.5 393 c 128,-1,21
 424 346 424 346 424 285 c 2,22,-1
 424 69 l 1,23,24
 445 61 445 61 484 61 c 0,25,26
 524 61 524 61 524 31 c 0,27,28
 524 16 524 16 516.5 9 c 128,-1,29
 509 2 509 2 500.5 1 c 128,-1,30
 492 0 492 0 474 0 c 0,31,32
 389 0 389 0 366 32 c 1,33,34
 308 -6 308 -6 220 -6 c 0,35,36
 146 -6 146 -6 100.5 34 c 128,-1,37
 55 74 55 74 55 128 c 0,0,1
124 128 m 0,38,39
 124 98 124 98 153 76.5 c 128,-1,40
 182 55 182 55 227 55 c 0,41,42
 280 55 280 55 316 72 c 0,43,44
 334 80 334 80 343 91.5 c 128,-1,45
 352 103 352 103 353.5 111 c 128,-1,46
 355 119 355 119 355 134 c 2,47,-1
 355 218 l 1,48,49
 248 215 248 215 186 190 c 128,-1,50
 124 165 124 165 124 128 c 0,38,39
EndSplineSet
EndChar

StartChar: b
Encoding: 98 98 69
Width: 525
GlyphClass: 2
Flags: W
TeX: 610 0
AnchorPoint: "Anchor-5" 292 611 basechar 0
AnchorPoint: "Anchor-4" 292 0 basechar 0
AnchorPoint: "Anchor-3" 525 611 basechar 0
AnchorPoint: "Anchor-2" 525 -222 basechar 0
LayerCount: 2
Fore
SplineSet
12 580 m 0,0,1
 12 611 12 611 53 611 c 2,2,-1
 126 611 l 2,3,4
 151 611 151 611 158.5 602.5 c 128,-1,5
 166 594 166 594 166 570 c 2,6,-1
 166 388 l 1,7,8
 220 437 220 437 293 437 c 0,9,10
 373 437 373 437 430.5 372.5 c 128,-1,11
 488 308 488 308 488 216 c 0,12,13
 488 122 488 122 426.5 58 c 128,-1,14
 365 -6 365 -6 282 -6 c 0,15,16
 216 -6 216 -6 166 45 c 1,17,18
 166 29 166 29 165 21.5 c 128,-1,19
 164 14 164 14 156 7 c 128,-1,20
 148 0 148 0 132 0 c 128,-1,21
 116 0 116 0 107.5 7 c 128,-1,22
 99 14 99 14 98 21 c 128,-1,23
 97 28 97 28 97 41 c 2,24,-1
 97 550 l 1,25,-1
 52 550 l 2,26,27
 12 550 12 550 12 580 c 0,0,1
166 191 m 2,28,29
 166 146 166 146 196 100.5 c 128,-1,30
 226 55 226 55 279 55 c 0,31,32
 334 55 334 55 376.5 101 c 128,-1,33
 419 147 419 147 419 216 c 0,34,35
 419 282 419 282 380.5 329 c 128,-1,36
 342 376 342 376 287 376 c 0,37,38
 240 376 240 376 203 342 c 128,-1,39
 166 308 166 308 166 264 c 2,40,-1
 166 191 l 2,28,29
EndSplineSet
EndChar

StartChar: c
Encoding: 99 99 70
Width: 525
GlyphClass: 2
Flags: W
TeX: 430 0
AnchorPoint: "Anchor-5" 305 440 basechar 0
AnchorPoint: "Anchor-4" 293 0 basechar 0
AnchorPoint: "Anchor-3" 525 611 basechar 0
AnchorPoint: "Anchor-2" 525 -222 basechar 0
LayerCount: 2
Fore
SplineSet
73 216 m 0,0,1
 73 252 73 252 85.5 288.5 c 128,-1,2
 98 325 98 325 124 360.5 c 128,-1,3
 150 396 150 396 197 418 c 128,-1,4
 244 440 244 440 305 440 c 0,5,6
 454 440 454 440 454 367 c 0,7,8
 454 346 454 346 441 333.5 c 128,-1,9
 428 321 428 321 409 321 c 0,10,11
 366 321 366 321 365 370 c 0,12,13
 365 379 365 379 305 379 c 0,14,15
 258 379 258 379 223.5 361 c 128,-1,16
 189 343 189 343 172.5 315 c 128,-1,17
 156 287 156 287 149 262.5 c 128,-1,18
 142 238 142 238 142 216 c 0,19,20
 142 148 142 148 188.5 101.5 c 128,-1,21
 235 55 235 55 299 55 c 0,22,23
 370 55 370 55 398 115 c 0,24,25
 403 129 403 129 410 133 c 128,-1,26
 417 137 417 137 431 137 c 0,27,28
 466 137 466 137 466 109 c 0,29,30
 466 100 466 100 458 83.5 c 128,-1,31
 450 67 450 67 432.5 45.5 c 128,-1,32
 415 24 415 24 378 9 c 128,-1,33
 341 -6 341 -6 293 -6 c 0,34,35
 200 -6 200 -6 136.5 59.5 c 128,-1,36
 73 125 73 125 73 216 c 0,0,1
EndSplineSet
EndChar

StartChar: d
Encoding: 100 100 71
Width: 525
GlyphClass: 2
Flags: W
TeX: 610 0
AnchorPoint: "Anchor-5" 232 611 basechar 0
AnchorPoint: "Anchor-4" 274 0 basechar 0
AnchorPoint: "Anchor-3" 525 611 basechar 0
AnchorPoint: "Anchor-2" 525 -222 basechar 0
LayerCount: 2
Fore
SplineSet
36 215 m 0,0,1
 36 309 36 309 97 373 c 128,-1,2
 158 437 158 437 241 437 c 0,3,4
 307 437 307 437 358 392 c 1,5,-1
 358 550 l 1,6,-1
 313 550 l 2,7,8
 273 550 273 550 273 580 c 0,9,10
 273 611 273 611 314 611 c 2,11,-1
 387 611 l 2,12,13
 412 611 412 611 419.5 602.5 c 128,-1,14
 427 594 427 594 427 570 c 2,15,-1
 427 61 l 1,16,-1
 472 61 l 2,17,18
 512 61 512 61 512 31 c 0,19,20
 512 0 512 0 471 0 c 2,21,-1
 398 0 l 2,22,23
 370 0 370 0 364 10 c 128,-1,24
 358 20 358 20 358 50 c 1,25,26
 304 -6 304 -6 232 -6 c 0,27,28
 152 -6 152 -6 94 58.5 c 128,-1,29
 36 123 36 123 36 215 c 0,0,1
105 215 m 0,30,31
 105 149 105 149 143.5 102 c 128,-1,32
 182 55 182 55 236 55 c 0,33,34
 289 55 289 55 323.5 100.5 c 128,-1,35
 358 146 358 146 358 194 c 2,36,-1
 358 265 l 2,37,38
 358 308 358 308 325 342 c 128,-1,39
 292 376 292 376 245 376 c 0,40,41
 190 376 190 376 147.5 330 c 128,-1,42
 105 284 105 284 105 215 c 0,30,31
EndSplineSet
EndChar

StartChar: e
Encoding: 101 101 72
Width: 525
GlyphClass: 2
Flags: W
TeX: 430 0
AnchorPoint: "Anchor-5" 270 440 basechar 0
AnchorPoint: "Anchor-4" 285 0 basechar 0
AnchorPoint: "Anchor-3" 525 611 basechar 0
AnchorPoint: "Anchor-2" 525 -222 basechar 0
AnchorPoint: "Anchor-1" 285 0 basechar 0
LayerCount: 2
Fore
SplineSet
55 217 m 128,-1,1
 55 309 55 309 118 374.5 c 128,-1,2
 181 440 181 440 270 440 c 0,3,4
 363 440 363 440 413.5 379.5 c 128,-1,5
 464 319 464 319 464 228 c 0,6,7
 464 215 464 215 461 207 c 128,-1,8
 458 199 458 199 451.5 195.5 c 128,-1,9
 445 192 445 192 439.5 191.5 c 128,-1,10
 434 191 434 191 424 191 c 2,11,-1
 126 191 l 1,12,13
 138 129 138 129 185.5 92 c 128,-1,14
 233 55 233 55 292 55 c 0,15,16
 370 55 370 55 396 115 c 0,17,18
 401 129 401 129 408 133 c 128,-1,19
 415 137 415 137 429 137 c 0,20,21
 464 137 464 137 464 109 c 0,22,23
 464 98 464 98 454 80.5 c 128,-1,24
 444 63 444 63 424.5 42.5 c 128,-1,25
 405 22 405 22 368 8 c 128,-1,26
 331 -6 331 -6 285 -6 c 0,27,28
 189 -6 189 -6 122 59.5 c 128,-1,0
 55 125 55 125 55 217 c 128,-1,1
127 251 m 1,29,-1
 393 251 l 1,30,31
 387 321 387 321 352 350 c 128,-1,32
 317 379 317 379 270 379 c 0,33,34
 218 379 218 379 178 342.5 c 128,-1,35
 138 306 138 306 127 251 c 1,29,-1
EndSplineSet
EndChar

StartChar: f
Encoding: 102 102 73
Width: 525
GlyphClass: 2
Flags: W
TeX: 610 0
AnchorPoint: "Anchor-5" 341 611 basechar 0
AnchorPoint: "Anchor-4" 218 0 basechar 0
AnchorPoint: "Anchor-3" 525 611 basechar 0
AnchorPoint: "Anchor-2" 525 -222 basechar 0
LayerCount: 2
Fore
SplineSet
42 31 m 0,0,1
 42 61 42 61 83 61 c 2,2,-1
 184 61 l 1,3,-1
 184 370 l 1,4,-1
 83 370 l 2,5,6
 43 370 43 370 43 400 c 0,7,8
 43 431 43 431 84 431 c 2,9,-1
 184 431 l 1,10,-1
 184 484 l 2,11,12
 184 546 184 546 230.5 581.5 c 128,-1,13
 277 617 277 617 341 617 c 0,14,15
 437 617 437 617 437 557 c 0,16,17
 437 537 437 537 423.5 525 c 128,-1,18
 410 513 410 513 394 513 c 128,-1,19
 378 513 378 513 367.5 523.5 c 128,-1,20
 357 534 357 534 353.5 543 c 128,-1,21
 350 552 350 552 350 556 c 1,22,23
 333 556 333 556 321.5 554.5 c 128,-1,24
 310 553 310 553 291.5 546.5 c 128,-1,25
 273 540 273 540 263 522.5 c 128,-1,26
 253 505 253 505 253 478 c 2,27,-1
 253 431 l 1,28,-1
 375 431 l 2,29,30
 387 431 387 431 393.5 430 c 128,-1,31
 400 429 400 429 407.5 421.5 c 128,-1,32
 415 414 415 414 415 400 c 0,33,34
 415 370 415 370 375 370 c 2,35,-1
 253 370 l 1,36,-1
 253 61 l 1,37,-1
 354 61 l 2,38,39
 395 61 395 61 395 30 c 0,40,41
 395 0 395 0 354 0 c 2,42,-1
 83 0 l 2,43,44
 42 0 42 0 42 31 c 0,0,1
EndSplineSet
EndChar

StartChar: g
Encoding: 103 103 74
Width: 525
GlyphClass: 2
Flags: W
TeX: 430 222
AnchorPoint: "Anchor-5" 232 440 basechar 0
AnchorPoint: "Anchor-4" 262 -222 basechar 0
AnchorPoint: "Anchor-3" 525 611 basechar 0
AnchorPoint: "Anchor-2" 525 -222 basechar 0
LayerCount: 2
Fore
SplineSet
29 -82 m 0,0,1
 29 -3 29 -3 103 42 c 1,2,3
 80 73 80 73 80 114 c 0,4,5
 80 153 80 153 100 182 c 1,6,7
 68 223 68 223 68 277 c 0,8,9
 68 342 68 342 116 389.5 c 128,-1,10
 164 437 164 437 233 437 c 0,11,12
 286 437 286 437 330 407 c 1,13,14
 377 442 377 442 436 442 c 0,15,16
 473 442 473 442 491 425.5 c 128,-1,17
 509 409 509 409 509 388 c 0,18,19
 509 368 509 368 496.5 357.5 c 128,-1,20
 484 347 484 347 469 347 c 0,21,22
 458 347 458 347 446 355 c 128,-1,23
 434 363 434 363 430 381 c 1,24,25
 397 378 397 378 372 364 c 1,26,27
 398 321 398 321 398 277 c 0,28,29
 398 210 398 210 350 163 c 128,-1,30
 302 116 302 116 233 116 c 0,31,32
 180 116 180 116 143 141 c 1,33,34
 137 126 137 126 137 113 c 0,35,36
 137 92 137 92 149 77 c 0,37,38
 161 63 161 63 182 63 c 0,39,40
 190 61 190 61 211 61 c 2,41,-1
 281 61 l 2,42,43
 372 61 372 61 426 32 c 0,44,45
 461 13 461 13 478 -18.5 c 128,-1,46
 495 -50 495 -50 495 -82 c 0,47,48
 495 -145 495 -145 427 -187 c 128,-1,49
 359 -229 359 -229 262 -229 c 128,-1,50
 165 -229 165 -229 97 -187.5 c 128,-1,51
 29 -146 29 -146 29 -82 c 0,0,1
87 -82 m 0,52,53
 87 -116 87 -116 138 -142.5 c 128,-1,54
 189 -169 189 -169 262 -169 c 128,-1,55
 335 -169 335 -169 386 -142.5 c 128,-1,56
 437 -116 437 -116 437 -82 c 0,57,58
 437 -52 437 -52 420 -33 c 128,-1,59
 403 -14 403 -14 367 -6.5 c 128,-1,60
 331 1 331 1 306 2.5 c 128,-1,61
 281 4 281 4 235 4 c 0,62,63
 178 4 178 4 162 2 c 128,-1,64
 146 0 146 0 128 -12 c 0,65,66
 87 -38 87 -38 87 -82 c 0,52,53
137 276 m 0,67,68
 137 236 137 236 165 206 c 128,-1,69
 193 176 193 176 233 176 c 0,70,71
 272 176 272 176 300.5 205.5 c 128,-1,72
 329 235 329 235 329 277 c 0,73,74
 329 317 329 317 301 347 c 128,-1,75
 273 377 273 377 233 377 c 0,76,77
 194 377 194 377 165.5 347.5 c 128,-1,78
 137 318 137 318 137 276 c 0,67,68
EndSplineSet
EndChar

StartChar: h
Encoding: 104 104 75
Width: 525
GlyphClass: 2
Flags: W
TeX: 610 0
AnchorPoint: "Anchor-5" 262 611 basechar 0
AnchorPoint: "Anchor-4" 262 0 basechar 0
AnchorPoint: "Anchor-3" 525 611 basechar 0
AnchorPoint: "Anchor-2" 525 -222 basechar 0
LayerCount: 2
Fore
SplineSet
12 30 m 0,0,1
 12 61 12 61 53 61 c 2,2,-1
 97 61 l 1,3,-1
 97 550 l 1,4,-1
 52 550 l 2,5,6
 12 550 12 550 12 580 c 0,7,8
 12 611 12 611 53 611 c 2,9,-1
 126 611 l 2,10,11
 151 611 151 611 158.5 602.5 c 128,-1,12
 166 594 166 594 166 570 c 2,13,-1
 166 384 l 1,14,15
 219 437 219 437 297 437 c 0,16,17
 427 437 427 437 427 293 c 2,18,-1
 427 61 l 1,19,-1
 471 61 l 2,20,21
 512 61 512 61 512 30 c 0,22,23
 512 0 512 0 472 0 c 2,24,-1
 319 0 l 2,25,26
 278 0 278 0 278 30 c 0,27,28
 278 61 278 61 319 61 c 2,29,-1
 358 61 l 1,30,-1
 358 288 l 2,31,32
 358 335 358 335 343.5 355.5 c 128,-1,33
 329 376 329 376 291 376 c 0,34,35
 245 376 245 376 205.5 341 c 128,-1,36
 166 306 166 306 166 238 c 2,37,-1
 166 61 l 1,38,-1
 210 61 l 2,39,40
 251 61 251 61 251 30 c 0,41,42
 251 0 251 0 211 0 c 2,43,-1
 52 0 l 2,44,45
 12 0 12 0 12 30 c 0,0,1
EndSplineSet
EndChar

StartChar: i
Encoding: 105 105 76
Width: 525
GlyphClass: 2
Flags: W
TeX: 610 0
AnchorPoint: "Anchor-5" 274 592 basechar 0
AnchorPoint: "Anchor-4" 274 0 basechar 0
AnchorPoint: "Anchor-3" 525 611 basechar 0
AnchorPoint: "Anchor-2" 525 -222 basechar 0
AnchorPoint: "Anchor-1" 266 0 basechar 0
LayerCount: 2
Fore
SplineSet
78 30 m 0,0,1
 78 61 78 61 119 61 c 2,2,-1
 240 61 l 1,3,-1
 240 370 l 1,4,-1
 127 370 l 2,5,6
 86 370 86 370 86 401 c 0,7,8
 86 431 86 431 127 431 c 2,9,-1
 269 431 l 2,10,11
 294 431 294 431 301.5 422.5 c 128,-1,12
 309 414 309 414 309 390 c 2,13,-1
 309 61 l 1,14,-1
 414 61 l 2,15,16
 455 61 455 61 455 30 c 0,17,18
 455 0 455 0 414 0 c 2,19,-1
 119 0 l 2,20,21
 78 0 78 0 78 30 c 0,0,1
209 562 m 128,-1,23
 209 583 209 583 223.5 597.5 c 128,-1,24
 238 612 238 612 259 612 c 128,-1,25
 280 612 280 612 294.5 597.5 c 128,-1,26
 309 583 309 583 309 562 c 128,-1,27
 309 541 309 541 294.5 526.5 c 128,-1,28
 280 512 280 512 259 512 c 128,-1,29
 238 512 238 512 223.5 526.5 c 128,-1,22
 209 541 209 541 209 562 c 128,-1,23
EndSplineSet
EndChar

StartChar: j
Encoding: 106 106 77
Width: 525
GlyphClass: 2
Flags: W
TeX: 610 222
AnchorPoint: "Anchor-4" 239 -222 basechar 0
AnchorPoint: "Anchor-3" 525 611 basechar 0
AnchorPoint: "Anchor-2" 525 -222 basechar 0
LayerCount: 2
Fore
SplineSet
48 -152 m 0,0,1
 48 -131 48 -131 61.5 -118.5 c 128,-1,2
 75 -106 75 -106 93 -106 c 0,3,4
 110 -106 110 -106 123.5 -118.5 c 128,-1,5
 137 -131 137 -131 137 -151 c 0,6,7
 137 -160 137 -160 136 -163 c 1,8,9
 166 -167 166 -167 192 -167 c 0,10,11
 246 -167 246 -167 273 -129 c 0,12,13
 299 -94 299 -94 299 -39 c 2,14,-1
 299 370 l 1,15,-1
 169 370 l 2,16,17
 129 370 129 370 129 400 c 0,18,19
 129 431 129 431 170 431 c 2,20,-1
 328 431 l 2,21,22
 353 431 353 431 360.5 422.5 c 128,-1,23
 368 414 368 414 368 390 c 2,24,-1
 368 -44 l 2,25,26
 368 -65 368 -65 363.5 -88 c 128,-1,27
 359 -111 359 -111 346 -136.5 c 128,-1,28
 333 -162 333 -162 313.5 -182 c 128,-1,29
 294 -202 294 -202 261 -215 c 128,-1,30
 228 -228 228 -228 187 -228 c 0,31,32
 48 -228 48 -228 48 -152 c 0,0,1
268 562 m 128,-1,34
 268 583 268 583 282.5 597.5 c 128,-1,35
 297 612 297 612 318 612 c 128,-1,36
 339 612 339 612 353.5 597.5 c 128,-1,37
 368 583 368 583 368 562 c 128,-1,38
 368 541 368 541 353.5 526.5 c 128,-1,39
 339 512 339 512 318 512 c 128,-1,40
 297 512 297 512 282.5 526.5 c 128,-1,33
 268 541 268 541 268 562 c 128,-1,34
EndSplineSet
EndChar

StartChar: k
Encoding: 107 107 78
Width: 525
GlyphClass: 2
Flags: W
TeX: 610 0
AnchorPoint: "Anchor-5" 264 611 basechar 0
AnchorPoint: "Anchor-4" 264 0 basechar 0
AnchorPoint: "Anchor-3" 525 611 basechar 0
AnchorPoint: "Anchor-2" 525 -222 basechar 0
LayerCount: 2
Fore
SplineSet
21 31 m 0,0,1
 21 61 21 61 61 61 c 2,2,-1
 110 61 l 1,3,-1
 110 550 l 1,4,-1
 61 550 l 2,5,6
 49 550 49 550 42.5 551 c 128,-1,7
 36 552 36 552 28.5 559.5 c 128,-1,8
 21 567 21 567 21 581 c 0,9,10
 21 611 21 611 61 611 c 2,11,-1
 126 611 l 2,12,13
 151 611 151 611 158.5 602.5 c 128,-1,14
 166 594 166 594 166 570 c 2,15,-1
 166 218 l 1,16,-1
 328 370 l 1,17,-1
 291 370 l 2,18,19
 251 370 251 370 251 400 c 0,20,21
 251 414 251 414 258.5 421.5 c 128,-1,22
 266 429 266 429 272.5 430 c 128,-1,23
 279 431 279 431 291 431 c 2,24,-1
 445 431 l 2,25,26
 486 431 486 431 486 400 c 0,27,28
 486 370 486 370 445 370 c 2,29,-1
 410 370 l 1,30,-1
 287 255 l 1,31,-1
 436 61 l 1,32,-1
 467 61 l 2,33,34
 508 61 508 61 508 30 c 0,35,36
 508 0 508 0 467 0 c 2,37,-1
 349 0 l 2,38,39
 309 0 309 0 309 30 c 0,40,41
 309 45 309 45 316.5 52 c 128,-1,42
 324 59 324 59 333.5 60 c 128,-1,43
 343 61 343 61 365 61 c 1,44,-1
 246 216 l 1,45,-1
 166 142 l 1,46,-1
 166 61 l 1,47,-1
 215 61 l 2,48,49
 227 61 227 61 233.5 60 c 128,-1,50
 240 59 240 59 247.5 51.5 c 128,-1,51
 255 44 255 44 255 30 c 0,52,53
 255 0 255 0 215 0 c 2,54,-1
 61 0 l 2,55,56
 49 0 49 0 42.5 1 c 128,-1,57
 36 2 36 2 28.5 9.5 c 128,-1,58
 21 17 21 17 21 31 c 0,0,1
EndSplineSet
EndChar

StartChar: l
Encoding: 108 108 79
Width: 525
GlyphClass: 2
Flags: W
TeX: 610 0
AnchorPoint: "Anchor-5" 262 611 basechar 0
AnchorPoint: "Anchor-4" 262 0 basechar 0
AnchorPoint: "Anchor-3" 525 611 basechar 0
AnchorPoint: "Anchor-2" 525 -222 basechar 0
LayerCount: 2
Fore
SplineSet
58 30 m 0,0,1
 58 61 58 61 99 61 c 2,2,-1
 228 61 l 1,3,-1
 228 550 l 1,4,-1
 98 550 l 2,5,6
 58 550 58 550 58 580 c 0,7,8
 58 611 58 611 99 611 c 2,9,-1
 257 611 l 2,10,11
 282 611 282 611 289.5 602.5 c 128,-1,12
 297 594 297 594 297 570 c 2,13,-1
 297 61 l 1,14,-1
 427 61 l 2,15,16
 439 61 439 61 445.5 60 c 128,-1,17
 452 59 452 59 459.5 51.5 c 128,-1,18
 467 44 467 44 467 30 c 0,19,20
 467 0 467 0 427 0 c 2,21,-1
 98 0 l 2,22,23
 58 0 58 0 58 30 c 0,0,1
EndSplineSet
EndChar

StartChar: m
Encoding: 109 109 80
Width: 525
GlyphClass: 2
Flags: W
TeX: 430 0
AnchorPoint: "Anchor-5" 262 440 basechar 0
AnchorPoint: "Anchor-4" 262 0 basechar 0
AnchorPoint: "Anchor-3" 525 611 basechar 0
AnchorPoint: "Anchor-2" 525 -222 basechar 0
LayerCount: 2
Fore
SplineSet
-4 30 m 0,0,1
 -4 45 -4 45 4 52 c 128,-1,2
 12 59 12 59 21.5 60 c 128,-1,3
 31 61 31 61 53 61 c 1,4,-1
 53 370 l 1,5,6
 31 370 31 370 21.5 371 c 128,-1,7
 12 372 12 372 4 379 c 128,-1,8
 -4 386 -4 386 -4 401 c 0,9,10
 -4 431 -4 431 37 431 c 2,11,-1
 69 431 l 2,12,13
 81 431 81 431 87.5 430 c 128,-1,14
 94 429 94 429 101 422 c 128,-1,15
 108 415 108 415 109 401 c 1,16,17
 148 437 148 437 201 437 c 128,-1,18
 254 437 254 437 277 385 c 1,19,20
 296 412 296 412 325.5 424.5 c 128,-1,21
 355 437 355 437 382 437 c 0,22,23
 413 437 413 437 433 420.5 c 128,-1,24
 453 404 453 404 460 376.5 c 128,-1,25
 467 349 467 349 469 334 c 128,-1,26
 471 319 471 319 471 303 c 2,27,-1
 471 61 l 1,28,29
 493 61 493 61 502.5 60 c 128,-1,30
 512 59 512 59 520 52 c 128,-1,31
 528 45 528 45 528 30 c 0,32,33
 528 0 528 0 487 0 c 2,34,-1
 407 0 l 2,35,36
 366 0 366 0 366 30 c 0,37,38
 366 44 366 44 374.5 51.5 c 128,-1,39
 383 59 383 59 391 60 c 128,-1,40
 399 61 399 61 415 61 c 1,41,-1
 415 294 l 2,42,43
 415 340 415 340 406 358 c 128,-1,44
 397 376 397 376 378 376 c 0,45,46
 344 376 344 376 317 339.5 c 128,-1,47
 290 303 290 303 290 240 c 2,48,-1
 290 61 l 1,49,50
 312 61 312 61 321.5 60 c 128,-1,51
 331 59 331 59 339 52 c 128,-1,52
 347 45 347 45 347 30 c 0,53,54
 347 0 347 0 306 0 c 2,55,-1
 226 0 l 2,56,57
 185 0 185 0 185 30 c 0,58,59
 185 44 185 44 193.5 51.5 c 128,-1,60
 202 59 202 59 210 60 c 128,-1,61
 218 61 218 61 234 61 c 1,62,-1
 234 294 l 2,63,64
 234 340 234 340 225 358 c 128,-1,65
 216 376 216 376 197 376 c 0,66,67
 163 376 163 376 136 339.5 c 128,-1,68
 109 303 109 303 109 240 c 2,69,-1
 109 61 l 1,70,71
 131 61 131 61 140.5 60 c 128,-1,72
 150 59 150 59 158 52 c 128,-1,73
 166 45 166 45 166 30 c 0,74,75
 166 0 166 0 125 0 c 2,76,-1
 37 0 l 2,77,78
 -4 0 -4 0 -4 30 c 0,0,1
EndSplineSet
EndChar

StartChar: n
Encoding: 110 110 81
Width: 525
GlyphClass: 2
Flags: W
TeX: 430 0
AnchorPoint: "Anchor-5" 262 440 basechar 0
AnchorPoint: "Anchor-4" 262 0 basechar 0
AnchorPoint: "Anchor-3" 525 611 basechar 0
AnchorPoint: "Anchor-2" 525 -222 basechar 0
LayerCount: 2
Fore
SplineSet
12 30 m 0,0,1
 12 61 12 61 53 61 c 2,2,-1
 97 61 l 1,3,-1
 97 370 l 1,4,-1
 52 370 l 2,5,6
 12 370 12 370 12 400 c 0,7,8
 12 431 12 431 53 431 c 2,9,-1
 126 431 l 2,10,11
 154 431 154 431 160 421.5 c 128,-1,12
 166 412 166 412 166 384 c 1,13,14
 219 437 219 437 297 437 c 0,15,16
 427 437 427 437 427 293 c 2,17,-1
 427 61 l 1,18,-1
 471 61 l 2,19,20
 512 61 512 61 512 30 c 0,21,22
 512 0 512 0 472 0 c 2,23,-1
 319 0 l 2,24,25
 278 0 278 0 278 30 c 0,26,27
 278 61 278 61 319 61 c 2,28,-1
 358 61 l 1,29,-1
 358 288 l 2,30,31
 358 335 358 335 343.5 355.5 c 128,-1,32
 329 376 329 376 291 376 c 0,33,34
 245 376 245 376 205.5 341 c 128,-1,35
 166 306 166 306 166 238 c 2,36,-1
 166 61 l 1,37,-1
 210 61 l 2,38,39
 251 61 251 61 251 30 c 0,40,41
 251 0 251 0 211 0 c 2,42,-1
 52 0 l 2,43,44
 12 0 12 0 12 30 c 0,0,1
EndSplineSet
EndChar

StartChar: o
Encoding: 111 111 82
Width: 525
GlyphClass: 2
Flags: W
TeX: 430 0
AnchorPoint: "Anchor-5" 262 440 basechar 0
AnchorPoint: "Anchor-4" 262 0 basechar 0
AnchorPoint: "Anchor-3" 525 611 basechar 0
AnchorPoint: "Anchor-2" 525 -222 basechar 0
AnchorPoint: "Anchor-1" 262 0 basechar 0
LayerCount: 2
Fore
SplineSet
57 216 m 0,0,1
 57 309 57 309 117.5 374.5 c 128,-1,2
 178 440 178 440 262 440 c 128,-1,3
 346 440 346 440 406.5 374.5 c 128,-1,4
 467 309 467 309 467 216 c 128,-1,5
 467 123 467 123 406.5 58.5 c 128,-1,6
 346 -6 346 -6 262 -6 c 128,-1,7
 178 -6 178 -6 117.5 58 c 128,-1,8
 57 122 57 122 57 216 c 0,0,1
126 223 m 0,9,10
 126 154 126 154 166 104.5 c 128,-1,11
 206 55 206 55 262 55 c 128,-1,12
 318 55 318 55 358 104.5 c 128,-1,13
 398 154 398 154 398 223 c 0,14,15
 398 290 398 290 357.5 334.5 c 128,-1,16
 317 379 317 379 262 379 c 128,-1,17
 207 379 207 379 166.5 334.5 c 128,-1,18
 126 290 126 290 126 223 c 0,9,10
EndSplineSet
EndChar

StartChar: p
Encoding: 112 112 83
Width: 525
GlyphClass: 2
Flags: W
TeX: 430 222
AnchorPoint: "Anchor-5" 292 440 basechar 0
AnchorPoint: "Anchor-4" 292 -222 basechar 0
AnchorPoint: "Anchor-3" 525 611 basechar 0
AnchorPoint: "Anchor-2" 525 -222 basechar 0
LayerCount: 2
Fore
SplineSet
12 -192 m 0,0,1
 12 -161 12 -161 53 -161 c 2,2,-1
 97 -161 l 1,3,-1
 97 370 l 1,4,-1
 52 370 l 2,5,6
 12 370 12 370 12 400 c 0,7,8
 12 431 12 431 53 431 c 2,9,-1
 126 431 l 2,10,11
 152 431 152 431 159 422 c 128,-1,12
 166 413 166 413 166 388 c 1,13,14
 220 437 220 437 293 437 c 0,15,16
 373 437 373 437 430.5 372.5 c 128,-1,17
 488 308 488 308 488 216 c 0,18,19
 488 122 488 122 426.5 58 c 128,-1,20
 365 -6 365 -6 282 -6 c 0,21,22
 216 -6 216 -6 166 45 c 1,23,-1
 166 -161 l 1,24,-1
 210 -161 l 2,25,26
 251 -161 251 -161 251 -192 c 0,27,28
 251 -222 251 -222 211 -222 c 2,29,-1
 52 -222 l 2,30,31
 12 -222 12 -222 12 -192 c 0,0,1
166 191 m 2,32,33
 166 146 166 146 196 100.5 c 128,-1,34
 226 55 226 55 279 55 c 0,35,36
 334 55 334 55 376.5 101 c 128,-1,37
 419 147 419 147 419 216 c 0,38,39
 419 282 419 282 380.5 329 c 128,-1,40
 342 376 342 376 287 376 c 0,41,42
 240 376 240 376 203 342 c 128,-1,43
 166 308 166 308 166 264 c 2,44,-1
 166 191 l 2,32,33
EndSplineSet
EndChar

StartChar: q
Encoding: 113 113 84
Width: 525
GlyphClass: 2
Flags: W
TeX: 430 222
AnchorPoint: "Anchor-5" 244 440 basechar 0
AnchorPoint: "Anchor-4" 244 -222 basechar 0
AnchorPoint: "Anchor-3" 525 611 basechar 0
AnchorPoint: "Anchor-2" 525 -222 basechar 0
LayerCount: 2
Fore
SplineSet
40 215 m 0,0,1
 40 308 40 308 104 372.5 c 128,-1,2
 168 437 168 437 254 437 c 0,3,4
 328 437 328 437 379 382 c 1,5,6
 379 400 379 400 379.5 407.5 c 128,-1,7
 380 415 380 415 383.5 423.5 c 128,-1,8
 387 432 387 432 394 434.5 c 128,-1,9
 401 437 401 437 414 437 c 0,10,11
 437 437 437 437 442.5 426.5 c 128,-1,12
 448 416 448 416 448 396 c 2,13,-1
 448 -161 l 1,14,-1
 497 -161 l 2,15,16
 509 -161 509 -161 515.5 -162 c 128,-1,17
 522 -163 522 -163 529.5 -170.5 c 128,-1,18
 537 -178 537 -178 537 -192 c 0,19,20
 537 -222 537 -222 497 -222 c 2,21,-1
 330 -222 l 2,22,23
 318 -222 318 -222 311.5 -221 c 128,-1,24
 305 -220 305 -220 297.5 -212.5 c 128,-1,25
 290 -205 290 -205 290 -191 c 0,26,27
 290 -161 290 -161 330 -161 c 2,28,-1
 379 -161 l 1,29,-1
 379 54 l 1,30,31
 324 -6 324 -6 244 -6 c 0,32,33
 161 -6 161 -6 100.5 58.5 c 128,-1,34
 40 123 40 123 40 215 c 0,0,1
109 215 m 0,35,36
 109 148 109 148 150.5 101.5 c 128,-1,37
 192 55 192 55 248 55 c 0,38,39
 305 55 305 55 342 100.5 c 128,-1,40
 379 146 379 146 379 194 c 2,41,-1
 379 233 l 2,42,43
 379 287 379 287 345.5 331.5 c 128,-1,44
 312 376 312 376 259 376 c 0,45,46
 198 376 198 376 153.5 329.5 c 128,-1,47
 109 283 109 283 109 215 c 0,35,36
EndSplineSet
EndChar

StartChar: r
Encoding: 114 114 85
Width: 525
GlyphClass: 2
Flags: W
TeX: 430 0
AnchorPoint: "Anchor-5" 248 440 basechar 0
AnchorPoint: "Anchor-4" 202 0 basechar 0
AnchorPoint: "Anchor-3" 525 611 basechar 0
AnchorPoint: "Anchor-2" 525 -222 basechar 0
LayerCount: 2
Fore
SplineSet
32 31 m 0,0,1
 32 61 32 61 72 61 c 2,2,-1
 153 61 l 1,3,-1
 153 370 l 1,4,-1
 72 370 l 2,5,6
 60 370 60 370 53.5 371 c 128,-1,7
 47 372 47 372 39.5 379.5 c 128,-1,8
 32 387 32 387 32 401 c 0,9,10
 32 431 32 431 72 431 c 2,11,-1
 182 431 l 2,12,13
 207 431 207 431 214.5 422.5 c 128,-1,14
 222 414 222 414 222 390 c 2,15,-1
 222 356 l 1,16,17
 293 437 293 437 392 437 c 0,18,19
 421 437 421 437 441.5 430.5 c 128,-1,20
 462 424 462 424 471 413.5 c 128,-1,21
 480 403 480 403 483.5 393.5 c 128,-1,22
 487 384 487 384 487 375 c 0,23,24
 487 356 487 356 474.5 344 c 128,-1,25
 462 332 462 332 445 332 c 0,26,27
 427 332 427 332 415 345 c 128,-1,28
 403 358 403 358 402 376 c 1,29,30
 317 376 317 376 269.5 319.5 c 128,-1,31
 222 263 222 263 222 186 c 2,32,-1
 222 61 l 1,33,-1
 333 61 l 2,34,35
 374 61 374 61 374 30 c 0,36,37
 374 0 374 0 333 0 c 2,38,-1
 72 0 l 2,39,40
 60 0 60 0 53.5 1 c 128,-1,41
 47 2 47 2 39.5 9.5 c 128,-1,42
 32 17 32 17 32 31 c 0,0,1
EndSplineSet
EndChar

StartChar: s
Encoding: 115 115 86
Width: 525
GlyphClass: 2
Flags: W
TeX: 430 0
AnchorPoint: "Anchor-5" 262 440 basechar 0
AnchorPoint: "Anchor-4" 269 0 basechar 0
AnchorPoint: "Anchor-3" 525 611 basechar 0
AnchorPoint: "Anchor-2" 525 -222 basechar 0
LayerCount: 2
Fore
SplineSet
72 35 m 2,0,-1
 72 132 l 2,1,2
 72 145 72 145 73 152 c 128,-1,3
 74 159 74 159 82.5 166 c 128,-1,4
 91 173 91 173 107 173 c 0,5,6
 125 173 125 173 131.5 166.5 c 128,-1,7
 138 160 138 160 142 144 c 0,8,9
 171 55 171 55 270 55 c 0,10,11
 334 55 334 55 366 75 c 128,-1,12
 398 95 398 95 398 125 c 0,13,14
 398 144 398 144 386 157.5 c 128,-1,15
 374 171 374 171 350.5 179.5 c 128,-1,16
 327 188 327 188 311.5 191.5 c 128,-1,17
 296 195 296 195 269 199 c 0,18,19
 233 205 233 205 212.5 208.5 c 128,-1,20
 192 212 192 212 161 221.5 c 128,-1,21
 130 231 130 231 113.5 243 c 128,-1,22
 97 255 97 255 84.5 275.5 c 128,-1,23
 72 296 72 296 72 322 c 0,24,25
 72 335 72 335 75.5 348.5 c 128,-1,26
 79 362 79 362 91 379 c 128,-1,27
 103 396 103 396 122.5 409 c 128,-1,28
 142 422 142 422 178 431 c 128,-1,29
 214 440 214 440 262 440 c 0,30,31
 325 440 325 440 369 419 c 1,32,33
 375 440 375 440 399 440 c 0,34,35
 429 440 429 440 429 399 c 2,36,-1
 429 330 l 2,37,38
 429 317 429 317 428 310 c 128,-1,39
 427 303 427 303 418.5 296 c 128,-1,40
 410 289 410 289 394 289 c 0,41,42
 380 289 380 289 372 294.5 c 128,-1,43
 364 300 364 300 362.5 306 c 128,-1,44
 361 312 361 312 360 323 c 0,45,46
 354 379 354 379 260 379 c 0,47,48
 195 379 195 379 164 362 c 128,-1,49
 133 345 133 345 133 322 c 0,50,51
 133 280 133 280 230 267 c 0,52,53
 237 266 237 266 298 255 c 0,54,55
 459 230 459 230 459 125 c 0,56,57
 459 109 459 109 454.5 93 c 128,-1,58
 450 77 450 77 437.5 58.5 c 128,-1,59
 425 40 425 40 404.5 26 c 128,-1,60
 384 12 384 12 349 3 c 128,-1,61
 314 -6 314 -6 269 -6 c 0,62,63
 191 -6 191 -6 139 32 c 1,64,65
 127 -6 127 -6 102 -6 c 0,66,67
 72 -6 72 -6 72 35 c 2,0,-1
EndSplineSet
EndChar

StartChar: t
Encoding: 116 116 87
Width: 525
GlyphClass: 2
Flags: W
TeX: 554 0
AnchorPoint: "Anchor-5" 188 554 basechar 0
AnchorPoint: "Anchor-4" 259 0 basechar 0
AnchorPoint: "Anchor-3" 525 611 basechar 0
AnchorPoint: "Anchor-2" 525 -222 basechar 0
LayerCount: 2
Fore
SplineSet
25 400 m 0,0,1
 25 431 25 431 66 431 c 2,2,-1
 153 431 l 1,3,-1
 153 513 l 2,4,5
 153 526 153 526 154 533 c 128,-1,6
 155 540 155 540 163.5 547 c 128,-1,7
 172 554 172 554 188 554 c 0,8,9
 211 554 211 554 216.5 543.5 c 128,-1,10
 222 533 222 533 222 513 c 2,11,-1
 222 431 l 1,12,-1
 386 431 l 2,13,14
 398 431 398 431 404.5 430 c 128,-1,15
 411 429 411 429 418.5 421.5 c 128,-1,16
 426 414 426 414 426 400 c 0,17,18
 426 370 426 370 386 370 c 2,19,-1
 222 370 l 1,20,-1
 222 132 l 2,21,22
 222 118 222 118 223.5 108.5 c 128,-1,23
 225 99 225 99 231.5 84.5 c 128,-1,24
 238 70 238 70 255 62.5 c 128,-1,25
 272 55 272 55 299 55 c 0,26,27
 315 55 315 55 331 59.5 c 128,-1,28
 347 64 347 64 363.5 81.5 c 128,-1,29
 380 99 380 99 380 127 c 0,30,31
 380 138 380 138 381.5 145 c 128,-1,32
 383 152 383 152 391 158.5 c 128,-1,33
 399 165 399 165 414 165 c 0,34,35
 430 165 430 165 438.5 158 c 128,-1,36
 447 151 447 151 448 144.5 c 128,-1,37
 449 138 449 138 449 126 c 0,38,39
 449 64 449 64 402 29 c 128,-1,40
 355 -6 355 -6 294 -6 c 128,-1,41
 233 -6 233 -6 193 26.5 c 128,-1,42
 153 59 153 59 153 126 c 2,43,-1
 153 370 l 1,44,-1
 65 370 l 2,45,46
 25 370 25 370 25 400 c 0,0,1
EndSplineSet
EndChar

StartChar: u
Encoding: 117 117 88
Width: 525
GlyphClass: 2
Flags: W
TeX: 430 0
AnchorPoint: "Anchor-5" 262 440 basechar 0
AnchorPoint: "Anchor-4" 262 0 basechar 0
AnchorPoint: "Anchor-3" 525 611 basechar 0
AnchorPoint: "Anchor-2" 525 -222 basechar 0
AnchorPoint: "Anchor-1" 392 0 basechar 0
LayerCount: 2
Fore
SplineSet
12 400 m 0,0,1
 12 431 12 431 53 431 c 2,2,-1
 126 431 l 2,3,4
 151 431 151 431 158.5 422.5 c 128,-1,5
 166 414 166 414 166 390 c 2,6,-1
 166 120 l 2,7,8
 166 104 166 104 167.5 95.5 c 128,-1,9
 169 87 169 87 175.5 76 c 128,-1,10
 182 65 182 65 199.5 60 c 128,-1,11
 217 55 217 55 245 55 c 0,12,13
 260 55 260 55 276.5 58.5 c 128,-1,14
 293 62 293 62 313 71.5 c 128,-1,15
 333 81 333 81 345.5 103 c 128,-1,16
 358 125 358 125 358 157 c 2,17,-1
 358 370 l 1,18,-1
 313 370 l 2,19,20
 273 370 273 370 273 400 c 0,21,22
 273 431 273 431 314 431 c 2,23,-1
 387 431 l 2,24,25
 412 431 412 431 419.5 422.5 c 128,-1,26
 427 414 427 414 427 390 c 2,27,-1
 427 61 l 1,28,-1
 472 61 l 2,29,30
 512 61 512 61 512 31 c 0,31,32
 512 0 512 0 471 0 c 2,33,-1
 398 0 l 2,34,35
 386 0 386 0 379.5 1 c 128,-1,36
 373 2 373 2 365.5 9.5 c 128,-1,37
 358 17 358 17 358 32 c 1,38,39
 308 -6 308 -6 239 -6 c 0,40,41
 97 -6 97 -6 97 114 c 2,42,-1
 97 370 l 1,43,-1
 52 370 l 2,44,45
 12 370 12 370 12 400 c 0,0,1
EndSplineSet
EndChar

StartChar: v
Encoding: 118 118 89
Width: 525
GlyphClass: 2
Flags: W
TeX: 430 0
AnchorPoint: "Anchor-5" 262 440 basechar 0
AnchorPoint: "Anchor-4" 262 0 basechar 0
AnchorPoint: "Anchor-3" 525 611 basechar 0
AnchorPoint: "Anchor-2" 525 -222 basechar 0
LayerCount: 2
Fore
SplineSet
24 400 m 0,0,1
 24 414 24 414 31.5 421.5 c 128,-1,2
 39 429 39 429 45.5 430 c 128,-1,3
 52 431 52 431 64 431 c 2,4,-1
 181 431 l 2,5,6
 193 431 193 431 199.5 430 c 128,-1,7
 206 429 206 429 213.5 421.5 c 128,-1,8
 221 414 221 414 221 400 c 0,9,10
 221 370 221 370 181 370 c 2,11,-1
 153 370 l 1,12,-1
 262 48 l 1,13,-1
 371 370 l 1,14,-1
 343 370 l 2,15,16
 331 370 331 370 324.5 371 c 128,-1,17
 318 372 318 372 310.5 379.5 c 128,-1,18
 303 387 303 387 303 401 c 0,19,20
 303 431 303 431 343 431 c 2,21,-1
 460 431 l 2,22,23
 472 431 472 431 478.5 430 c 128,-1,24
 485 429 485 429 492.5 421.5 c 128,-1,25
 500 414 500 414 500 400 c 0,26,27
 500 370 500 370 460 370 c 2,28,-1
 430 370 l 1,29,-1
 315 29 l 2,30,31
 310 14 310 14 300 6 c 128,-1,32
 290 -2 290 -2 282.5 -3 c 128,-1,33
 275 -4 275 -4 262 -4 c 0,34,35
 248 -4 248 -4 241 -3 c 128,-1,36
 234 -2 234 -2 224.5 6 c 128,-1,37
 215 14 215 14 209 30 c 2,38,-1
 94 370 l 1,39,-1
 64 370 l 2,40,41
 24 370 24 370 24 400 c 0,0,1
EndSplineSet
EndChar

StartChar: w
Encoding: 119 119 90
Width: 525
GlyphClass: 2
Flags: W
TeX: 430 0
AnchorPoint: "Anchor-5" 262 440 basechar 0
AnchorPoint: "Anchor-4" 264 0 basechar 0
AnchorPoint: "Anchor-3" 525 611 basechar 0
AnchorPoint: "Anchor-2" 525 -222 basechar 0
LayerCount: 2
Fore
SplineSet
16 401 m 0,0,1
 16 415 16 415 23.5 422 c 128,-1,2
 31 429 31 429 38 430 c 128,-1,3
 45 431 45 431 58 431 c 2,4,-1
 173 431 l 2,5,6
 186 431 186 431 193 430 c 128,-1,7
 200 429 200 429 207.5 421.5 c 128,-1,8
 215 414 215 414 215 400 c 128,-1,9
 215 386 215 386 207.5 379 c 128,-1,10
 200 372 200 372 193 371 c 128,-1,11
 186 370 186 370 173 370 c 2,12,-1
 124 370 l 1,13,-1
 176 72 l 1,14,-1
 177 72 l 1,15,16
 180 86 180 86 200.5 158.5 c 128,-1,17
 221 231 221 231 224 237 c 0,18,19
 235 259 235 259 264 259 c 0,20,21
 289 259 289 259 297.5 247 c 128,-1,22
 306 235 306 235 320 185 c 0,23,24
 344 101 344 101 349 72 c 1,25,-1
 350 72 l 1,26,-1
 400 370 l 1,27,-1
 351 370 l 2,28,29
 338 370 338 370 331 371 c 128,-1,30
 324 372 324 372 316.5 379.5 c 128,-1,31
 309 387 309 387 309 401 c 128,-1,32
 309 415 309 415 316.5 422 c 128,-1,33
 324 429 324 429 331 430 c 128,-1,34
 338 431 338 431 351 431 c 2,35,-1
 466 431 l 2,36,37
 479 431 479 431 486 430 c 128,-1,38
 493 429 493 429 500.5 422 c 128,-1,39
 508 415 508 415 508 401 c 0,40,41
 508 386 508 386 500.5 379 c 128,-1,42
 493 372 493 372 484.5 371 c 128,-1,43
 476 370 476 370 457 370 c 1,44,-1
 397 34 l 2,45,46
 394 20 394 20 392 13.5 c 128,-1,47
 390 7 390 7 380 1.5 c 128,-1,48
 370 -4 370 -4 353 -4 c 0,49,50
 323 -4 323 -4 311 13 c 0,51,52
 306 24 306 24 287 90 c 128,-1,53
 268 156 268 156 265 190 c 1,54,-1
 264 190 l 1,55,56
 258 148 258 148 235 66 c 0,57,58
 221 18 221 18 212 7 c 128,-1,59
 203 -4 203 -4 174 -4 c 0,60,61
 159 -4 159 -4 150 -1.5 c 128,-1,62
 141 1 141 1 136.5 7 c 128,-1,63
 132 13 132 13 130.5 18 c 128,-1,64
 129 23 129 23 127 34 c 2,65,-1
 67 370 l 1,66,67
 48 370 48 370 39.5 371 c 128,-1,68
 31 372 31 372 23.5 379 c 128,-1,69
 16 386 16 386 16 401 c 0,0,1
EndSplineSet
EndChar

StartChar: x
Encoding: 120 120 91
Width: 525
GlyphClass: 2
Flags: W
TeX: 430 0
AnchorPoint: "Anchor-5" 262 440 basechar 0
AnchorPoint: "Anchor-4" 262 0 basechar 0
AnchorPoint: "Anchor-3" 525 611 basechar 0
AnchorPoint: "Anchor-2" 525 -222 basechar 0
LayerCount: 2
Fore
SplineSet
27 30 m 0,0,1
 27 61 27 61 68 61 c 2,2,-1
 108 61 l 1,3,-1
 232 222 l 1,4,-1
 114 370 l 1,5,-1
 74 370 l 2,6,7
 33 370 33 370 33 400 c 0,8,9
 33 431 33 431 74 431 c 2,10,-1
 191 431 l 2,11,12
 231 431 231 431 231 401 c 0,13,14
 231 386 231 386 223.5 379 c 128,-1,15
 216 372 216 372 208 371 c 128,-1,16
 200 370 200 370 183 370 c 1,17,-1
 259 269 l 1,18,-1
 333 370 l 1,19,20
 316 370 316 370 307.5 371 c 128,-1,21
 299 372 299 372 291.5 379 c 128,-1,22
 284 386 284 386 284 401 c 0,23,24
 284 431 284 431 324 431 c 2,25,-1
 441 431 l 2,26,27
 482 431 482 431 482 400 c 0,28,29
 482 370 482 370 441 370 c 2,30,-1
 401 370 l 1,31,-1
 287 222 l 1,32,-1
 415 61 l 1,33,-1
 455 61 l 2,34,35
 496 61 496 61 496 30 c 0,36,37
 496 0 496 0 455 0 c 2,38,-1
 338 0 l 2,39,40
 298 0 298 0 298 30 c 0,41,42
 298 45 298 45 305.5 52 c 128,-1,43
 313 59 313 59 321.5 60 c 128,-1,44
 330 61 330 61 348 61 c 1,45,-1
 259 184 l 1,46,-1
 173 61 l 1,47,48
 193 61 193 61 201.5 60 c 128,-1,49
 210 59 210 59 217.5 52 c 128,-1,50
 225 45 225 45 225 30 c 0,51,52
 225 0 225 0 185 0 c 2,53,-1
 68 0 l 2,54,55
 27 0 27 0 27 30 c 0,0,1
EndSplineSet
EndChar

StartChar: y
Encoding: 121 121 92
Width: 525
GlyphClass: 2
Flags: W
TeX: 430 222
AnchorPoint: "Anchor-5" 268 440 basechar 0
AnchorPoint: "Anchor-4" 263 -222 basechar 0
AnchorPoint: "Anchor-3" 525 611 basechar 0
AnchorPoint: "Anchor-2" 525 -222 basechar 0
LayerCount: 2
Fore
SplineSet
26 400 m 0,0,1
 26 414 26 414 33.5 421.5 c 128,-1,2
 41 429 41 429 47.5 430 c 128,-1,3
 54 431 54 431 66 431 c 2,4,-1
 183 431 l 2,5,6
 195 431 195 431 201.5 430 c 128,-1,7
 208 429 208 429 215.5 421.5 c 128,-1,8
 223 414 223 414 223 400 c 0,9,10
 223 370 223 370 183 370 c 2,11,-1
 158 370 l 1,12,-1
 251 130 l 2,13,14
 270 78 270 78 272 71 c 1,15,-1
 273 71 l 1,16,17
 281 105 281 105 299 157 c 2,18,-1
 371 370 l 1,19,-1
 343 370 l 2,20,21
 331 370 331 370 324.5 371 c 128,-1,22
 318 372 318 372 310.5 379.5 c 128,-1,23
 303 387 303 387 303 401 c 0,24,25
 303 431 303 431 343 431 c 2,26,-1
 460 431 l 2,27,28
 472 431 472 431 478.5 430 c 128,-1,29
 485 429 485 429 492.5 421.5 c 128,-1,30
 500 414 500 414 500 400 c 0,31,32
 500 370 500 370 460 370 c 2,33,-1
 430 370 l 1,34,-1
 275 -85 l 2,35,36
 271 -96 271 -96 267.5 -105 c 128,-1,37
 264 -114 264 -114 250 -139.5 c 128,-1,38
 236 -165 236 -165 220.5 -182 c 128,-1,39
 205 -199 205 -199 179.5 -213.5 c 128,-1,40
 154 -228 154 -228 126 -228 c 0,41,42
 90 -228 90 -228 66.5 -203.5 c 128,-1,43
 43 -179 43 -179 43 -146 c 0,44,45
 43 -126 43 -126 55 -114 c 128,-1,46
 67 -102 67 -102 87 -102 c 0,47,48
 106 -102 106 -102 118 -114 c 128,-1,49
 130 -126 130 -126 130 -145 c 0,50,51
 130 -151 130 -151 129 -156 c 128,-1,52
 128 -161 128 -161 126 -164 c 2,53,-1
 125 -167 l 1,54,55
 176 -164 176 -164 205 -109 c 0,56,57
 211 -98 211 -98 220.5 -71 c 128,-1,58
 230 -44 230 -44 236.5 -22.5 c 128,-1,59
 243 -1 243 -1 243 0 c 0,60,61
 243 3 243 3 239 13 c 2,62,-1
 97 370 l 1,63,-1
 66 370 l 2,64,65
 26 370 26 370 26 400 c 0,0,1
EndSplineSet
EndChar

StartChar: z
Encoding: 122 122 93
Width: 525
GlyphClass: 2
Flags: W
TeX: 430 0
AnchorPoint: "Anchor-5" 254 440 basechar 0
AnchorPoint: "Anchor-4" 254 0 basechar 0
AnchorPoint: "Anchor-3" 525 611 basechar 0
AnchorPoint: "Anchor-2" 525 -222 basechar 0
LayerCount: 2
Fore
SplineSet
33 34 m 0,0,1
 33 47 33 47 36.5 53 c 128,-1,2
 40 59 40 59 55 74 c 2,3,-1
 367 370 l 1,4,-1
 118 370 l 1,5,-1
 118 344 l 2,6,7
 118 331 118 331 117 324 c 128,-1,8
 116 317 116 317 107.5 310 c 128,-1,9
 99 303 99 303 83 303 c 0,10,11
 60 303 60 303 54.5 313.5 c 128,-1,12
 49 324 49 324 49 344 c 2,13,-1
 49 390 l 2,14,15
 49 415 49 415 57 423 c 128,-1,16
 65 431 65 431 90 431 c 2,17,-1
 430 431 l 2,18,19
 443 431 443 431 450 430 c 128,-1,20
 457 429 457 429 464 421 c 128,-1,21
 471 413 471 413 471 397 c 0,22,23
 471 384 471 384 467.5 378 c 128,-1,24
 464 372 464 372 449 357 c 2,25,-1
 137 61 l 1,26,-1
 406 61 l 1,27,-1
 406 99 l 2,28,29
 406 112 406 112 407 119 c 128,-1,30
 408 126 408 126 416.5 133 c 128,-1,31
 425 140 425 140 441 140 c 0,32,33
 464 140 464 140 469.5 129.5 c 128,-1,34
 475 119 475 119 475 99 c 2,35,-1
 475 41 l 2,36,37
 475 6 475 6 453 0 c 1,38,-1
 74 0 l 2,39,40
 61 0 61 0 54 1 c 128,-1,41
 47 2 47 2 40 10 c 128,-1,42
 33 18 33 18 33 34 c 0,0,1
EndSplineSet
EndChar

StartChar: braceleft
Encoding: 123 123 94
Width: 525
GlyphClass: 2
Flags: W
TeX: 694 83
LayerCount: 2
Fore
SplineSet
56 305 m 0,0,1
 56 330 56 330 78 335 c 0,2,3
 79 335 79 335 95.5 335.5 c 128,-1,4
 112 336 112 336 131 338.5 c 128,-1,5
 150 341 150 341 171 346 c 128,-1,6
 192 351 192 351 207.5 362 c 128,-1,7
 223 373 223 373 226 389 c 0,8,9
 227 396 227 396 227 409 c 2,10,-1
 227 568 l 2,11,12
 227 629 227 629 274 661 c 128,-1,13
 321 693 321 693 432 694 c 0,14,15
 467 694 467 694 467 664 c 0,16,17
 467 641 467 641 449.5 636 c 128,-1,18
 432 631 432 631 394.5 630 c 128,-1,19
 357 629 357 629 329 617 c 0,20,21
 297 604 297 604 297 570 c 2,22,-1
 297 409 l 2,23,24
 297 337 297 337 239 306 c 1,25,-1
 239 305 l 1,26,27
 297 273 297 273 297 202 c 2,28,-1
 297 45 l 2,29,30
 297 32 297 32 297.5 26.5 c 128,-1,31
 298 21 298 21 306.5 10.5 c 128,-1,32
 315 0 315 0 333 -7 c 0,33,34
 359 -17 359 -17 395.5 -18.5 c 128,-1,35
 432 -20 432 -20 449.5 -25 c 128,-1,36
 467 -30 467 -30 467 -52 c 0,37,38
 467 -82 467 -82 434 -83 c 2,39,-1
 423 -83 l 2,40,41
 317 -81 317 -81 272 -49 c 128,-1,42
 227 -17 227 -17 227 42 c 2,43,-1
 227 202 l 2,44,45
 227 215 227 215 226 222 c 128,-1,46
 225 229 225 229 216.5 240 c 128,-1,47
 208 251 208 251 191 258 c 0,48,49
 164 270 164 270 127.5 271.5 c 128,-1,50
 91 273 91 273 73.5 278 c 128,-1,51
 56 283 56 283 56 305 c 0,0,1
EndSplineSet
EndChar

StartChar: bar
Encoding: 124 124 95
Width: 525
GlyphClass: 2
Flags: W
TeX: 694 83
LayerCount: 2
Fore
SplineSet
227 -42 m 2,0,-1
 227 648 l 2,1,2
 227 659 227 659 228 665 c 0,3,4
 230 676 230 676 239.5 685 c 128,-1,5
 249 694 249 694 262 694 c 0,6,7
 268 694 268 694 275 692 c 128,-1,8
 282 690 282 690 289.5 680 c 128,-1,9
 297 670 297 670 297 653 c 2,10,-1
 297 -37 l 2,11,12
 297 -49 297 -49 296 -55 c 0,13,14
 294 -65 294 -65 285 -74 c 128,-1,15
 276 -83 276 -83 262 -83 c 0,16,17
 256 -83 256 -83 249 -80.5 c 128,-1,18
 242 -78 242 -78 234.5 -68 c 128,-1,19
 227 -58 227 -58 227 -42 c 2,0,-1
EndSplineSet
EndChar

StartChar: braceright
Encoding: 125 125 96
Width: 525
GlyphClass: 2
Flags: W
TeX: 694 83
LayerCount: 2
Fore
SplineSet
56 -52 m 0,0,1
 56 -31 56 -31 73 -24 c 0,2,3
 75 -23 75 -23 112.5 -21.5 c 128,-1,4
 150 -20 150 -20 184 -10 c 128,-1,5
 218 0 218 0 225 23 c 0,6,7
 227 30 227 30 227 46 c 2,8,-1
 227 202 l 2,9,10
 227 222 227 222 229 236 c 128,-1,11
 231 250 231 250 244.5 270.5 c 128,-1,12
 258 291 258 291 284 305 c 1,13,-1
 284 306 l 1,14,15
 227 337 227 337 227 403 c 2,16,-1
 227 565 l 2,17,18
 227 579 227 579 225 586.5 c 128,-1,19
 223 594 223 594 212 606 c 128,-1,20
 201 618 201 618 171 624.5 c 128,-1,21
 141 631 141 631 92 632 c 0,22,23
 56 632 56 632 56 663 c 0,24,25
 56 693 56 693 89 694 c 2,26,-1
 101 694 l 2,27,28
 208 692 208 692 252.5 660 c 128,-1,29
 297 628 297 628 297 568 c 2,30,-1
 297 409 l 2,31,32
 297 399 297 399 297.5 395.5 c 128,-1,33
 298 392 298 392 301 381 c 128,-1,34
 304 370 304 370 312 364.5 c 128,-1,35
 320 359 320 359 334 352 c 128,-1,36
 348 345 348 345 373 341 c 128,-1,37
 398 337 398 337 431 336 c 2,38,-1
 432 336 l 2,39,40
 467 336 467 336 467 306 c 0,41,42
 467 281 467 281 445 276 c 0,43,44
 444 276 444 276 419.5 274 c 128,-1,45
 395 272 395 272 371.5 269 c 128,-1,46
 348 266 348 266 325 253.5 c 128,-1,47
 302 241 302 241 298 222 c 0,48,49
 297 215 297 215 297 202 c 2,50,-1
 297 43 l 2,51,52
 297 -27 297 -27 242.5 -54.5 c 128,-1,53
 188 -82 188 -82 91 -83 c 0,54,55
 56 -83 56 -83 56 -52 c 0,0,1
EndSplineSet
EndChar

StartChar: asciitilde
Encoding: 126 126 97
Width: 525
GlyphClass: 2
Flags: W
TeX: 610 0
LayerCount: 2
Fore
SplineSet
71 522 m 0,0,1
 71 541 71 541 109.5 576 c 128,-1,2
 148 611 148 611 191 611 c 0,3,4
 224 611 224 611 269 584.5 c 128,-1,5
 314 558 314 558 333 558 c 128,-1,6
 352 558 352 558 367.5 571 c 128,-1,7
 383 584 383 584 395.5 597 c 128,-1,8
 408 610 408 610 420 610 c 128,-1,9
 432 610 432 610 442 600.5 c 128,-1,10
 452 591 452 591 452 579 c 0,11,12
 452 560 452 560 413.5 525.5 c 128,-1,13
 375 491 375 491 332 491 c 0,14,15
 296 491 296 491 253 517.5 c 128,-1,16
 210 544 210 544 192 544 c 0,17,18
 168 544 168 544 141 517.5 c 128,-1,19
 114 491 114 491 103 491 c 0,20,21
 91 491 91 491 81 500.5 c 128,-1,22
 71 510 71 510 71 522 c 0,0,1
EndSplineSet
EndChar

StartChar: exclamdown
Encoding: 161 161 99
Width: 525
GlyphClass: 2
Flags: W
TeX: 388 222
LayerCount: 2
Fore
SplineSet
199 -169 m 0,0,1
 199 -164 199 -164 200 -146 c 2,2,-1
 211 152 l 2,3,4
 213 187 213 187 244 187 c 2,5,-1
 278 187 l 2,6,7
 286 187 286 187 291.5 185.5 c 128,-1,8
 297 184 297 184 301 180.5 c 128,-1,9
 305 177 305 177 307 174.5 c 128,-1,10
 309 172 309 172 310.5 166 c 128,-1,11
 312 160 312 160 312 157.5 c 128,-1,12
 312 155 312 155 312.5 148.5 c 128,-1,13
 313 142 313 142 313 141 c 2,14,-1
 324 -167 l 2,15,16
 324 -201 324 -201 304 -217 c 128,-1,17
 284 -233 284 -233 262 -233 c 0,18,19
 237 -233 237 -233 218 -216 c 128,-1,20
 199 -199 199 -199 199 -169 c 0,0,1
199 327 m 0,21,22
 199 351 199 351 217 370 c 128,-1,23
 235 389 235 389 262 389 c 0,24,25
 287 389 287 389 305.5 371 c 128,-1,26
 324 353 324 353 324 327 c 0,27,28
 324 303 324 303 306.5 283.5 c 128,-1,29
 289 264 289 264 262 264 c 0,30,31
 237 264 237 264 218 282.5 c 128,-1,32
 199 301 199 301 199 327 c 0,21,22
EndSplineSet
EndChar

StartChar: cent
Encoding: 162 162 100
Width: 525
GlyphClass: 2
Flags: W
TeX: 544 111
LayerCount: 2
Fore
SplineSet
43 215 m 0,0,1
 43 298 43 298 103.5 361 c 128,-1,2
 164 424 164 424 260 437 c 1,3,-1
 260 510 l 2,4,5
 261 544 261 544 291 544 c 128,-1,6
 321 544 321 544 321 511 c 2,7,-1
 321 439 l 1,8,9
 352 438 352 438 373 436 c 128,-1,10
 394 434 394 434 423 427.5 c 128,-1,11
 452 421 452 421 467.5 405 c 128,-1,12
 483 389 483 389 483 365 c 0,13,14
 483 346 483 346 470 333 c 128,-1,15
 457 320 457 320 438 320 c 0,16,17
 421 320 421 320 407 332.5 c 128,-1,18
 393 345 393 345 394 371 c 1,19,-1
 360 375 l 1,20,-1
 321 377 l 1,21,-1
 321 57 l 1,22,23
 356 61 356 61 378 70.5 c 128,-1,24
 400 80 400 80 408.5 91 c 128,-1,25
 417 102 417 102 423 112.5 c 128,-1,26
 429 123 429 123 437 130 c 128,-1,27
 445 137 445 137 460 137 c 0,28,29
 478 137 478 137 486 128.5 c 128,-1,30
 494 120 494 120 494 109 c 0,31,32
 494 99 494 99 485 82.5 c 128,-1,33
 476 66 476 66 457.5 47 c 128,-1,34
 439 28 439 28 403.5 13 c 128,-1,35
 368 -2 368 -2 322 -4 c 1,36,-1
 321 -5 l 1,37,-1
 321 -77 l 2,38,39
 321 -111 321 -111 291 -111 c 128,-1,40
 261 -111 261 -111 260 -77 c 2,41,-1
 260 -4 l 1,42,43
 164 8 164 8 103.5 71 c 128,-1,44
 43 134 43 134 43 215 c 0,0,1
113 216 m 128,-1,46
 113 163 113 163 152 118.5 c 128,-1,47
 191 74 191 74 260 60 c 1,48,-1
 260 375 l 1,49,50
 190 363 190 363 151.5 316 c 128,-1,45
 113 269 113 269 113 216 c 128,-1,46
EndSplineSet
EndChar

StartChar: sterling
Encoding: 163 163 101
Width: 525
GlyphClass: 2
Flags: W
TeX: 610 0
LayerCount: 2
Fore
SplineSet
45 52 m 0,0,1
 45 83 45 83 72 102.5 c 128,-1,2
 99 122 99 122 139 122 c 0,3,4
 160 122 160 122 187 117 c 1,5,6
 192 140 192 140 192 164 c 2,7,-1
 192 275 l 1,8,-1
 144 275 l 2,9,10
 108 275 108 275 108 306 c 0,11,12
 108 336 108 336 145 336 c 2,13,-1
 192 336 l 1,14,-1
 192 448 l 2,15,16
 192 507 192 507 217.5 547.5 c 128,-1,17
 243 588 243 588 275.5 603.5 c 128,-1,18
 308 619 308 619 341 619 c 0,19,20
 405 619 405 619 441.5 569 c 128,-1,21
 478 519 478 519 478 461 c 0,22,23
 478 436 478 436 464 425 c 128,-1,24
 450 414 450 414 434 414 c 0,25,26
 414 414 414 414 401.5 427.5 c 128,-1,27
 389 441 389 441 389 458 c 0,28,29
 389 471 389 471 395.5 480.5 c 128,-1,30
 402 490 402 490 402 495 c 0,31,32
 402 510 402 510 385.5 533.5 c 128,-1,33
 369 557 369 557 340 557 c 0,34,35
 312 557 312 557 287 529.5 c 128,-1,36
 262 502 262 502 262 450 c 2,37,-1
 262 336 l 1,38,-1
 335 336 l 2,39,40
 369 336 369 336 369 305 c 0,41,42
 369 275 369 275 335 275 c 2,43,-1
 262 275 l 1,44,-1
 262 162 l 2,45,46
 262 126 262 126 252 97 c 1,47,48
 355 59 355 59 383 59 c 0,49,50
 421 59 421 59 430 108 c 0,51,52
 430 109 430 109 430.5 117.5 c 128,-1,53
 431 126 431 126 432.5 129.5 c 128,-1,54
 434 133 434 133 437 139 c 128,-1,55
 440 145 440 145 447.5 147.5 c 128,-1,56
 455 150 455 150 466 150 c 0,57,58
 501 150 501 150 501 118 c 0,59,60
 501 76 501 76 469.5 35.5 c 128,-1,61
 438 -5 438 -5 382 -5 c 0,62,63
 362 -5 362 -5 335.5 1 c 128,-1,64
 309 7 309 7 291 13 c 128,-1,65
 273 19 273 19 247 28.5 c 128,-1,66
 221 38 221 38 217 40 c 1,67,68
 173 -5 173 -5 115 -5 c 0,69,70
 85 -5 85 -5 65 11 c 128,-1,71
 45 27 45 27 45 52 c 0,0,1
EndSplineSet
EndChar

StartChar: currency
Encoding: 164 164 102
Width: 525
GlyphClass: 2
Flags: W
TeX: 553 0
LayerCount: 2
Fore
SplineSet
-52 -3 m 0,0,1
 -52 0 -52 0 -51.5 3 c 128,-1,2
 -51 6 -51 6 -49 10 c 128,-1,3
 -47 14 -47 14 -44.5 17 c 128,-1,4
 -42 20 -42 20 -37.5 25.5 c 128,-1,5
 -33 31 -33 31 -28.5 35.5 c 128,-1,6
 -24 40 -24 40 -16 48 c 128,-1,7
 -8 56 -8 56 -1 63 c 128,-1,8
 6 70 6 70 18 81.5 c 128,-1,9
 30 93 30 93 40 103 c 1,10,11
 -19 181 -19 181 -19 277 c 128,-1,12
 -19 373 -19 373 40 451 c 1,13,14
 -42 532 -42 532 -48 541 c 0,15,16
 -52 548 -52 548 -52 557 c 0,17,18
 -52 571 -52 571 -41 581 c 128,-1,19
 -30 591 -30 591 -17 591 c 128,-1,20
 -4 591 -4 591 8.5 580 c 128,-1,21
 21 569 21 569 89 500 c 1,22,-1
 90 500 l 1,23,24
 163 559 163 559 263 559 c 0,25,26
 362 559 362 559 435 500 c 1,27,-1
 437 500 l 1,28,29
 516 580 516 580 526 586 c 0,30,31
 534 591 534 591 543 591 c 0,32,33
 556 591 556 591 566.5 581.5 c 128,-1,34
 577 572 577 572 577 557 c 0,35,36
 577 545 577 545 565 531 c 128,-1,37
 553 517 553 517 516 480 c 0,38,39
 497 462 497 462 486 451 c 1,40,41
 545 373 545 373 545 277 c 0,42,43
 545 183 545 183 486 103 c 1,44,45
 555 35 555 35 566 22 c 128,-1,46
 577 9 577 9 577 -3 c 0,47,48
 577 -18 577 -18 566.5 -28 c 128,-1,49
 556 -38 556 -38 543 -38 c 128,-1,50
 530 -38 530 -38 517.5 -26.5 c 128,-1,51
 505 -15 505 -15 437 54 c 1,52,-1
 435 54 l 1,53,54
 362 -5 362 -5 263 -5 c 0,55,56
 162 -5 162 -5 90 54 c 1,57,-1
 89 54 l 1,58,59
 8 -28 8 -28 -1 -33 c 0,60,61
 -8 -38 -8 -38 -17 -38 c 0,62,63
 -30 -38 -30 -38 -41 -28 c 128,-1,64
 -52 -18 -52 -18 -52 -3 c 0,0,1
50 277 m 0,65,66
 50 191 50 191 111.5 127.5 c 128,-1,67
 173 64 173 64 263 64 c 0,68,69
 350 64 350 64 412.5 125.5 c 128,-1,70
 475 187 475 187 475 277 c 0,71,72
 475 364 475 364 414.5 426.5 c 128,-1,73
 354 489 354 489 263 489 c 0,74,75
 176 489 176 489 113 428 c 128,-1,76
 50 367 50 367 50 277 c 0,65,66
EndSplineSet
EndChar

StartChar: yen
Encoding: 165 165 103
Width: 525
GlyphClass: 2
Flags: W
TeX: 610 0
LayerCount: 2
Fore
SplineSet
18 579 m 0,0,1
 18 611 18 611 53 611 c 2,2,-1
 167 611 l 2,3,4
 204 611 204 611 204 580 c 0,5,6
 204 550 204 550 169 549 c 2,7,-1
 158 549 l 1,8,-1
 241 370 l 1,9,-1
 283 370 l 1,10,-1
 366 549 l 1,11,-1
 354 549 l 2,12,13
 336 549 336 549 327.5 557.5 c 128,-1,14
 319 566 319 566 319 579 c 0,15,16
 319 611 319 611 354 611 c 2,17,-1
 469 611 l 2,18,19
 505 611 505 611 505 580 c 128,-1,20
 505 549 505 549 468 549 c 2,21,-1
 443 549 l 1,22,-1
 358 370 l 1,23,-1
 464 370 l 2,24,25
 503 370 503 370 503 339 c 0,26,27
 503 309 503 309 466 309 c 2,28,-1
 328 309 l 2,29,30
 327 306 327 306 313 278.5 c 128,-1,31
 299 251 299 251 297 232 c 2,32,-1
 297 220 l 1,33,-1
 459 220 l 2,34,35
 474 220 474 220 481 218 c 0,36,37
 503 211 503 211 503 189 c 0,38,39
 503 183 503 183 501 177 c 128,-1,40
 499 171 499 171 490.5 164.5 c 128,-1,41
 482 158 482 158 468 158 c 2,42,-1
 297 158 l 1,43,-1
 297 62 l 1,44,-1
 324 62 l 2,45,46
 362 62 362 62 362 31 c 128,-1,47
 362 0 362 0 325 0 c 2,48,-1
 198 0 l 2,49,50
 162 0 162 0 162 31 c 128,-1,51
 162 62 162 62 199 62 c 2,52,-1
 227 62 l 1,53,-1
 227 158 l 1,54,-1
 55 158 l 2,55,56
 34 159 34 159 27 168.5 c 128,-1,57
 20 178 20 178 20 188 c 0,58,59
 20 211 20 211 42 218 c 0,60,61
 49 220 49 220 64 220 c 2,62,-1
 227 220 l 1,63,-1
 227 232 l 2,64,65
 226 240 226 240 224.5 246 c 128,-1,66
 223 252 223 252 221 256.5 c 128,-1,67
 219 261 219 261 211.5 276.5 c 128,-1,68
 204 292 204 292 196 309 c 1,69,-1
 60 309 l 2,70,71
 20 309 20 309 20 339 c 0,72,73
 20 370 20 370 61 370 c 2,74,-1
 166 370 l 1,75,-1
 80 549 l 1,76,-1
 55 549 l 2,77,78
 18 549 18 549 18 579 c 0,0,1
EndSplineSet
EndChar

StartChar: brokenbar
Encoding: 166 166 104
Width: 525
GlyphClass: 2
Flags: W
TeX: 694 83
LayerCount: 2
Fore
SplineSet
227 -38 m 2,0,-1
 227 227 l 2,1,2
 227 243 227 243 237 254 c 128,-1,3
 247 265 247 265 262 265 c 0,4,5
 297 265 297 265 297 220 c 2,6,-1
 297 -39 l 2,7,8
 297 -82 297 -82 262 -82 c 128,-1,9
 227 -82 227 -82 227 -38 c 2,0,-1
227 391 m 2,10,-1
 227 650 l 2,11,12
 227 668 227 668 234 678.5 c 128,-1,13
 241 689 241 689 248 691.5 c 128,-1,14
 255 694 255 694 262 694 c 0,15,16
 286 694 286 694 295 670 c 0,17,18
 297 663 297 663 297 649 c 2,19,-1
 297 390 l 2,20,21
 297 347 297 347 262 347 c 0,22,23
 237 347 237 347 229 371 c 0,24,25
 227 378 227 378 227 391 c 2,10,-1
EndSplineSet
EndChar

StartChar: section
Encoding: 167 167 105
Width: 525
GlyphClass: 2
Flags: W
TeX: 610 222
LayerCount: 2
Fore
SplineSet
82 200 m 0,0,1
 82 284 82 284 163 330 c 1,2,-1
 163 331 l 1,3,4
 82 380 82 380 82 460 c 0,5,6
 82 528 82 528 136 572 c 128,-1,7
 190 616 190 616 263 616 c 128,-1,8
 336 616 336 616 381 577.5 c 128,-1,9
 426 539 426 539 426 491 c 0,10,11
 426 473 426 473 415.5 463 c 128,-1,12
 405 453 405 453 391 453 c 0,13,14
 363 453 363 453 357 480 c 0,15,16
 357 481 357 481 355.5 491 c 128,-1,17
 354 501 354 501 352 506.5 c 128,-1,18
 350 512 350 512 342.5 521.5 c 128,-1,19
 335 531 335 531 322 539 c 0,20,21
 297 554 297 554 262 554 c 0,22,23
 211 554 211 554 175 526.5 c 128,-1,24
 139 499 139 499 139 461 c 0,25,26
 139 441 139 441 150.5 424 c 128,-1,27
 162 407 162 407 184 394.5 c 128,-1,28
 206 382 206 382 222.5 375 c 128,-1,29
 239 368 239 368 265.5 359.5 c 128,-1,30
 292 351 292 351 295 350 c 0,31,32
 442 296 442 296 442 189 c 0,33,34
 442 145 442 145 418 110.5 c 128,-1,35
 394 76 394 76 361 59 c 1,36,-1
 361 58 l 1,37,38
 442 9 442 9 442 -72 c 0,39,40
 442 -140 442 -140 388.5 -184 c 128,-1,41
 335 -228 335 -228 262 -228 c 0,42,43
 196 -228 196 -228 147 -192.5 c 128,-1,44
 98 -157 98 -157 98 -103 c 0,45,46
 98 -85 98 -85 109 -74.5 c 128,-1,47
 120 -64 120 -64 134 -64 c 0,48,49
 161 -64 161 -64 167 -91 c 0,50,51
 167 -92 167 -92 168.5 -101.5 c 128,-1,52
 170 -111 170 -111 172 -117.5 c 128,-1,53
 174 -124 174 -124 181.5 -133.5 c 128,-1,54
 189 -143 189 -143 202 -151 c 0,55,56
 227 -166 227 -166 263 -166 c 0,57,58
 314 -166 314 -166 350 -138.5 c 128,-1,59
 386 -111 386 -111 386 -72 c 0,60,61
 386 -52 386 -52 374.5 -35 c 128,-1,62
 363 -18 363 -18 341 -6 c 128,-1,63
 319 6 319 6 302 13.5 c 128,-1,64
 285 21 285 21 259 28.5 c 128,-1,65
 233 36 233 36 229 38 c 0,66,67
 82 92 82 92 82 200 c 0,0,1
139 200 m 0,68,69
 139 166 139 166 175.5 140 c 128,-1,70
 212 114 212 114 243 105 c 128,-1,71
 274 96 274 96 281 96 c 0,72,73
 312 96 312 96 349 121.5 c 128,-1,74
 386 147 386 147 386 189 c 0,75,76
 386 210 386 210 371.5 228.5 c 128,-1,77
 357 247 357 247 337 258 c 128,-1,78
 317 269 317 269 295.5 277.5 c 128,-1,79
 274 286 274 286 260 289 c 128,-1,80
 246 292 246 292 244 292 c 0,81,82
 212 292 212 292 175.5 267 c 128,-1,83
 139 242 139 242 139 200 c 0,68,69
EndSplineSet
EndChar

StartChar: dieresis
Encoding: 168 168 106
Width: 525
GlyphClass: 2
Flags: W
TeX: 610 0
LayerCount: 2
Fore
SplineSet
110 560 m 128,-1,1
 110 581 110 581 124.5 596 c 128,-1,2
 139 611 139 611 160 611 c 0,3,4
 180 611 180 611 195 596.5 c 128,-1,5
 210 582 210 582 210 561 c 128,-1,6
 210 540 210 540 195.5 525.5 c 128,-1,7
 181 511 181 511 160 511 c 0,8,9
 140 511 140 511 125 525 c 128,-1,0
 110 539 110 539 110 560 c 128,-1,1
314 560 m 0,10,11
 314 581 314 581 328.5 596 c 128,-1,12
 343 611 343 611 364 611 c 0,13,14
 384 611 384 611 399 596.5 c 128,-1,15
 414 582 414 582 414 561 c 128,-1,16
 414 540 414 540 400 525.5 c 128,-1,17
 386 511 386 511 364 511 c 128,-1,18
 342 511 342 511 328 525.5 c 128,-1,19
 314 540 314 540 314 560 c 0,10,11
EndSplineSet
EndChar

StartChar: copyright
Encoding: 169 169 107
Width: 525
GlyphClass: 2
Flags: W
TeX: 694 222
LayerCount: 2
Fore
SplineSet
-75 236 m 0,0,1
 -75 362 -75 362 -31 469.5 c 128,-1,2
 13 577 13 577 91 641 c 128,-1,3
 169 705 169 705 263 705 c 0,4,5
 402 705 402 705 501 569 c 128,-1,6
 600 433 600 433 600 236 c 0,7,8
 600 38 600 38 501 -97.5 c 128,-1,9
 402 -233 402 -233 264 -233 c 0,10,11
 122 -233 122 -233 23.5 -96.5 c 128,-1,12
 -75 40 -75 40 -75 236 c 0,0,1
-5 237 m 0,13,14
 -5 70 -5 70 73 -47 c 128,-1,15
 151 -164 151 -164 262 -164 c 0,16,17
 368 -164 368 -164 449 -50.5 c 128,-1,18
 530 63 530 63 530 235 c 0,19,20
 530 411 530 411 448 523.5 c 128,-1,21
 366 636 366 636 263 636 c 0,22,23
 157 636 157 636 76 522.5 c 128,-1,24
 -5 409 -5 409 -5 237 c 0,13,14
75 214 m 128,-1,26
 75 309 75 309 129 374 c 128,-1,27
 183 439 183 439 258 439 c 0,28,29
 306 439 306 439 345 412 c 1,30,-1
 346 412 l 2,31,32
 347 413 347 413 348 415 c 0,33,34
 364 439 364 439 382 439 c 0,35,36
 412 439 412 439 412 403 c 2,37,-1
 412 307 l 2,38,39
 412 270 412 270 375 270 c 0,40,41
 363 270 363 270 355.5 275 c 128,-1,42
 348 280 348 280 345.5 285.5 c 128,-1,43
 343 291 343 291 340.5 303 c 128,-1,44
 338 315 338 315 336 320 c 0,45,46
 328 342 328 342 308.5 359.5 c 128,-1,47
 289 377 289 377 261 377 c 0,48,49
 217 377 217 377 181 331 c 128,-1,50
 145 285 145 285 145 213 c 0,51,52
 145 143 145 143 181.5 97 c 128,-1,53
 218 51 218 51 263 51 c 0,54,55
 291 51 291 51 313.5 67.5 c 128,-1,56
 336 84 336 84 341 110 c 0,57,58
 341 111 341 111 341.5 117.5 c 128,-1,59
 342 124 342 124 343.5 128.5 c 128,-1,60
 345 133 345 133 348 139 c 128,-1,61
 351 145 351 145 357.5 148 c 128,-1,62
 364 151 364 151 374 151 c 2,63,-1
 377 151 l 2,64,65
 412 151 412 151 412 117 c 0,66,67
 412 69 412 69 367.5 29 c 128,-1,68
 323 -11 323 -11 258 -11 c 0,69,70
 182 -11 182 -11 128.5 54 c 128,-1,25
 75 119 75 119 75 214 c 128,-1,26
EndSplineSet
EndChar

StartChar: ordfeminine
Encoding: 170 170 108
Width: 525
GlyphClass: 2
Flags: W
TeX: 694 0
LayerCount: 2
Fore
SplineSet
34 247 m 0,0,1
 34 272 34 272 61 277 c 0,2,3
 68 278 68 278 81 278 c 2,4,-1
 447 278 l 2,5,6
 466 278 466 278 474 273 c 0,7,8
 489 263 489 263 489 247 c 0,9,10
 489 216 489 216 450 216 c 2,11,-1
 71 216 l 2,12,13
 50 216 50 216 42 226.5 c 128,-1,14
 34 237 34 237 34 247 c 0,0,1
63 445 m 0,15,16
 63 473 63 473 85 491 c 128,-1,17
 107 509 107 509 166 520 c 128,-1,18
 225 531 225 531 325 533 c 1,19,-1
 325 539 l 2,20,21
 325 581 325 581 299.5 611 c 128,-1,22
 274 641 274 641 222 641 c 0,23,24
 216 641 216 641 209 640.5 c 128,-1,25
 202 640 202 640 194 639 c 128,-1,26
 186 638 186 638 181 638 c 1,27,-1
 181 629 l 2,28,29
 181 608 181 608 167.5 595.5 c 128,-1,30
 154 583 154 583 137 583 c 0,31,32
 119 583 119 583 106 595.5 c 128,-1,33
 93 608 93 608 93 629 c 0,34,35
 93 703 93 703 224 703 c 0,36,37
 296 703 296 703 345.5 658 c 128,-1,38
 395 613 395 613 395 538 c 2,39,-1
 395 413 l 1,40,41
 399 409 399 409 457 409 c 2,42,-1
 472 409 l 2,43,44
 508 409 508 409 508 378 c 128,-1,45
 508 347 508 347 473 347 c 2,46,-1
 451 347 l 2,47,48
 405 347 405 347 379 352 c 128,-1,49
 353 357 353 357 346 361.5 c 128,-1,50
 339 366 339 366 331 376 c 1,51,52
 278 342 278 342 205 342 c 0,53,54
 145 342 145 342 104 370.5 c 128,-1,55
 63 399 63 399 63 445 c 0,15,16
133 445 m 1,56,57
 141 403 141 403 214 403 c 0,58,59
 228 403 228 403 244 405.5 c 128,-1,60
 260 408 260 408 279.5 415 c 128,-1,61
 299 422 299 422 311.5 437 c 128,-1,62
 324 452 324 452 325 473 c 1,63,64
 179 472 179 472 133 445 c 1,56,57
EndSplineSet
EndChar

StartChar: guillemotleft
Encoding: 171 171 109
Width: 525
GlyphClass: 2
Flags: W
TeX: 434 0
LayerCount: 2
Fore
SplineSet
43 220 m 0,0,1
 43 231 43 231 60 248 c 2,2,-1
 248 420 l 2,3,4
 250 421 250 421 255 426 c 128,-1,5
 260 431 260 431 263 433 c 128,-1,6
 266 435 266 435 271.5 437 c 128,-1,7
 277 439 277 439 283 439 c 0,8,9
 299 439 299 439 306 430 c 128,-1,10
 313 421 313 421 313 411 c 0,11,12
 313 397 313 397 293 379 c 0,13,14
 129 229 129 229 118 220 c 1,15,-1
 118 219 l 1,16,17
 129 210 129 210 293 60 c 0,18,19
 313 42 313 42 313 28 c 0,20,21
 313 23 313 23 311 17 c 128,-1,22
 309 11 309 11 301.5 5.5 c 128,-1,23
 294 0 294 0 283 0 c 0,24,25
 269 0 269 0 248 19 c 2,26,-1
 60 191 l 2,27,28
 43 208 43 208 43 220 c 0,0,1
175 220 m 0,29,30
 175 231 175 231 192 248 c 2,31,-1
 380 420 l 2,32,33
 382 422 382 422 387 426.5 c 128,-1,34
 392 431 392 431 394.5 433 c 128,-1,35
 397 435 397 435 402.5 437 c 128,-1,36
 408 439 408 439 414 439 c 0,37,38
 431 439 431 439 438 430 c 128,-1,39
 445 421 445 421 445 411 c 0,40,41
 445 398 445 398 424 379 c 0,42,43
 387 345 387 345 355 315.5 c 128,-1,44
 323 286 323 286 307.5 272 c 128,-1,45
 292 258 292 258 279.5 246.5 c 128,-1,46
 267 235 267 235 261 229.5 c 128,-1,47
 255 224 255 224 250 220 c 1,48,-1
 250 219 l 1,49,50
 255 215 255 215 261 209.5 c 128,-1,51
 267 204 267 204 279.5 192.5 c 128,-1,52
 292 181 292 181 307.5 167 c 128,-1,53
 323 153 323 153 355 123.5 c 128,-1,54
 387 94 387 94 424 60 c 0,55,56
 445 41 445 41 445 28 c 0,57,58
 445 19 445 19 437.5 9.5 c 128,-1,59
 430 0 430 0 414 0 c 0,60,61
 401 0 401 0 380 19 c 2,62,-1
 192 191 l 2,63,64
 175 208 175 208 175 220 c 0,29,30
EndSplineSet
Substitution2: "'locl' Localized Forms in Latin lookup 12 subtable" guillemotleft.lat
AlternateSubs2: "'salt' Stylistic Alternatives in Latin lookup 9 subtable" guillemotleft.lat
Substitution2: "'locl' Localized Forms in Greek lookup 4 subtable" guillemotleft.gr
AlternateSubs2: "'salt' Stylistic Alternatives in Greek lookup 3 subtable" guillemotleft.gr
EndChar

StartChar: logicalnot
Encoding: 172 172 110
Width: 525
GlyphClass: 2
Flags: W
TeX: 430 0
LayerCount: 2
Fore
SplineSet
43 325 m 128,-1,1
 43 332 43 332 45.5 339 c 128,-1,2
 48 346 48 346 58 353 c 128,-1,3
 68 360 68 360 84 360 c 2,4,-1
 437 360 l 2,5,6
 448 360 448 360 455.5 358.5 c 128,-1,7
 463 357 463 357 471.5 346.5 c 128,-1,8
 480 336 480 336 480 316 c 2,9,-1
 480 81 l 2,10,11
 480 37 480 37 445 37 c 0,12,13
 409 37 409 37 410 82 c 2,14,-1
 410 290 l 1,15,-1
 84 290 l 2,16,17
 67 290 67 290 57 297.5 c 128,-1,18
 47 305 47 305 45 311.5 c 128,-1,0
 43 318 43 318 43 325 c 128,-1,1
EndSplineSet
EndChar

StartChar: uni00AD
Encoding: 173 173 111
Width: 525
GlyphClass: 2
Flags: W
TeX: 430 0
LayerCount: 2
Fore
SplineSet
175 216 m 0,0,1
 175 246 175 246 210 246 c 2,2,-1
 313 246 l 2,3,4
 349 246 349 246 349 215 c 0,5,6
 349 185 349 185 313 185 c 2,7,-1
 211 185 l 2,8,9
 175 185 175 185 175 216 c 0,0,1
EndSplineSet
EndChar

StartChar: registered
Encoding: 174 174 112
Width: 525
GlyphClass: 2
Flags: W
TeX: 694 222
LayerCount: 2
Fore
SplineSet
-75 236 m 0,0,1
 -75 362 -75 362 -31 469.5 c 128,-1,2
 13 577 13 577 91 641 c 128,-1,3
 169 705 169 705 263 705 c 0,4,5
 402 705 402 705 501 569 c 128,-1,6
 600 433 600 433 600 236 c 0,7,8
 600 38 600 38 501 -97.5 c 128,-1,9
 402 -233 402 -233 264 -233 c 0,10,11
 122 -233 122 -233 23.5 -96.5 c 128,-1,12
 -75 40 -75 40 -75 236 c 0,0,1
-5 237 m 0,13,14
 -5 70 -5 70 73 -47 c 128,-1,15
 151 -164 151 -164 262 -164 c 0,16,17
 368 -164 368 -164 449 -50.5 c 128,-1,18
 530 63 530 63 530 235 c 0,19,20
 530 411 530 411 448 523.5 c 128,-1,21
 366 636 366 636 263 636 c 0,22,23
 157 636 157 636 76 522.5 c 128,-1,24
 -5 409 -5 409 -5 237 c 0,13,14
54 31 m 128,-1,26
 54 62 54 62 91 62 c 2,27,-1
 115 62 l 1,28,-1
 115 366 l 1,29,-1
 91 366 l 2,30,31
 54 366 54 366 54 397 c 0,32,33
 54 427 54 427 92 427 c 2,34,-1
 213 427 l 2,35,36
 216 427 216 427 223 427.5 c 128,-1,37
 230 428 230 428 234 428 c 0,38,39
 318 428 318 428 360.5 389.5 c 128,-1,40
 403 351 403 351 403 306 c 0,41,42
 403 246 403 246 345 211 c 1,43,44
 378 178 378 178 378 133 c 2,45,-1
 378 97 l 2,46,47
 378 52 378 52 395 52 c 0,48,49
 403 52 403 52 405 62.5 c 128,-1,50
 407 73 407 73 407 85 c 128,-1,51
 407 97 407 97 416 107.5 c 128,-1,52
 425 118 425 118 444 118 c 2,53,-1
 446 118 l 2,54,55
 460 118 460 118 469 110 c 128,-1,56
 478 102 478 102 478 87 c 0,57,58
 478 52 478 52 458 20.5 c 128,-1,59
 438 -11 438 -11 398 -11 c 0,60,61
 365 -11 365 -11 336.5 12.5 c 128,-1,62
 308 36 308 36 308 95 c 2,63,-1
 308 134 l 2,64,65
 308 154 308 154 294 166 c 0,66,67
 274 183 274 183 227 183 c 2,68,-1
 185 183 l 1,69,-1
 185 62 l 1,70,-1
 211 62 l 2,71,72
 246 62 246 62 246 31 c 128,-1,73
 246 0 246 0 210 0 c 2,74,-1
 90 0 l 2,75,25
 54 0 54 0 54 31 c 128,-1,26
185 245 m 1,76,-1
 220 245 l 2,77,78
 273 245 273 245 300 260 c 0,79,80
 333 277 333 277 333 305 c 0,81,82
 333 327 333 327 306.5 346.5 c 128,-1,83
 280 366 280 366 227 366 c 2,84,-1
 185 366 l 1,85,-1
 185 245 l 1,76,-1
EndSplineSet
EndChar

StartChar: macron
Encoding: 175 175 113
Width: 525
GlyphClass: 2
Flags: W
TeX: 610 0
LayerCount: 2
Fore
SplineSet
72 590 m 0,0,1
 72 622 72 622 107 622 c 2,2,-1
 417 622 l 2,3,4
 451 622 451 622 451 590 c 0,5,6
 451 559 451 559 415 559 c 2,7,-1
 106 559 l 2,8,9
 72 560 72 560 72 590 c 0,0,1
EndSplineSet
EndChar

StartChar: degree
Encoding: 176 176 114
Width: 525
GlyphClass: 2
Flags: W
TeX: 610 0
LayerCount: 2
Fore
SplineSet
112 461 m 0,0,1
 112 522 112 522 155.5 566.5 c 128,-1,2
 199 611 199 611 262 611 c 0,3,4
 326 611 326 611 368.5 566 c 128,-1,5
 411 521 411 521 411 461 c 0,6,7
 411 400 411 400 368 355.5 c 128,-1,8
 325 311 325 311 262 311 c 0,9,10
 202 311 202 311 157 354 c 128,-1,11
 112 397 112 397 112 461 c 0,0,1
182 461 m 0,12,13
 182 427 182 427 206 404 c 128,-1,14
 230 381 230 381 262 381 c 0,15,16
 296 381 296 381 319 405 c 128,-1,17
 342 429 342 429 342 461 c 0,18,19
 342 495 342 495 318 518 c 128,-1,20
 294 541 294 541 262 541 c 128,-1,21
 230 541 230 541 206 518.5 c 128,-1,22
 182 496 182 496 182 461 c 0,12,13
EndSplineSet
EndChar

StartChar: plusminus
Encoding: 177 177 115
Width: 525
GlyphClass: 2
Flags: W
TeX: 525 -80
LayerCount: 2
Fore
SplineSet
37 172 m 0,0,1
 37 198 37 198 63 205 c 0,2,3
 70 207 70 207 85 207 c 2,4,-1
 227 207 l 1,5,-1
 227 327 l 1,6,-1
 81 327 l 2,7,8
 63 327 63 327 52.5 334 c 128,-1,9
 42 341 42 341 39.5 348 c 128,-1,10
 37 355 37 355 37 362 c 0,11,12
 37 375 37 375 46.5 385 c 128,-1,13
 56 395 56 395 70 396 c 0,14,15
 77 397 77 397 90 397 c 2,16,-1
 227 397 l 1,17,-1
 227 543 l 2,18,19
 227 561 227 561 234.5 571.5 c 128,-1,20
 242 582 242 582 248.5 584 c 128,-1,21
 255 586 255 586 262 586 c 0,22,23
 276 586 276 586 285.5 576.5 c 128,-1,24
 295 567 295 567 296 553 c 0,25,26
 297 546 297 546 297 533 c 2,27,-1
 297 397 l 1,28,-1
 443 397 l 2,29,30
 486 397 486 397 486 362 c 0,31,32
 486 348 486 348 476.5 338 c 128,-1,33
 467 328 467 328 453 327 c 2,34,-1
 297 327 l 1,35,-1
 297 207 l 1,36,-1
 440 207 l 2,37,38
 456 207 456 207 463 204 c 0,39,40
 486 196 486 196 486 171 c 0,41,42
 486 165 486 165 484 158.5 c 128,-1,43
 482 152 482 152 472 144.5 c 128,-1,44
 462 137 462 137 445 137 c 2,45,-1
 77 137 l 2,46,47
 58 137 58 137 47.5 147 c 128,-1,48
 37 157 37 157 37 172 c 0,0,1
EndSplineSet
EndChar

StartChar: twosuperior
Encoding: 178 178 116
Width: 525
GlyphClass: 2
Flags: W
TeX: 694 0
LayerCount: 2
Fore
SplineSet
59 336 m 0,0,1
 59 342 59 342 61 347 c 128,-1,2
 63 352 63 352 64.5 355 c 128,-1,3
 66 358 66 358 71 361.5 c 128,-1,4
 76 365 76 365 78 366 c 128,-1,5
 80 367 80 367 87 370 c 128,-1,6
 94 373 94 373 95 374 c 0,7,8
 134 393 134 393 198 423 c 0,9,10
 339 491 339 491 367 514 c 256,11,12
 395 537 395 537 395 567 c 0,13,14
 395 644 395 644 235 644 c 0,15,16
 175 644 175 644 143 630 c 1,17,18
 148 620 148 620 148 609 c 0,19,20
 148 590 148 590 135.5 577.5 c 128,-1,21
 123 565 123 565 104 565 c 128,-1,22
 85 565 85 565 72 578 c 128,-1,23
 59 591 59 591 59 612 c 0,24,25
 59 652 59 652 94 677 c 0,26,27
 134 705 134 705 244 705 c 0,28,29
 310 705 310 705 356.5 691.5 c 128,-1,30
 403 678 403 678 425 656 c 128,-1,31
 447 634 447 634 456 612 c 128,-1,32
 465 590 465 590 465 566 c 0,33,34
 465 546 465 546 460.5 529 c 128,-1,35
 456 512 456 512 442 496.5 c 128,-1,36
 428 481 428 481 417.5 470.5 c 128,-1,37
 407 460 407 460 379 445 c 128,-1,38
 351 430 351 430 335.5 422 c 128,-1,39
 320 414 320 414 279.5 395 c 128,-1,40
 239 376 239 376 219 367 c 1,41,-1
 395 367 l 1,42,-1
 395 379 l 2,43,44
 395 414 395 414 430 414 c 2,45,-1
 433 414 l 2,46,47
 465 414 465 414 465 378 c 2,48,-1
 465 339 l 2,49,50
 466 321 466 321 456 313 c 128,-1,51
 446 305 446 305 428 305 c 2,52,-1
 97 305 l 2,53,54
 59 305 59 305 59 336 c 0,0,1
EndSplineSet
EndChar

StartChar: threesuperior
Encoding: 179 179 117
Width: 525
GlyphClass: 2
Flags: W
TeX: 694 0
LayerCount: 2
Fore
SplineSet
49 383 m 0,0,1
 49 403 49 403 62 415.5 c 128,-1,2
 75 428 75 428 93 428 c 0,3,4
 112 428 112 428 125 415.5 c 128,-1,5
 138 403 138 403 138 383 c 0,6,7
 138 376 138 376 137 372 c 1,8,9
 169 362 169 362 249 362 c 2,10,-1
 263 362 l 2,11,12
 321 362 321 362 362.5 379.5 c 128,-1,13
 404 397 404 397 404 421 c 0,14,15
 404 446 404 446 361 465 c 0,16,17
 323 482 323 482 263 482 c 2,18,-1
 238 482 l 2,19,20
 196 482 196 482 196 512 c 0,21,22
 196 530 196 530 209.5 537.5 c 128,-1,23
 223 545 223 545 241.5 545.5 c 128,-1,24
 260 546 260 546 287.5 549 c 128,-1,25
 315 552 315 552 335 561 c 0,26,27
 371 577 371 577 371 601 c 0,28,29
 371 619 371 619 339.5 631.5 c 128,-1,30
 308 644 308 644 270 644 c 0,31,32
 201 644 201 644 162 608 c 1,33,34
 171 593 171 593 171 580 c 0,35,36
 171 560 171 560 158 548 c 128,-1,37
 145 536 145 536 127 536 c 0,38,39
 112 536 112 536 97 547 c 128,-1,40
 82 558 82 558 82 582 c 0,41,42
 82 637 82 637 134 671 c 128,-1,43
 186 705 186 705 269 705 c 0,44,45
 340 705 340 705 391 678 c 128,-1,46
 442 651 442 651 442 603 c 0,47,48
 442 550 442 550 391 518 c 1,49,-1
 391 517 l 1,50,51
 409 510 409 510 425 500.5 c 128,-1,52
 441 491 441 491 458 469 c 128,-1,53
 475 447 475 447 475 421 c 0,54,55
 475 375 475 375 422.5 337.5 c 128,-1,56
 370 300 370 300 258 300 c 2,57,-1
 247 300 l 2,58,59
 188 300 188 300 148 305.5 c 128,-1,60
 108 311 108 311 78.5 330 c 128,-1,61
 49 349 49 349 49 383 c 0,0,1
EndSplineSet
EndChar

StartChar: acute
Encoding: 180 180 118
Width: 525
GlyphClass: 2
Flags: W
TeX: 610 0
LayerCount: 2
Fore
SplineSet
202 546 m 0,0,1
 202 550 202 550 203 554 c 128,-1,2
 204 558 204 558 206.5 561 c 128,-1,3
 209 564 209 564 210.5 566 c 128,-1,4
 212 568 212 568 216 570 c 128,-1,5
 220 572 220 572 221 573 c 128,-1,6
 222 574 222 574 227 576 c 2,7,-1
 232 578 l 1,8,9
 372 639 372 639 378 639 c 2,10,-1
 380 639 l 2,11,12
 393 639 393 639 404 629 c 128,-1,13
 415 619 415 619 415 604 c 0,14,15
 415 580 415 580 385 568 c 0,16,17
 243 506 243 506 236 506 c 0,18,19
 221 506 221 506 211.5 519.5 c 128,-1,20
 202 533 202 533 202 546 c 0,0,1
EndSplineSet
EndChar

StartChar: uni00B5
Encoding: 181 181 119
Width: 525
GlyphClass: 2
Flags: W
TeX: 430 222
LayerCount: 2
Fore
SplineSet
11 -191 m 128,-1,1
 11 -160 11 -160 48 -160 c 2,2,3
 48 -160 48 -160 96 -160 c 1,4,-1
 96 369 l 1,5,-1
 50 369 l 2,6,7
 11 369 11 369 11 399 c 0,8,9
 11 430 11 430 47 430 c 2,10,-1
 129 430 l 2,11,12
 147 430 147 430 155.5 423 c 128,-1,13
 164 416 164 416 165 409.5 c 128,-1,14
 166 403 166 403 166 390 c 2,15,-1
 166 120 l 2,16,17
 166 104 166 104 167.5 96.5 c 128,-1,18
 169 89 169 89 175.5 77.5 c 128,-1,19
 182 66 182 66 199.5 61 c 128,-1,20
 217 56 217 56 245 56 c 0,21,22
 293 56 293 56 323 80.5 c 128,-1,23
 353 105 353 105 357 136 c 0,24,25
 358 145 358 145 358 162 c 2,26,-1
 358 369 l 1,27,-1
 317 369 l 2,28,29
 297 369 297 369 292 371 c 0,30,31
 273 378 273 378 273 399 c 0,32,33
 273 406 273 406 275 412 c 128,-1,34
 277 418 277 418 286 424 c 128,-1,35
 295 430 295 430 309 430 c 2,36,-1
 393 430 l 2,37,38
 428 430 428 430 428 394 c 2,39,-1
 428 62 l 1,40,-1
 475 62 l 2,41,42
 513 62 513 62 513 31 c 128,-1,43
 513 0 513 0 476 0 c 2,44,-1
 394 0 l 2,45,46
 359 0 359 0 358 32 c 1,47,48
 304 -5 304 -5 239 -5 c 0,49,50
 192 -5 192 -5 166 5 c 1,51,-1
 166 -160 l 1,52,-1
 214 -160 l 2,53,54
 251 -160 251 -160 251 -191 c 128,-1,55
 251 -222 251 -222 215 -222 c 2,56,-1
 47 -222 l 2,57,0
 11 -222 11 -222 11 -191 c 128,-1,1
EndSplineSet
EndChar

StartChar: paragraph
Encoding: 182 182 120
Width: 525
GlyphClass: 2
Flags: W
TeX: 610 222
LayerCount: 2
Fore
SplineSet
47 385 m 0,0,1
 47 474 47 474 108 542.5 c 128,-1,2
 169 611 169 611 267 611 c 2,3,-1
 458 611 l 2,4,5
 475 611 475 611 485.5 603.5 c 128,-1,6
 496 596 496 596 498 589.5 c 128,-1,7
 500 583 500 583 500 576 c 0,8,9
 500 541 500 541 456 541 c 2,10,-1
 429 541 l 1,11,-1
 429 -153 l 1,12,-1
 457 -153 l 2,13,14
 500 -153 500 -153 500 -187 c 0,15,16
 500 -222 500 -222 457 -222 c 2,17,-1
 198 -222 l 2,18,19
 182 -222 182 -222 172 -214.5 c 128,-1,20
 162 -207 162 -207 160 -200.5 c 128,-1,21
 158 -194 158 -194 158 -187 c 0,22,23
 158 -153 158 -153 203 -153 c 2,24,-1
 230 -153 l 1,25,-1
 230 162 l 1,26,27
 150 176 150 176 98.5 239 c 128,-1,28
 47 302 47 302 47 385 c 0,0,1
299 -153 m 1,29,-1
 359 -153 l 1,30,-1
 359 541 l 1,31,-1
 299 541 l 1,32,-1
 299 -153 l 1,29,-1
EndSplineSet
EndChar

StartChar: periodcentered
Encoding: 183 183 121
Width: 525
GlyphClass: 2
Flags: W
TeX: 430 0
LayerCount: 2
Fore
SplineSet
212 219 m 0,0,1
 212 241 212 241 227 255 c 128,-1,2
 242 269 242 269 262 269 c 0,3,4
 284 269 284 269 298 254 c 128,-1,5
 312 239 312 239 312 219 c 0,6,7
 312 200 312 200 297.5 184.5 c 128,-1,8
 283 169 283 169 262 169 c 0,9,10
 240 169 240 169 226 184 c 128,-1,11
 212 199 212 199 212 219 c 0,0,1
EndSplineSet
EndChar

StartChar: cedilla
Encoding: 184 184 122
Width: 525
GlyphClass: 2
Flags: W
TeX: 0 194
LayerCount: 2
Fore
SplineSet
128 -178 m 0,0,1
 128 -147 128 -147 164 -147 c 2,2,3
 164 -147 164 -147 191 -147 c 0,4,5
 324 -143 324 -143 324 -108 c 0,6,7
 324 -99 324 -99 316 -86 c 1,8,9
 301 -75 301 -75 287.5 -71 c 128,-1,10
 274 -67 274 -67 262 -66.5 c 128,-1,11
 250 -66 250 -66 247 -65 c 0,12,13
 226 -58 226 -58 226 -23 c 2,14,-1
 226 9 l 2,15,16
 226 24 226 24 227 32 c 128,-1,17
 228 40 228 40 236 48.5 c 128,-1,18
 244 57 244 57 259 57 c 2,19,-1
 262 57 l 2,20,21
 279 57 279 57 287.5 48 c 128,-1,22
 296 39 296 39 296.5 33 c 128,-1,23
 297 27 297 27 297 15 c 2,24,-1
 297 -9 l 1,25,26
 329 -16 329 -16 350.5 -29 c 128,-1,27
 372 -42 372 -42 380.5 -58 c 128,-1,28
 389 -74 389 -74 392 -85 c 128,-1,29
 395 -96 395 -96 395 -107 c 0,30,31
 395 -142 395 -142 374.5 -164 c 128,-1,32
 354 -186 354 -186 314.5 -195 c 128,-1,33
 275 -204 275 -204 246.5 -206 c 128,-1,34
 218 -208 218 -208 173 -208 c 2,35,-1
 161 -208 l 2,36,37
 147 -208 147 -208 137.5 -199.5 c 128,-1,38
 128 -191 128 -191 128 -178 c 0,0,1
EndSplineSet
EndChar

StartChar: onesuperior
Encoding: 185 185 123
Width: 525
GlyphClass: 2
Flags: W
TeX: 694 0
LayerCount: 2
Fore
SplineSet
89 571 m 128,-1,1
 89 602 89 602 125 602 c 0,2,3
 207 608 207 608 252 682 c 0,4,5
 265 705 265 705 283 705 c 0,6,7
 313 705 313 705 313 665 c 2,8,-1
 313 367 l 1,9,-1
 407 367 l 2,10,11
 442 367 442 367 442 336 c 0,12,13
 442 306 442 306 408 305 c 2,14,-1
 132 305 l 2,15,16
 114 305 114 305 106 314.5 c 128,-1,17
 98 324 98 324 98 336 c 0,18,19
 98 367 98 367 135 367 c 2,20,-1
 243 367 l 1,21,-1
 243 583 l 1,22,23
 183 540 183 540 127 540 c 0,24,0
 89 540 89 540 89 571 c 128,-1,1
EndSplineSet
EndChar

StartChar: ordmasculine
Encoding: 186 186 124
Width: 525
GlyphClass: 2
Flags: W
TeX: 694 0
LayerCount: 2
Fore
SplineSet
34 247 m 0,0,1
 34 272 34 272 61 277 c 0,2,3
 68 278 68 278 81 278 c 2,4,-1
 447 278 l 2,5,6
 464 278 464 278 474 272 c 0,7,8
 489 262 489 262 489 247 c 0,9,10
 489 216 489 216 450 216 c 2,11,-1
 71 216 l 2,12,13
 50 216 50 216 42 226.5 c 128,-1,14
 34 237 34 237 34 247 c 0,0,1
47 521 m 0,15,16
 47 594 47 594 109 648 c 128,-1,17
 171 702 171 702 262 702 c 0,18,19
 350 702 350 702 413.5 649.5 c 128,-1,20
 477 597 477 597 477 521 c 0,21,22
 477 446 477 446 413.5 394 c 128,-1,23
 350 342 350 342 261 342 c 0,24,25
 169 342 169 342 108 395.5 c 128,-1,26
 47 449 47 449 47 521 c 0,15,16
117 527 m 0,27,28
 117 476 117 476 160 439.5 c 128,-1,29
 203 403 203 403 262 403 c 128,-1,30
 321 403 321 403 364 439 c 128,-1,31
 407 475 407 475 407 527 c 0,32,33
 407 574 407 574 365.5 607.5 c 128,-1,34
 324 641 324 641 262 641 c 0,35,36
 205 641 205 641 161 609 c 128,-1,37
 117 577 117 577 117 527 c 0,27,28
EndSplineSet
EndChar

StartChar: guillemotright
Encoding: 187 187 125
Width: 525
GlyphClass: 2
Flags: W
TeX: 434 0
LayerCount: 2
Fore
SplineSet
78 28 m 0,0,1
 78 41 78 41 99 60 c 0,2,3
 136 94 136 94 168 123.5 c 128,-1,4
 200 153 200 153 215.5 167 c 128,-1,5
 231 181 231 181 243.5 192.5 c 128,-1,6
 256 204 256 204 262 209.5 c 128,-1,7
 268 215 268 215 273 219 c 1,8,-1
 273 220 l 1,9,10
 268 224 268 224 262 229.5 c 128,-1,11
 256 235 256 235 243.5 246.5 c 128,-1,12
 231 258 231 258 215.5 272 c 128,-1,13
 200 286 200 286 168 315.5 c 128,-1,14
 136 345 136 345 99 379 c 0,15,16
 78 398 78 398 78 411 c 0,17,18
 78 421 78 421 85 430 c 128,-1,19
 92 439 92 439 109 439 c 0,20,21
 122 439 122 439 143 420 c 2,22,-1
 331 248 l 2,23,24
 348 234 348 234 348 220 c 0,25,26
 348 208 348 208 331 191 c 2,27,-1
 143 19 l 2,28,29
 141 17 141 17 136 12.5 c 128,-1,30
 131 8 131 8 128.5 6 c 128,-1,31
 126 4 126 4 120.5 2 c 128,-1,32
 115 0 115 0 109 0 c 0,33,34
 92 0 92 0 85 9 c 128,-1,35
 78 18 78 18 78 28 c 0,0,1
210 29 m 0,36,37
 210 39 210 39 222 52 c 128,-1,38
 234 65 234 65 284 110 c 0,39,40
 335 155 335 155 371 188 c 0,41,42
 372 189 372 189 385 201 c 128,-1,43
 398 213 398 213 405 219 c 1,44,-1
 405 220 l 1,45,46
 400 224 400 224 394 229.5 c 128,-1,47
 388 235 388 235 375.5 246.5 c 128,-1,48
 363 258 363 258 347.5 272 c 128,-1,49
 332 286 332 286 300 315.5 c 128,-1,50
 268 345 268 345 231 379 c 0,51,52
 210 396 210 396 210 411 c 0,53,54
 210 420 210 420 217.5 429.5 c 128,-1,55
 225 439 225 439 241 439 c 0,56,57
 254 439 254 439 275 420 c 2,58,-1
 463 248 l 2,59,60
 480 234 480 234 480 220 c 0,61,62
 480 208 480 208 463 191 c 2,63,-1
 275 19 l 2,64,65
 273 17 273 17 268 12.5 c 128,-1,66
 263 8 263 8 260.5 6 c 128,-1,67
 258 4 258 4 252.5 2 c 128,-1,68
 247 0 247 0 241 0 c 0,69,70
 227 0 227 0 218.5 9 c 128,-1,71
 210 18 210 18 210 29 c 0,36,37
EndSplineSet
Substitution2: "'locl' Localized Forms in Latin lookup 12 subtable" guillemotright.lat
AlternateSubs2: "'salt' Stylistic Alternatives in Latin lookup 9 subtable" guillemotright.lat
Substitution2: "'locl' Localized Forms in Greek lookup 4 subtable" guillemotright.gr
AlternateSubs2: "'salt' Stylistic Alternatives in Greek lookup 3 subtable" guillemotright.gr
EndChar

StartChar: onequarter
Encoding: 188 188 126
Width: 525
GlyphClass: 2
Flags: W
TeX: 694 222
LayerCount: 2
Fore
SplineSet
-1 236 m 0,0,1
 -1 271 -1 271 44 271 c 2,2,-1
 483 271 l 2,3,4
 527 271 527 271 527 236 c 0,5,6
 527 229 527 229 524.5 222.5 c 128,-1,7
 522 216 522 216 512.5 209 c 128,-1,8
 503 202 503 202 487 202 c 2,9,-1
 40 202 l 2,10,11
 23 202 23 202 13 209 c 128,-1,12
 3 216 3 216 1 222.5 c 128,-1,13
 -1 229 -1 229 -1 236 c 0,0,1
33 -77 m 0,14,15
 33 -67 33 -67 46 -52 c 128,-1,16
 59 -37 59 -37 135 38 c 0,17,18
 184 87 184 87 217 120 c 0,19,20
 228 131 228 131 232.5 134.5 c 128,-1,21
 237 138 237 138 247 141.5 c 128,-1,22
 257 145 257 145 272 145 c 2,23,-1
 321 145 l 2,24,25
 357 145 357 145 357 106 c 2,26,-1
 357 -64 l 1,27,-1
 459 -64 l 2,28,29
 475 -64 475 -64 483.5 -73 c 128,-1,30
 492 -82 492 -82 492 -94 c 0,31,32
 492 -125 492 -125 455 -125 c 2,33,-1
 357 -125 l 1,34,-1
 357 -160 l 1,35,-1
 437 -160 l 2,36,37
 471 -160 471 -160 471 -191 c 0,38,39
 471 -221 471 -221 438 -222 c 2,40,-1
 216 -222 l 2,41,42
 201 -221 201 -221 193 -212.5 c 128,-1,43
 185 -204 185 -204 185 -192 c 0,44,45
 185 -185 185 -185 187 -179 c 128,-1,46
 189 -173 189 -173 198 -166.5 c 128,-1,47
 207 -160 207 -160 221 -160 c 2,48,-1
 300 -160 l 1,49,-1
 300 -125 l 1,50,-1
 75 -125 l 2,51,52
 50 -125 50 -125 42 -117.5 c 128,-1,53
 34 -110 34 -110 34 -83 c 0,54,55
 34 -82 34 -82 33.5 -80 c 128,-1,56
 33 -78 33 -78 33 -77 c 0,14,15
90 604 m 0,57,58
 90 623 90 623 105.5 630 c 128,-1,59
 121 637 121 637 142.5 636.5 c 128,-1,60
 164 636 164 636 196 648 c 128,-1,61
 228 660 228 660 253 687 c 0,62,63
 271 705 271 705 285 705 c 0,64,65
 314 705 314 705 314 665 c 2,66,-1
 314 402 l 1,67,-1
 407 402 l 2,68,69
 443 402 443 402 443 372 c 0,70,71
 443 341 443 341 409 340 c 2,72,-1
 135 340 l 2,73,74
 116 340 116 340 107.5 349.5 c 128,-1,75
 99 359 99 359 99 371 c 0,76,77
 99 402 99 402 136 402 c 2,78,-1
 244 402 l 1,79,-1
 244 603 l 1,80,81
 182 573 182 573 131 573 c 1,82,-1
 109 575 l 1,83,84
 90 582 90 582 90 604 c 0,57,58
118 -64 m 1,85,-1
 300 -64 l 1,86,-1
 300 119 l 1,87,-1
 118 -64 l 1,85,-1
EndSplineSet
EndChar

StartChar: onehalf
Encoding: 189 189 127
Width: 525
GlyphClass: 2
Flags: W
TeX: 694 222
LayerCount: 2
Fore
SplineSet
-1 236 m 0,0,1
 -1 271 -1 271 44 271 c 2,2,-1
 483 271 l 2,3,4
 527 271 527 271 527 236 c 0,5,6
 527 229 527 229 524.5 222.5 c 128,-1,7
 522 216 522 216 512.5 209 c 128,-1,8
 503 202 503 202 487 202 c 2,9,-1
 40 202 l 2,10,11
 23 202 23 202 13 209 c 128,-1,12
 3 216 3 216 1 222.5 c 128,-1,13
 -1 229 -1 229 -1 236 c 0,0,1
60 67 m 0,14,15
 60 141 60 141 207 143 c 2,16,-1
 241 143 l 2,17,18
 322 143 322 143 374.5 129.5 c 128,-1,19
 427 116 427 116 451 77 c 0,20,21
 466 53 466 53 466 21 c 0,22,23
 466 1 466 1 461 -15.5 c 128,-1,24
 456 -32 456 -32 443 -46 c 128,-1,25
 430 -60 430 -60 418.5 -70 c 128,-1,26
 407 -80 407 -80 381.5 -92.5 c 128,-1,27
 356 -105 356 -105 339.5 -112.5 c 128,-1,28
 323 -120 323 -120 286.5 -135.5 c 128,-1,29
 250 -151 250 -151 229 -160 c 1,30,-1
 396 -160 l 1,31,-1
 396 -148 l 2,32,33
 396 -113 396 -113 430 -113 c 2,34,-1
 434 -113 l 2,35,36
 466 -113 466 -113 466 -155 c 2,37,-1
 466 -188 l 2,38,39
 467 -206 467 -206 457 -214 c 128,-1,40
 447 -222 447 -222 429 -222 c 2,41,-1
 97 -222 l 2,42,43
 60 -222 60 -222 60 -191 c 0,44,45
 60 -176 60 -176 69 -169 c 0,46,47
 81 -161 81 -161 242 -89 c 0,48,49
 261 -81 261 -81 279 -73 c 0,50,51
 281 -72 281 -72 296 -66 c 128,-1,52
 311 -60 311 -60 321 -55.5 c 128,-1,53
 331 -51 331 -51 346.5 -42 c 128,-1,54
 362 -33 362 -33 371.5 -24.5 c 128,-1,55
 381 -16 381 -16 388.5 -4 c 128,-1,56
 396 8 396 8 396 21 c 0,57,58
 396 54 396 54 359.5 66.5 c 128,-1,59
 323 79 323 79 254 81 c 2,60,-1
 220 81 l 2,61,62
 183 81 183 81 148 76 c 0,63,64
 148 75 148 75 148.5 71.5 c 128,-1,65
 149 68 149 68 149 66 c 0,66,67
 149 46 149 46 136 34 c 128,-1,68
 123 22 123 22 104 22 c 0,69,70
 87 22 87 22 73.5 34 c 128,-1,71
 60 46 60 46 60 67 c 0,14,15
90 604 m 0,72,73
 90 623 90 623 105.5 630 c 128,-1,74
 121 637 121 637 142.5 636.5 c 128,-1,75
 164 636 164 636 196 648 c 128,-1,76
 228 660 228 660 253 687 c 0,77,78
 271 705 271 705 285 705 c 0,79,80
 314 705 314 705 314 665 c 2,81,-1
 314 402 l 1,82,-1
 407 402 l 2,83,84
 443 402 443 402 443 372 c 0,85,86
 443 341 443 341 409 340 c 2,87,-1
 135 340 l 2,88,89
 116 340 116 340 107.5 349.5 c 128,-1,90
 99 359 99 359 99 371 c 0,91,92
 99 402 99 402 136 402 c 2,93,-1
 244 402 l 1,94,-1
 244 603 l 1,95,96
 182 573 182 573 131 573 c 1,97,-1
 109 575 l 1,98,99
 90 582 90 582 90 604 c 0,72,73
EndSplineSet
EndChar

StartChar: threequarters
Encoding: 190 190 128
Width: 525
GlyphClass: 2
Flags: W
TeX: 694 222
LayerCount: 2
Fore
SplineSet
-1 236 m 0,0,1
 -1 271 -1 271 44 271 c 2,2,-1
 483 271 l 2,3,4
 527 271 527 271 527 236 c 0,5,6
 527 229 527 229 524.5 222.5 c 128,-1,7
 522 216 522 216 512.5 209 c 128,-1,8
 503 202 503 202 487 202 c 2,9,-1
 40 202 l 2,10,11
 23 202 23 202 13 209 c 128,-1,12
 3 216 3 216 1 222.5 c 128,-1,13
 -1 229 -1 229 -1 236 c 0,0,1
33 -77 m 0,14,15
 33 -67 33 -67 46 -52 c 128,-1,16
 59 -37 59 -37 135 38 c 0,17,18
 184 87 184 87 217 120 c 0,19,20
 228 131 228 131 232.5 134.5 c 128,-1,21
 237 138 237 138 247 141.5 c 128,-1,22
 257 145 257 145 272 145 c 2,23,-1
 321 145 l 2,24,25
 357 145 357 145 357 106 c 2,26,-1
 357 -64 l 1,27,-1
 459 -64 l 2,28,29
 475 -64 475 -64 483.5 -73 c 128,-1,30
 492 -82 492 -82 492 -94 c 0,31,32
 492 -125 492 -125 455 -125 c 2,33,-1
 357 -125 l 1,34,-1
 357 -160 l 1,35,-1
 437 -160 l 2,36,37
 471 -160 471 -160 471 -191 c 0,38,39
 471 -221 471 -221 438 -222 c 2,40,-1
 216 -222 l 2,41,42
 201 -221 201 -221 193 -212.5 c 128,-1,43
 185 -204 185 -204 185 -192 c 0,44,45
 185 -185 185 -185 187 -179 c 128,-1,46
 189 -173 189 -173 198 -166.5 c 128,-1,47
 207 -160 207 -160 221 -160 c 2,48,-1
 300 -160 l 1,49,-1
 300 -125 l 1,50,-1
 75 -125 l 2,51,52
 50 -125 50 -125 42 -117.5 c 128,-1,53
 34 -110 34 -110 34 -83 c 0,54,55
 34 -82 34 -82 33.5 -80 c 128,-1,56
 33 -78 33 -78 33 -77 c 0,14,15
50 409 m 0,57,58
 50 429 50 429 63 442 c 128,-1,59
 76 455 76 455 94 455 c 128,-1,60
 112 455 112 455 125.5 442.5 c 128,-1,61
 139 430 139 430 139 409 c 0,62,63
 139 408 139 408 138.5 405 c 128,-1,64
 138 402 138 402 138 400 c 0,65,66
 177 391 177 391 239 391 c 2,67,-1
 269 391 l 2,68,69
 311 391 311 391 343.5 400.5 c 128,-1,70
 376 410 376 410 390.5 421.5 c 128,-1,71
 405 433 405 433 405 443 c 0,72,73
 405 461 405 461 366 478 c 128,-1,74
 327 495 327 495 264 495 c 2,75,-1
 232 495 l 2,76,77
 197 495 197 495 197 526 c 0,78,79
 197 548 197 548 214 554 c 128,-1,80
 231 560 231 560 268 561 c 128,-1,81
 305 562 305 562 329 570 c 0,82,83
 372 584 372 584 372 607 c 0,84,85
 370 622 370 622 339.5 633 c 128,-1,86
 309 644 309 644 263 644 c 0,87,88
 200 644 200 644 167 633 c 1,89,90
 172 620 172 620 172 611 c 0,91,92
 172 593 172 593 158.5 581 c 128,-1,93
 145 569 145 569 127 569 c 128,-1,94
 109 569 109 569 96 582 c 128,-1,95
 83 595 83 595 83 616 c 0,96,97
 83 642 83 642 100.5 664 c 128,-1,98
 118 686 118 686 153 696 c 0,99,100
 184 705 184 705 259 705 c 2,101,-1
 265 705 l 2,102,103
 341 705 341 705 392 679.5 c 128,-1,104
 443 654 443 654 443 609 c 0,105,106
 443 561 443 561 397 530 c 1,107,108
 476 498 476 498 476 443 c 0,109,110
 476 393 476 393 416.5 361 c 128,-1,111
 357 329 357 329 269 329 c 2,112,-1
 268 329 l 1,113,-1
 251 330 l 1,114,-1
 222 330 l 2,115,116
 184 331 184 331 156.5 334.5 c 128,-1,117
 129 338 129 338 103 346 c 128,-1,118
 77 354 77 354 63.5 370 c 128,-1,119
 50 386 50 386 50 409 c 0,57,58
118 -64 m 1,120,-1
 300 -64 l 1,121,-1
 300 119 l 1,122,-1
 118 -64 l 1,120,-1
EndSplineSet
EndChar

StartChar: questiondown
Encoding: 191 191 129
Width: 525
GlyphClass: 2
Flags: W
TeX: 388 222
LayerCount: 2
Fore
SplineSet
61 -103 m 0,0,1
 61 -43 61 -43 122 -4 c 0,2,3
 206 53 206 53 206 149 c 2,4,-1
 206 165 l 2,5,6
 206 178 206 178 207 184.5 c 128,-1,7
 208 191 208 191 217 198 c 128,-1,8
 226 205 226 205 244 205 c 2,9,-1
 249 205 l 2,10,11
 260 205 260 205 267 203.5 c 128,-1,12
 274 202 274 202 280 193.5 c 128,-1,13
 286 185 286 185 286 169 c 2,14,-1
 286 148 l 2,15,16
 286 109 286 109 275 76 c 128,-1,17
 264 43 264 43 244.5 19 c 128,-1,18
 225 -5 225 -5 209 -20 c 128,-1,19
 193 -35 193 -35 172.5 -49.5 c 128,-1,20
 152 -64 152 -64 149 -66 c 0,21,22
 131 -82 131 -82 131 -103 c 0,23,24
 131 -128 131 -128 156 -147 c 128,-1,25
 181 -166 181 -166 246 -166 c 0,26,27
 343 -166 343 -166 382 -131 c 1,28,-1
 382 -130 l 1,29,30
 373 -117 373 -117 373 -103 c 0,31,32
 373 -84 373 -84 386.5 -71.5 c 128,-1,33
 400 -59 400 -59 418 -59 c 0,34,35
 437 -59 437 -59 449.5 -72 c 128,-1,36
 462 -85 462 -85 462 -106 c 0,37,38
 462 -228 462 -228 242 -228 c 0,39,40
 145 -228 145 -228 103 -189.5 c 128,-1,41
 61 -151 61 -151 61 -103 c 0,0,1
196 338 m 0,42,43
 196 360 196 360 211 374 c 128,-1,44
 226 388 226 388 246 388 c 0,45,46
 268 388 268 388 282 373 c 128,-1,47
 296 358 296 358 296 338 c 0,48,49
 296 319 296 319 281.5 303.5 c 128,-1,50
 267 288 267 288 246 288 c 0,51,52
 224 288 224 288 210 303 c 128,-1,53
 196 318 196 318 196 338 c 0,42,43
EndSplineSet
EndChar

StartChar: Agrave
Encoding: 192 192 130
Width: 525
GlyphClass: 2
Flags: W
TeX: 778 0
AnchorPoint: "Anchor-5" 262 786 basechar 0
AnchorPoint: "Anchor-4" 262 0 basechar 0
LayerCount: 2
Fore
SplineSet
27 30 m 0,0,1
 27 50 27 50 44 59 c 0,2,3
 50 61 50 61 87 61 c 1,4,-1
 208 585 l 2,5,6
 212 603 212 603 220 611.5 c 128,-1,7
 228 620 228 620 236 621.5 c 128,-1,8
 244 623 244 623 262 623 c 128,-1,9
 280 623 280 623 288.5 621.5 c 128,-1,10
 297 620 297 620 304.5 611 c 128,-1,11
 312 602 312 602 316 584 c 2,12,-1
 437 61 l 1,13,14
 474 61 474 61 480 58 c 0,15,16
 497 51 497 51 497 30 c 0,17,18
 497 0 497 0 454 0 c 2,19,-1
 352 0 l 2,20,21
 339 0 339 0 332 1 c 128,-1,22
 325 2 325 2 317.5 9 c 128,-1,23
 310 16 310 16 310 30 c 0,24,25
 310 45 310 45 317.5 52 c 128,-1,26
 325 59 325 59 334.5 60 c 128,-1,27
 344 61 344 61 366 61 c 1,28,-1
 343 165 l 1,29,-1
 181 165 l 1,30,-1
 158 61 l 1,31,32
 180 61 180 61 189.5 60 c 128,-1,33
 199 59 199 59 206.5 52 c 128,-1,34
 214 45 214 45 214 30 c 0,35,36
 214 16 214 16 206.5 9 c 128,-1,37
 199 2 199 2 192 1 c 128,-1,38
 185 0 185 0 172 0 c 2,39,-1
 70 0 l 2,40,41
 27 0 27 0 27 30 c 0,0,1
115 772 m 0,42,43
 115 786 115 786 125 796.5 c 128,-1,44
 135 807 135 807 149 807 c 0,45,46
 154 807 154 807 302 757 c 0,47,48
 332 746 332 746 332 727 c 0,49,50
 332 715 332 715 324.5 700.5 c 128,-1,51
 317 686 317 686 300 686 c 2,52,-1
 299 686 l 2,53,54
 296 686 296 686 148 736 c 0,55,56
 115 748 115 748 115 772 c 0,42,43
196 226 m 1,57,-1
 328 226 l 1,58,-1
 262 540 l 1,59,-1
 196 226 l 1,57,-1
EndSplineSet
Substitution2: "'locl' Localized Forms in Latin lookup 11 subtable" Agrave.vn
AlternateSubs2: "'ss01' Style Set 1 lookup 10 subtable" Agrave.vn
AlternateSubs2: "'salt' Stylistic Alternatives in Latin lookup 9 subtable" Agrave.vn
EndChar

StartChar: Acircumflex
Encoding: 194 194 132
Width: 525
GlyphClass: 2
Flags: W
TeX: 819 0
AnchorPoint: "Anchor-5" 262 803 basechar 0
AnchorPoint: "Anchor-4" 262 0 basechar 0
LayerCount: 2
Fore
SplineSet
27 30 m 0,0,1
 27 50 27 50 44 59 c 0,2,3
 50 61 50 61 87 61 c 1,4,-1
 208 585 l 2,5,6
 212 603 212 603 220 611.5 c 128,-1,7
 228 620 228 620 236 621.5 c 128,-1,8
 244 623 244 623 262 623 c 128,-1,9
 280 623 280 623 288.5 621.5 c 128,-1,10
 297 620 297 620 304.5 611 c 128,-1,11
 312 602 312 602 316 584 c 2,12,-1
 437 61 l 1,13,14
 474 61 474 61 480 58 c 0,15,16
 497 51 497 51 497 30 c 0,17,18
 497 0 497 0 454 0 c 2,19,-1
 352 0 l 2,20,21
 339 0 339 0 332 1 c 128,-1,22
 325 2 325 2 317.5 9 c 128,-1,23
 310 16 310 16 310 30 c 0,24,25
 310 45 310 45 317.5 52 c 128,-1,26
 325 59 325 59 334.5 60 c 128,-1,27
 344 61 344 61 366 61 c 1,28,-1
 343 165 l 1,29,-1
 181 165 l 1,30,-1
 158 61 l 1,31,32
 180 61 180 61 189.5 60 c 128,-1,33
 199 59 199 59 206.5 52 c 128,-1,34
 214 45 214 45 214 30 c 0,35,36
 214 16 214 16 206.5 9 c 128,-1,37
 199 2 199 2 192 1 c 128,-1,38
 185 0 185 0 172 0 c 2,39,-1
 70 0 l 2,40,41
 27 0 27 0 27 30 c 0,0,1
89 697 m 0,42,43
 89 712 89 712 110 727 c 0,44,45
 135 745 135 745 171 772 c 0,46,47
 224 811 224 811 234 817.5 c 128,-1,48
 244 824 244 824 252 824 c 2,49,-1
 253 824 l 2,50,51
 261 824 261 824 280.5 811 c 128,-1,52
 300 798 300 798 397 726 c 0,53,54
 415 713 415 713 415 698 c 0,55,56
 415 686 415 686 403.5 672.5 c 128,-1,57
 392 659 392 659 379 659 c 2,58,-1
 377 659 l 2,59,60
 369 659 369 659 352 671.5 c 128,-1,61
 335 684 335 684 252 751 c 1,62,63
 236 739 236 739 220.5 726.5 c 128,-1,64
 205 714 205 714 195.5 706.5 c 128,-1,65
 186 699 186 699 176.5 691 c 128,-1,66
 167 683 167 683 161.5 679 c 128,-1,67
 156 675 156 675 150.5 670.5 c 128,-1,68
 145 666 145 666 142 664.5 c 128,-1,69
 139 663 139 663 135.5 661.5 c 128,-1,70
 132 660 132 660 130 659.5 c 128,-1,71
 128 659 128 659 125 659 c 0,72,73
 112 659 112 659 100.5 672 c 128,-1,74
 89 685 89 685 89 697 c 0,42,43
196 226 m 1,75,-1
 328 226 l 1,76,-1
 262 540 l 1,77,-1
 196 226 l 1,75,-1
EndSplineSet
Substitution2: "'locl' Localized Forms in Latin lookup 11 subtable" Acircumflex.vn
AlternateSubs2: "'ss01' Style Set 1 lookup 10 subtable" Acircumflex.vn
AlternateSubs2: "'salt' Stylistic Alternatives in Latin lookup 9 subtable" Acircumflex.vn
EndChar

StartChar: Aring
Encoding: 197 197 135
Width: 525
GlyphClass: 2
Flags: W
TeX: 778 0
LayerCount: 2
Fore
SplineSet
27 31 m 128,-1,1
 27 62 27 62 64 62 c 2,2,-1
 86 62 l 1,3,-1
 204 573 l 1,4,5
 136 611 136 611 136 694 c 0,6,7
 136 747 136 747 169 787 c 128,-1,8
 202 827 202 827 252 827 c 128,-1,9
 302 827 302 827 335.5 787 c 128,-1,10
 369 747 369 747 369 694 c 0,11,12
 369 621 369 621 317 584 c 1,13,-1
 437 62 l 1,14,-1
 459 62 l 2,15,16
 496 62 496 62 496 31 c 128,-1,17
 496 0 496 0 461 0 c 2,18,-1
 345 0 l 2,19,20
 309 0 309 0 309 31 c 128,-1,21
 309 62 309 62 345 62 c 2,22,-1
 365 62 l 1,23,-1
 342 164 l 1,24,-1
 182 164 l 1,25,-1
 158 62 l 1,26,-1
 179 62 l 2,27,28
 215 62 215 62 215 31 c 128,-1,29
 215 0 215 0 179 0 c 2,30,-1
 63 0 l 2,31,0
 27 0 27 0 27 31 c 128,-1,1
194 695 m 0,32,33
 194 667 194 667 211.5 645.5 c 128,-1,34
 229 624 229 624 252 624 c 0,35,36
 278 624 278 624 294 646 c 128,-1,37
 310 668 310 668 310 695 c 0,38,39
 310 727 310 727 292.5 746 c 128,-1,40
 275 765 275 765 251 765 c 0,41,42
 229 765 229 765 211.5 745.5 c 128,-1,43
 194 726 194 726 194 695 c 0,32,33
196 225 m 1,44,-1
 328 225 l 1,45,46
 265 507 265 507 262 541 c 1,47,-1
 237 411 l 1,48,-1
 196 225 l 1,44,-1
EndSplineSet
EndChar

StartChar: AE
Encoding: 198 198 136
Width: 525
GlyphClass: 2
Flags: W
TeX: 610 0
AnchorPoint: "Anchor-5" 292 622 basechar 0
AnchorPoint: "Anchor-4" 261 0 basechar 0
LayerCount: 2
Fore
SplineSet
22 31 m 128,-1,1
 22 62 22 62 58 62 c 2,2,-1
 71 62 l 1,3,-1
 169 549 l 1,4,-1
 166 549 l 2,5,6
 129 549 129 549 129 580 c 128,-1,7
 129 611 129 611 164 611 c 2,8,-1
 458 611 l 2,9,10
 491 611 491 611 491 574 c 2,11,-1
 491 490 l 2,12,13
 492 474 492 474 483.5 464.5 c 128,-1,14
 475 455 475 455 463 455 c 0,15,16
 435 455 435 455 434 488 c 2,17,-1
 434 549 l 1,18,-1
 320 549 l 1,19,-1
 320 347 l 1,20,-1
 440 347 l 2,21,22
 475 347 475 347 475 317 c 0,23,24
 475 286 475 286 439 286 c 2,25,-1
 320 286 l 1,26,-1
 320 62 l 1,27,-1
 443 62 l 1,28,-1
 443 136 l 2,29,30
 443 153 443 153 451.5 162 c 128,-1,31
 460 171 460 171 471 171 c 0,32,33
 499 171 499 171 499 134 c 2,34,-1
 499 42 l 2,35,36
 499 41 499 41 499.5 39 c 128,-1,37
 500 37 500 37 500 36 c 0,38,39
 500 0 500 0 465 0 c 2,40,-1
 259 0 l 2,41,42
 241 0 241 0 232 8.5 c 128,-1,43
 223 17 223 17 223 29 c 0,44,45
 223 62 223 62 260 62 c 2,46,-1
 263 62 l 1,47,-1
 263 183 l 1,48,-1
 153 183 l 1,49,-1
 129 62 l 1,50,-1
 138 62 l 2,51,52
 174 62 174 62 174 31 c 128,-1,53
 174 0 174 0 139 0 c 2,54,-1
 57 0 l 2,55,0
 22 0 22 0 22 31 c 128,-1,1
165 244 m 1,56,-1
 263 244 l 1,57,-1
 263 549 l 1,58,-1
 227 549 l 1,59,-1
 165 244 l 1,56,-1
EndSplineSet
EndChar

StartChar: Ccedilla
Encoding: 199 199 137
Width: 525
GlyphClass: 2
Flags: W
TeX: 610 194
AnchorPoint: "Anchor-5" 281 622 basechar 0
LayerCount: 2
Fore
SplineSet
40 306 m 0,0,1
 40 442 40 442 112 532 c 128,-1,2
 184 622 184 622 281 622 c 0,3,4
 351 622 351 622 410 573 c 1,5,6
 422 601 422 601 430.5 611.5 c 128,-1,7
 439 622 439 622 454 622 c 0,8,9
 484 622 484 622 484 582 c 2,10,-1
 484 441 l 2,11,12
 484 440 484 440 484 439 c 0,13,14
 484 428 484 428 483 421.5 c 128,-1,15
 482 415 482 415 474 407.5 c 128,-1,16
 466 400 466 400 450 400 c 0,17,18
 441 400 441 400 434.5 402 c 128,-1,19
 428 404 428 404 424.5 406.5 c 128,-1,20
 421 409 421 409 418.5 414.5 c 128,-1,21
 416 420 416 420 415 422.5 c 128,-1,22
 414 425 414 425 413 432 c 128,-1,23
 412 439 412 439 412 440 c 0,24,25
 403 486 403 486 370 523 c 128,-1,26
 337 560 337 560 285 560 c 0,27,28
 218 560 218 560 164 488 c 128,-1,29
 110 416 110 416 110 306 c 0,30,31
 110 195 110 195 163.5 123 c 128,-1,32
 217 51 217 51 286 51 c 0,33,34
 335 51 335 51 372 83.5 c 128,-1,35
 409 116 409 116 413 167 c 0,36,37
 416 202 416 202 447 202 c 2,38,-1
 451 202 l 2,39,40
 484 202 484 202 484 167 c 0,41,42
 484 110 484 110 437.5 55.5 c 128,-1,43
 391 1 391 1 313 -9 c 1,44,-1
 313 -10 l 1,45,46
 349 -18 349 -18 376 -43 c 128,-1,47
 403 -68 403 -68 403 -107 c 0,48,49
 403 -156 403 -156 360 -182 c 128,-1,50
 317 -208 317 -208 201 -208 c 2,51,-1
 195 -208 l 2,52,53
 158 -208 158 -208 158 -177 c 0,54,55
 158 -156 158 -156 178 -149 c 0,56,57
 180 -148 180 -148 223 -147 c 128,-1,58
 266 -146 266 -146 299.5 -137.5 c 128,-1,59
 333 -129 333 -129 333 -108 c 0,60,61
 333 -94 333 -94 323 -84.5 c 128,-1,62
 313 -75 313 -75 301.5 -72 c 128,-1,63
 290 -69 290 -69 277 -66.5 c 128,-1,64
 264 -64 264 -64 263 -64 c 0,65,66
 246 -56 246 -56 246 -34 c 0,67,68
 246 -20 246 -20 253 -9 c 1,69,70
 163 6 163 6 101.5 94 c 128,-1,71
 40 182 40 182 40 306 c 0,0,1
EndSplineSet
EndChar

StartChar: Ecircumflex
Encoding: 202 202 140
Width: 525
GlyphClass: 2
Flags: W
TeX: 819 0
AnchorPoint: "Anchor-5" 264 815 basechar 0
AnchorPoint: "Anchor-4" 264 0 basechar 0
LayerCount: 2
Fore
SplineSet
26 30 m 0,0,1
 26 61 26 61 67 61 c 2,2,-1
 97 61 l 1,3,-1
 97 550 l 1,4,-1
 67 550 l 2,5,6
 26 550 26 550 26 581 c 0,7,8
 26 611 26 611 67 611 c 2,9,-1
 440 611 l 2,10,11
 465 611 465 611 472.5 602.5 c 128,-1,12
 480 594 480 594 480 570 c 2,13,-1
 480 497 l 2,14,15
 480 484 480 484 479 477 c 128,-1,16
 478 470 478 470 469.5 463 c 128,-1,17
 461 456 461 456 445 456 c 0,18,19
 422 456 422 456 416.5 466.5 c 128,-1,20
 411 477 411 477 411 497 c 2,21,-1
 411 550 l 1,22,-1
 166 550 l 1,23,-1
 166 347 l 1,24,-1
 297 347 l 1,25,26
 297 372 297 372 298.5 381.5 c 128,-1,27
 300 391 300 391 307.5 397.5 c 128,-1,28
 315 404 315 404 332 404 c 0,29,30
 355 404 355 404 360.5 393.5 c 128,-1,31
 366 383 366 383 366 363 c 2,32,-1
 366 270 l 2,33,34
 366 257 366 257 365 250 c 128,-1,35
 364 243 364 243 356 236 c 128,-1,36
 348 229 348 229 332 229 c 0,37,38
 308 229 308 229 302.5 240 c 128,-1,39
 297 251 297 251 297 286 c 1,40,-1
 166 286 l 1,41,-1
 166 61 l 1,42,-1
 433 61 l 1,43,-1
 433 130 l 2,44,45
 433 143 433 143 434 150 c 128,-1,46
 435 157 435 157 443.5 164 c 128,-1,47
 452 171 452 171 468 171 c 0,48,49
 491 171 491 171 496.5 160.5 c 128,-1,50
 502 150 502 150 502 130 c 2,51,-1
 502 41 l 2,52,53
 502 17 502 17 494 8.5 c 128,-1,54
 486 0 486 0 462 0 c 2,55,-1
 67 0 l 2,56,57
 26 0 26 0 26 30 c 0,0,1
99 697 m 0,58,59
 99 712 99 712 120 727 c 0,60,61
 145 745 145 745 181 772 c 0,62,63
 234 811 234 811 244 817.5 c 128,-1,64
 254 824 254 824 262 824 c 2,65,-1
 263 824 l 2,66,67
 271 824 271 824 290.5 811 c 128,-1,68
 310 798 310 798 407 726 c 0,69,70
 425 713 425 713 425 698 c 0,71,72
 425 686 425 686 413.5 672.5 c 128,-1,73
 402 659 402 659 389 659 c 0,74,75
 379 659 379 659 362.5 671 c 128,-1,76
 346 683 346 683 287 731 c 0,77,78
 271 744 271 744 262 751 c 1,79,80
 153 665 153 665 148 662 c 0,81,82
 142 659 142 659 135 659 c 0,83,84
 122 659 122 659 110.5 672 c 128,-1,85
 99 685 99 685 99 697 c 0,58,59
EndSplineSet
Substitution2: "'locl' Localized Forms in Latin lookup 11 subtable" Ecircumflex.vn
AlternateSubs2: "'ss01' Style Set 1 lookup 10 subtable" Ecircumflex.vn
AlternateSubs2: "'salt' Stylistic Alternatives in Latin lookup 9 subtable" Ecircumflex.vn
EndChar

StartChar: Icircumflex
Encoding: 206 206 144
Width: 525
GlyphClass: 2
Flags: W
TeX: 819 0
AnchorPoint: "Anchor-5" 262 815 basechar 0
AnchorPoint: "Anchor-4" 262 0 basechar 0
LayerCount: 2
Fore
SplineSet
79 31 m 0,0,1
 79 61 79 61 120 61 c 2,2,-1
 228 61 l 1,3,-1
 228 550 l 1,4,-1
 120 550 l 2,5,6
 79 550 79 550 79 581 c 0,7,8
 79 611 79 611 120 611 c 2,9,-1
 405 611 l 2,10,11
 446 611 446 611 446 580 c 0,12,13
 446 550 446 550 405 550 c 2,14,-1
 297 550 l 1,15,-1
 297 61 l 1,16,-1
 405 61 l 2,17,18
 446 61 446 61 446 30 c 0,19,20
 446 0 446 0 405 0 c 2,21,-1
 120 0 l 2,22,23
 79 0 79 0 79 31 c 0,0,1
99 697 m 0,24,25
 99 713 99 713 119 727 c 0,26,27
 246 820 246 820 254 823 c 0,28,29
 257 824 257 824 262 824 c 2,30,-1
 263 824 l 2,31,32
 270 824 270 824 287.5 812 c 128,-1,33
 305 800 305 800 406 726 c 0,34,35
 425 712 425 712 425 698 c 0,36,37
 425 686 425 686 413.5 672.5 c 128,-1,38
 402 659 402 659 389 659 c 2,39,-1
 387 659 l 2,40,41
 379 659 379 659 362 671.5 c 128,-1,42
 345 684 345 684 262 751 c 1,43,-1
 261 751 l 1,44,45
 245 739 245 739 230 726.5 c 128,-1,46
 215 714 215 714 205 706 c 128,-1,47
 195 698 195 698 185.5 690.5 c 128,-1,48
 176 683 176 683 170.5 678.5 c 128,-1,49
 165 674 165 674 159.5 670 c 128,-1,50
 154 666 154 666 151.5 664.5 c 128,-1,51
 149 663 149 663 145.5 661.5 c 128,-1,52
 142 660 142 660 140 659.5 c 128,-1,53
 138 659 138 659 135 659 c 0,54,55
 122 659 122 659 110.5 672 c 128,-1,56
 99 685 99 685 99 697 c 0,24,25
EndSplineSet
EndChar

StartChar: Eth
Encoding: 208 208 146
Width: 525
GlyphClass: 2
Flags: W
TeX: 610 0
LayerCount: 2
Fore
SplineSet
18 30 m 0,0,1
 18 62 18 62 54 62 c 2,2,3
 54 62 54 62 81 62 c 1,4,-1
 81 269 l 1,5,-1
 55 269 l 2,6,7
 18 269 18 269 18 300 c 128,-1,8
 18 331 18 331 56 331 c 2,9,-1
 81 331 l 1,10,-1
 81 549 l 1,11,-1
 56 549 l 2,12,13
 18 549 18 549 18 580 c 128,-1,14
 18 611 18 611 55 611 c 2,15,-1
 266 611 l 2,16,17
 362 611 362 611 423.5 519.5 c 128,-1,18
 485 428 485 428 485 301 c 0,19,20
 485 177 485 177 423 88.5 c 128,-1,21
 361 0 361 0 269 0 c 2,22,-1
 52 0 l 2,23,24
 34 0 34 0 26 9.5 c 128,-1,25
 18 19 18 19 18 30 c 0,0,1
151 62 m 1,26,-1
 245 62 l 2,27,28
 302 62 302 62 342.5 101.5 c 128,-1,29
 383 141 383 141 399 192.5 c 128,-1,30
 415 244 415 244 415 300 c 0,31,32
 415 403 415 403 368.5 476 c 128,-1,33
 322 549 322 549 249 549 c 2,34,-1
 151 549 l 1,35,-1
 151 331 l 1,36,-1
 263 331 l 2,37,38
 299 331 299 331 299 300 c 128,-1,39
 299 269 299 269 259 269 c 2,40,-1
 151 269 l 1,41,-1
 151 62 l 1,26,-1
EndSplineSet
EndChar

StartChar: Ograve
Encoding: 210 210 148
Width: 525
GlyphClass: 2
Flags: W
TeX: 778 0
AnchorPoint: "Anchor-5" 262 787 basechar 0
AnchorPoint: "Anchor-4" 262 0 basechar 0
LayerCount: 2
Fore
SplineSet
56 199 m 2,0,-1
 56 412 l 2,1,2
 58 576 58 576 75 597 c 0,3,4
 96 622 96 622 258 622 c 0,5,6
 348 622 348 622 392.5 617.5 c 128,-1,7
 437 613 437 613 449 597 c 0,8,9
 463 579 463 579 468 412 c 1,10,-1
 468 199 l 2,11,12
 466 38 466 38 451 16 c 0,13,14
 441 0 441 0 400 -5.5 c 128,-1,15
 359 -11 359 -11 265 -11 c 2,16,-1
 253 -11 l 2,17,18
 95 -11 95 -11 75 13 c 0,19,20
 56 35 56 35 56 199 c 2,0,-1
126 215 m 1,21,22
 130 113 130 113 131 102 c 0,23,24
 134 78 134 78 139.5 69.5 c 128,-1,25
 145 61 145 61 170.5 55.5 c 128,-1,26
 196 50 196 50 255 50 c 2,27,-1
 279 50 l 2,28,29
 372 50 372 50 386 73 c 0,30,31
 395 88 395 88 398 215 c 2,32,-1
 398 410 l 2,33,34
 396 526 396 526 384 542 c 0,35,36
 369 560 369 560 273 560 c 2,37,-1
 251 560 l 2,38,39
 193 560 193 560 168 554 c 128,-1,40
 143 548 143 548 138 540 c 128,-1,41
 133 532 133 532 131 509 c 0,42,43
 126 452 126 452 126 357 c 2,44,-1
 126 215 l 1,21,22
132 772 m 0,45,46
 132 785 132 785 141.5 796 c 128,-1,47
 151 807 151 807 166 807 c 0,48,49
 171 807 171 807 319 757 c 0,50,51
 348 747 348 747 348 727 c 0,52,53
 348 715 348 715 340.5 700.5 c 128,-1,54
 333 686 333 686 316 686 c 2,55,-1
 315 686 l 2,56,57
 309 686 309 686 165 735 c 0,58,59
 132 746 132 746 132 772 c 0,45,46
EndSplineSet
Substitution2: "'locl' Localized Forms in Latin lookup 11 subtable" Ograve.vn
AlternateSubs2: "'ss01' Style Set 1 lookup 10 subtable" Ograve.vn
AlternateSubs2: "'salt' Stylistic Alternatives in Latin lookup 9 subtable" Ograve.vn
EndChar

StartChar: Oacute
Encoding: 211 211 149
Width: 525
GlyphClass: 2
Flags: W
TeX: 778 0
AnchorPoint: "Anchor-5" 262 787 basechar 0
AnchorPoint: "Anchor-4" 262 0 basechar 0
LayerCount: 2
Fore
SplineSet
56 199 m 2,0,-1
 56 412 l 2,1,2
 58 576 58 576 75 597 c 0,3,4
 96 622 96 622 258 622 c 0,5,6
 348 622 348 622 392.5 617.5 c 128,-1,7
 437 613 437 613 449 597 c 0,8,9
 463 579 463 579 468 412 c 1,10,-1
 468 199 l 2,11,12
 466 38 466 38 451 16 c 0,13,14
 441 0 441 0 400 -5.5 c 128,-1,15
 359 -11 359 -11 265 -11 c 2,16,-1
 253 -11 l 2,17,18
 95 -11 95 -11 75 13 c 0,19,20
 56 35 56 35 56 199 c 2,0,-1
126 215 m 1,21,22
 130 113 130 113 131 102 c 0,23,24
 134 78 134 78 139.5 69.5 c 128,-1,25
 145 61 145 61 170.5 55.5 c 128,-1,26
 196 50 196 50 255 50 c 2,27,-1
 279 50 l 2,28,29
 372 50 372 50 386 73 c 0,30,31
 395 88 395 88 398 215 c 2,32,-1
 398 410 l 2,33,34
 396 526 396 526 384 542 c 0,35,36
 369 560 369 560 274 560 c 2,37,-1
 251 560 l 2,38,39
 193 560 193 560 168 554 c 128,-1,40
 143 548 143 548 138 540 c 128,-1,41
 133 532 133 532 131 509 c 0,42,43
 126 452 126 452 126 357 c 2,44,-1
 126 215 l 1,21,22
176 727 m 0,45,46
 176 737 176 737 182.5 744 c 128,-1,47
 189 751 189 751 193.5 753 c 128,-1,48
 198 755 198 755 208 758 c 0,49,50
 352 807 352 807 358 807 c 0,51,52
 371 807 371 807 381.5 797 c 128,-1,53
 392 787 392 787 392 772 c 0,54,55
 392 746 392 746 360 736 c 0,56,57
 212 686 212 686 208 686 c 0,58,59
 191 686 191 686 183.5 700.5 c 128,-1,60
 176 715 176 715 176 727 c 0,45,46
EndSplineSet
Substitution2: "'locl' Localized Forms in Latin lookup 11 subtable" Oacute.vn
AlternateSubs2: "'ss01' Style Set 1 lookup 10 subtable" Oacute.vn
AlternateSubs2: "'salt' Stylistic Alternatives in Latin lookup 9 subtable" Oacute.vn
EndChar

StartChar: Ocircumflex
Encoding: 212 212 150
Width: 525
GlyphClass: 2
Flags: W
TeX: 819 0
AnchorPoint: "Anchor-5" 262 804 basechar 0
AnchorPoint: "Anchor-4" 262 0 basechar 0
LayerCount: 2
Fore
SplineSet
56 305 m 128,-1,1
 56 383 56 383 58 429.5 c 128,-1,2
 60 476 60 476 69 515.5 c 128,-1,3
 78 555 78 555 89.5 573 c 128,-1,4
 101 591 101 591 127 603.5 c 128,-1,5
 153 616 153 616 182 619 c 128,-1,6
 211 622 211 622 262 622 c 0,7,8
 300 622 300 622 324.5 620.5 c 128,-1,9
 349 619 349 619 372 613 c 128,-1,10
 395 607 395 607 408.5 598.5 c 128,-1,11
 422 590 422 590 434 571.5 c 128,-1,12
 446 553 446 553 451.5 532.5 c 128,-1,13
 457 512 457 512 461.5 476.5 c 128,-1,14
 466 441 466 441 467 402 c 128,-1,15
 468 363 468 363 468 305 c 0,16,17
 468 227 468 227 466 180.5 c 128,-1,18
 464 134 464 134 455 95 c 128,-1,19
 446 56 446 56 434.5 38 c 128,-1,20
 423 20 423 20 397 7.5 c 128,-1,21
 371 -5 371 -5 341.5 -8 c 128,-1,22
 312 -11 312 -11 262 -11 c 0,23,24
 211 -11 211 -11 182 -8 c 128,-1,25
 153 -5 153 -5 127 7.5 c 128,-1,26
 101 20 101 20 89.5 38 c 128,-1,27
 78 56 78 56 69 95 c 128,-1,28
 60 134 60 134 58 180.5 c 128,-1,0
 56 227 56 227 56 305 c 128,-1,1
99 697 m 0,29,30
 99 712 99 712 120 727 c 0,31,32
 145 745 145 745 181 772 c 0,33,34
 234 811 234 811 244 817.5 c 128,-1,35
 254 824 254 824 262 824 c 2,36,-1
 264 824 l 2,37,38
 271 824 271 824 288.5 812 c 128,-1,39
 306 800 306 800 407 726 c 0,40,41
 425 713 425 713 425 698 c 0,42,43
 425 686 425 686 413.5 672.5 c 128,-1,44
 402 659 402 659 389 659 c 2,45,-1
 388 659 l 2,46,47
 380 659 380 659 363 671.5 c 128,-1,48
 346 684 346 684 263 751 c 1,49,-1
 262 751 l 1,50,51
 246 739 246 739 230.5 726.5 c 128,-1,52
 215 714 215 714 205.5 706.5 c 128,-1,53
 196 699 196 699 186.5 691 c 128,-1,54
 177 683 177 683 171.5 679 c 128,-1,55
 166 675 166 675 160.5 670.5 c 128,-1,56
 155 666 155 666 152 664.5 c 128,-1,57
 149 663 149 663 145.5 661.5 c 128,-1,58
 142 660 142 660 140 659.5 c 128,-1,59
 138 659 138 659 135 659 c 0,60,61
 122 659 122 659 110.5 672 c 128,-1,62
 99 685 99 685 99 697 c 0,29,30
125 314 m 0,63,64
 125 172 125 172 137 121 c 0,65,66
 146 82 146 82 172 66 c 128,-1,67
 198 50 198 50 262 50 c 0,68,69
 327 50 327 50 353.5 67 c 128,-1,70
 380 84 380 84 388 127 c 0,71,72
 399 181 399 181 399 314 c 0,73,74
 399 450 399 450 387 497 c 0,75,76
 376 536 376 536 349 548.5 c 128,-1,77
 322 561 322 561 262 561 c 0,78,79
 198 561 198 561 171.5 547 c 128,-1,80
 145 533 145 533 136 490 c 0,81,82
 125 444 125 444 125 314 c 0,63,64
EndSplineSet
Substitution2: "'locl' Localized Forms in Latin lookup 11 subtable" Ocircumflex.vn
AlternateSubs2: "'ss01' Style Set 1 lookup 10 subtable" Ocircumflex.vn
AlternateSubs2: "'salt' Stylistic Alternatives in Latin lookup 9 subtable" Ocircumflex.vn
EndChar

StartChar: multiply
Encoding: 215 215 153
Width: 525
GlyphClass: 2
Flags: W
TeX: 525 -80
LayerCount: 2
Fore
SplineSet
93 171 m 0,0,1
 93 183 93 183 102 194 c 128,-1,2
 111 205 111 205 163 256 c 0,3,4
 193 286 193 286 213 306 c 1,5,6
 105 414 105 414 99 421.5 c 128,-1,7
 93 429 93 429 93 440 c 0,8,9
 93 455 93 455 103.5 464.5 c 128,-1,10
 114 474 114 474 128 474 c 0,11,12
 141 474 141 474 157 459.5 c 128,-1,13
 173 445 173 445 262 355 c 1,14,-1
 263 355 l 1,15,16
 371 463 371 463 377 467 c 0,17,18
 385 474 385 474 397 474 c 256,19,20
 409 474 409 474 419.5 464 c 128,-1,21
 430 454 430 454 430 440 c 0,22,23
 430 428 430 428 420.5 416.5 c 128,-1,24
 411 405 411 405 359 353 c 0,25,26
 330 324 330 324 311 305 c 1,27,28
 335 281 335 281 369 248 c 0,29,30
 414 203 414 203 422.5 193 c 128,-1,31
 431 183 431 183 431 172 c 0,32,33
 431 158 431 158 420.5 147.5 c 128,-1,34
 410 137 410 137 396 137 c 0,35,36
 384 137 384 137 371.5 147.5 c 128,-1,37
 359 158 359 158 314 204 c 0,38,39
 284 235 284 235 263 256 c 1,40,-1
 262 256 l 1,41,-1
 165 159 l 2,42,43
 143 137 143 137 128 137 c 0,44,45
 112 137 112 137 102.5 147.5 c 128,-1,46
 93 158 93 158 93 171 c 0,0,1
EndSplineSet
EndChar

StartChar: Oslash
Encoding: 216 216 154
Width: 525
GlyphClass: 2
Flags: W
TeX: 666 55
LayerCount: 2
Fore
SplineSet
56 274 m 2,0,-1
 56 325 l 2,1,2
 56 396 56 396 58.5 441 c 128,-1,3
 61 486 61 486 70 521.5 c 128,-1,4
 79 557 79 557 91 575 c 128,-1,5
 103 593 103 593 128.5 604.5 c 128,-1,6
 154 616 154 616 182 619 c 128,-1,7
 210 622 210 622 257 622 c 0,8,9
 307 622 307 622 331 620 c 1,10,11
 334 628 334 628 337 638.5 c 128,-1,12
 340 649 340 649 342 654.5 c 128,-1,13
 344 660 344 660 346.5 667.5 c 128,-1,14
 349 675 349 675 351 678 c 128,-1,15
 353 681 353 681 355.5 685 c 128,-1,16
 358 689 358 689 361 691 c 128,-1,17
 364 693 364 693 367.5 694 c 128,-1,18
 371 695 371 695 376 695 c 0,19,20
 389 695 389 695 398.5 687 c 128,-1,21
 408 679 408 679 408 666 c 0,22,23
 408 664 408 664 391 607 c 1,24,25
 437 586 437 586 451.5 534 c 128,-1,26
 466 482 466 482 468 337 c 2,27,-1
 468 286 l 2,28,29
 468 215 468 215 465.5 169.5 c 128,-1,30
 463 124 463 124 453.5 88.5 c 128,-1,31
 444 53 444 53 432 35.5 c 128,-1,32
 420 18 420 18 395 6.5 c 128,-1,33
 370 -5 370 -5 342 -8 c 128,-1,34
 314 -11 314 -11 267 -11 c 0,35,36
 218 -11 218 -11 193 -9 c 1,37,38
 180 -56 180 -56 172 -70 c 128,-1,39
 164 -84 164 -84 148 -84 c 0,40,41
 137 -84 137 -84 126.5 -76.5 c 128,-1,42
 116 -69 116 -69 116 -55 c 0,43,44
 116 -52 116 -52 133 4 c 1,45,46
 86 25 86 25 72 79.5 c 128,-1,47
 58 134 58 134 56 274 c 2,0,-1
113 265 m 2,48,49
 114 204 114 204 115.5 179 c 128,-1,50
 117 154 117 154 126.5 119.5 c 128,-1,51
 136 85 136 85 154 71 c 1,52,-1
 311 559 l 1,53,54
 303 560 303 560 262 560 c 2,55,-1
 257 560 l 2,56,57
 222 560 222 560 201 557.5 c 128,-1,58
 180 555 180 555 162.5 544.5 c 128,-1,59
 145 534 145 534 136.5 519.5 c 128,-1,60
 128 505 128 505 122 474 c 128,-1,61
 116 443 116 443 114.5 407 c 128,-1,62
 113 371 113 371 113 311 c 2,63,-1
 113 265 l 2,48,49
213 52 m 1,64,65
 229 50 229 50 262 50 c 2,66,-1
 267 50 l 2,67,68
 309 50 309 50 332.5 55.5 c 128,-1,69
 356 61 356 61 373.5 73.5 c 128,-1,70
 391 86 391 86 398 118 c 128,-1,71
 405 150 405 150 408 190 c 128,-1,72
 411 230 411 230 411 303 c 2,73,-1
 411 308 l 2,74,75
 411 433 411 433 402.5 475.5 c 128,-1,76
 394 518 394 518 371 540 c 1,77,-1
 370 540 l 1,78,-1
 213 52 l 1,64,65
EndSplineSet
EndChar

StartChar: Ucircumflex
Encoding: 219 219 157
Width: 525
GlyphClass: 2
Flags: W
TeX: 819 0
AnchorPoint: "Anchor-5" 262 815 basechar 0
AnchorPoint: "Anchor-4" 262 0 basechar 0
LayerCount: 2
Fore
SplineSet
4 581 m 0,0,1
 4 611 4 611 45 611 c 2,2,-1
 174 611 l 2,3,4
 215 611 215 611 215 581 c 0,5,6
 215 550 215 550 174 550 c 2,7,-1
 144 550 l 1,8,-1
 144 209 l 2,9,10
 144 134 144 134 180.5 92 c 128,-1,11
 217 50 217 50 262 50 c 0,12,13
 306 50 306 50 343 92.5 c 128,-1,14
 380 135 380 135 380 209 c 2,15,-1
 380 550 l 1,16,-1
 350 550 l 2,17,18
 309 550 309 550 309 581 c 0,19,20
 309 611 309 611 350 611 c 2,21,-1
 479 611 l 2,22,23
 520 611 520 611 520 581 c 0,24,25
 520 550 520 550 479 550 c 2,26,-1
 449 550 l 1,27,-1
 449 204 l 2,28,29
 449 113 449 113 393.5 51 c 128,-1,30
 338 -11 338 -11 262 -11 c 128,-1,31
 186 -11 186 -11 130.5 51 c 128,-1,32
 75 113 75 113 75 204 c 2,33,-1
 75 550 l 1,34,-1
 45 550 l 2,35,36
 4 550 4 550 4 581 c 0,0,1
99 697 m 0,37,38
 99 713 99 713 119 727 c 0,39,40
 152 751 152 751 196 783 c 0,41,42
 238 813 238 813 246.5 818.5 c 128,-1,43
 255 824 255 824 262 824 c 2,44,-1
 263 824 l 2,45,46
 270 824 270 824 287.5 812 c 128,-1,47
 305 800 305 800 406 726 c 0,48,49
 425 712 425 712 425 698 c 0,50,51
 425 686 425 686 413.5 672.5 c 128,-1,52
 402 659 402 659 389 659 c 0,53,54
 380 659 380 659 365 670 c 128,-1,55
 350 681 350 681 302 719 c 0,56,57
 277 739 277 739 262 751 c 1,58,-1
 261 751 l 1,59,60
 246 739 246 739 231.5 727.5 c 128,-1,61
 217 716 217 716 207.5 708 c 128,-1,62
 198 700 198 700 188.5 692.5 c 128,-1,63
 179 685 179 685 173.5 681 c 128,-1,64
 168 677 168 677 163 672.5 c 128,-1,65
 158 668 158 668 154.5 666 c 128,-1,66
 151 664 151 664 148.5 662.5 c 128,-1,67
 146 661 146 661 143.5 660.5 c 128,-1,68
 141 660 141 660 139.5 659.5 c 128,-1,69
 138 659 138 659 135 659 c 0,70,71
 122 659 122 659 110.5 672 c 128,-1,72
 99 685 99 685 99 697 c 0,37,38
EndSplineSet
EndChar

StartChar: Udieresis
Encoding: 220 220 158
Width: 525
GlyphClass: 2
Flags: W
TeX: 819 0
AnchorPoint: "Anchor-5" 262 810 basechar 0
AnchorPoint: "Anchor-4" 262 0 basechar 0
LayerCount: 2
Fore
SplineSet
4 581 m 0,0,1
 4 611 4 611 45 611 c 2,2,-1
 174 611 l 2,3,4
 215 611 215 611 215 581 c 0,5,6
 215 550 215 550 174 550 c 2,7,-1
 144 550 l 1,8,-1
 144 209 l 2,9,10
 144 134 144 134 180.5 92 c 128,-1,11
 217 50 217 50 262 50 c 0,12,13
 306 50 306 50 343 92.5 c 128,-1,14
 380 135 380 135 380 209 c 2,15,-1
 380 550 l 1,16,-1
 350 550 l 2,17,18
 309 550 309 550 309 581 c 0,19,20
 309 611 309 611 350 611 c 2,21,-1
 479 611 l 2,22,23
 520 611 520 611 520 581 c 0,24,25
 520 550 520 550 479 550 c 2,26,-1
 449 550 l 1,27,-1
 449 204 l 2,28,29
 449 113 449 113 393.5 51 c 128,-1,30
 338 -11 338 -11 262 -11 c 128,-1,31
 186 -11 186 -11 130.5 51 c 128,-1,32
 75 113 75 113 75 204 c 2,33,-1
 75 550 l 1,34,-1
 45 550 l 2,35,36
 4 550 4 550 4 581 c 0,0,1
109 769 m 128,-1,38
 109 790 109 790 124 804.5 c 128,-1,39
 139 819 139 819 159 819 c 128,-1,40
 179 819 179 819 194 804.5 c 128,-1,41
 209 790 209 790 209 769 c 128,-1,42
 209 748 209 748 194 733.5 c 128,-1,43
 179 719 179 719 160 719 c 0,44,45
 138 719 138 719 123.5 733.5 c 128,-1,37
 109 748 109 748 109 769 c 128,-1,38
314 769 m 0,46,47
 314 790 314 790 328.5 804.5 c 128,-1,48
 343 819 343 819 363 819 c 128,-1,49
 383 819 383 819 398 804.5 c 128,-1,50
 413 790 413 790 413 769 c 128,-1,51
 413 748 413 748 398.5 733.5 c 128,-1,52
 384 719 384 719 364 719 c 0,53,54
 342 719 342 719 328 734 c 128,-1,55
 314 749 314 749 314 769 c 0,46,47
EndSplineSet
EndChar

StartChar: Thorn
Encoding: 222 222 160
Width: 525
GlyphClass: 2
Flags: W
TeX: 610 0
LayerCount: 2
Fore
SplineSet
30 31 m 128,-1,1
 30 62 30 62 66 62 c 2,2,-1
 107 62 l 1,3,-1
 107 549 l 1,4,-1
 66 549 l 2,5,6
 30 549 30 549 30 580 c 128,-1,7
 30 611 30 611 66 611 c 2,8,-1
 218 611 l 2,9,10
 254 611 254 611 254 580 c 128,-1,11
 254 549 254 549 219 549 c 2,12,-1
 177 549 l 1,13,-1
 177 507 l 1,14,-1
 296 507 l 2,15,16
 374 507 374 507 425 455 c 128,-1,17
 476 403 476 403 476 333 c 0,18,19
 476 305 476 305 466 276.5 c 128,-1,20
 456 248 456 248 435 220.5 c 128,-1,21
 414 193 414 193 375 176 c 128,-1,22
 336 159 336 159 286 159 c 2,23,-1
 177 159 l 1,24,-1
 177 62 l 1,25,-1
 217 62 l 2,26,27
 254 62 254 62 254 31 c 128,-1,28
 254 0 254 0 218 0 c 2,29,-1
 66 0 l 2,30,0
 30 0 30 0 30 31 c 128,-1,1
177 220 m 1,31,-1
 264 220 l 2,32,33
 337 220 337 220 371.5 256 c 128,-1,34
 406 292 406 292 406 333 c 128,-1,35
 406 374 406 374 374.5 409.5 c 128,-1,36
 343 445 343 445 280 445 c 2,37,-1
 177 445 l 1,38,-1
 177 220 l 1,31,-1
EndSplineSet
EndChar

StartChar: germandbls
Encoding: 223 223 161
Width: 525
GlyphClass: 2
Flags: W
TeX: 610 0
LayerCount: 2
Fore
SplineSet
16 30 m 0,0,1
 16 62 16 62 51 62 c 2,2,-1
 110 62 l 1,3,-1
 110 369 l 1,4,-1
 53 369 l 2,5,6
 16 369 16 369 16 399 c 128,-1,7
 16 429 16 429 49 430 c 2,8,-1
 110 430 l 1,9,-1
 110 501 l 2,10,11
 110 616 110 616 287 616 c 0,12,13
 340 616 340 616 378 605.5 c 128,-1,14
 416 595 416 595 433.5 577 c 128,-1,15
 451 559 451 559 458.5 541.5 c 128,-1,16
 466 524 466 524 466 505 c 0,17,18
 466 454 466 454 438.5 417 c 128,-1,19
 411 380 411 380 357 377 c 0,20,21
 330 375 330 375 314 365 c 1,22,23
 300 344 300 344 300 322 c 0,24,25
 300 303 300 303 305.5 291 c 128,-1,26
 311 279 311 279 322.5 272.5 c 128,-1,27
 334 266 334 266 343.5 263 c 128,-1,28
 353 260 353 260 368.5 257.5 c 128,-1,29
 384 255 384 255 391 253 c 0,30,31
 432 242 432 242 460.5 208 c 128,-1,32
 489 174 489 174 489 125 c 0,33,34
 489 66 489 66 452.5 30.5 c 128,-1,35
 416 -5 416 -5 354 -5 c 0,36,37
 323 -5 323 -5 296 10 c 1,38,39
 287 -5 287 -5 269 -5 c 0,40,41
 239 -5 239 -5 239 30 c 2,42,-1
 239 131 l 2,43,44
 238 167 238 167 274 167 c 2,45,-1
 276 167 l 2,46,47
 295 167 295 167 302 156.5 c 128,-1,48
 309 146 309 146 312 121 c 128,-1,49
 315 96 315 96 322 80 c 0,50,51
 333 56 333 56 355 56 c 0,52,53
 384 56 384 56 405.5 72 c 128,-1,54
 427 88 427 88 427 125 c 0,55,56
 427 149 427 149 407 175 c 1,57,58
 385 193 385 193 352.5 198.5 c 128,-1,59
 320 204 320 204 309 209 c 0,60,61
 280 221 280 221 259 251 c 128,-1,62
 238 281 238 281 238 321 c 0,63,64
 238 370 238 370 265.5 402 c 128,-1,65
 293 434 293 434 344 438 c 0,66,67
 395 438 395 438 395 501 c 0,68,69
 395 555 395 555 285 555 c 2,70,-1
 283 555 l 2,71,72
 196 555 196 555 182 516 c 0,73,74
 180 510 180 510 180 498 c 2,75,-1
 180 37 l 2,76,77
 180 21 180 21 173.5 12 c 128,-1,78
 167 3 167 3 160.5 1.5 c 128,-1,79
 154 0 154 0 143 0 c 2,80,-1
 52 0 l 2,81,82
 16 0 16 0 16 30 c 0,0,1
EndSplineSet
EndChar

StartChar: aacute
Encoding: 225 225 163
Width: 525
GlyphClass: 2
Flags: W
TeX: 610 0
AnchorPoint: "Anchor-5" 226 619 basechar 0
AnchorPoint: "Anchor-4" 226 0 basechar 0
LayerCount: 2
Fore
SplineSet
55 128 m 0,0,1
 55 198 55 198 136.5 236.5 c 128,-1,2
 218 275 218 275 355 277 c 1,3,4
 355 328 355 328 321 353.5 c 128,-1,5
 287 379 287 379 227 379 c 0,6,7
 205 379 205 379 191 378 c 0,8,9
 176 377 176 377 173 375 c 128,-1,10
 170 373 170 373 170 367 c 0,11,12
 169 342 169 342 155 331.5 c 128,-1,13
 141 321 141 321 126 321 c 0,14,15
 107 321 107 321 94 333 c 128,-1,16
 81 345 81 345 81 367 c 0,17,18
 81 440 81 440 226 440 c 0,19,20
 325 440 325 440 374.5 393 c 128,-1,21
 424 346 424 346 424 285 c 2,22,-1
 424 69 l 1,23,24
 445 61 445 61 484 61 c 0,25,26
 524 61 524 61 524 31 c 0,27,28
 524 16 524 16 516.5 9 c 128,-1,29
 509 2 509 2 500.5 1 c 128,-1,30
 492 0 492 0 474 0 c 0,31,32
 389 0 389 0 366 32 c 1,33,34
 308 -6 308 -6 220 -6 c 0,35,36
 146 -6 146 -6 100.5 34 c 128,-1,37
 55 74 55 74 55 128 c 0,0,1
124 128 m 0,38,39
 124 98 124 98 153 76.5 c 128,-1,40
 182 55 182 55 227 55 c 0,41,42
 280 55 280 55 316 72 c 0,43,44
 334 80 334 80 343 91.5 c 128,-1,45
 352 103 352 103 353.5 111 c 128,-1,46
 355 119 355 119 355 134 c 2,47,-1
 355 218 l 1,48,49
 248 215 248 215 186 190 c 128,-1,50
 124 165 124 165 124 128 c 0,38,39
150 546 m 0,51,52
 150 556 150 556 156 563 c 128,-1,53
 162 570 162 570 165.5 571.5 c 128,-1,54
 169 573 169 573 179 578 c 0,55,56
 319 639 319 639 328 639 c 0,57,58
 341 639 341 639 351.5 629 c 128,-1,59
 362 619 362 619 362 604 c 0,60,61
 362 580 362 580 332 568 c 0,62,63
 190 506 190 506 183 506 c 0,64,65
 168 506 168 506 159 519.5 c 128,-1,66
 150 533 150 533 150 546 c 0,51,52
EndSplineSet
Substitution2: "'locl' Localized Forms in Latin lookup 11 subtable" aacute.vn
AlternateSubs2: "'ss01' Style Set 1 lookup 10 subtable" aacute.vn
AlternateSubs2: "'salt' Stylistic Alternatives in Latin lookup 9 subtable" aacute.vn
EndChar

StartChar: acircumflex
Encoding: 226 226 164
Width: 525
GlyphClass: 2
Flags: W
TeX: 638 0
AnchorPoint: "Anchor-5" 226 624 basechar 0
AnchorPoint: "Anchor-4" 226 0 basechar 0
LayerCount: 2
Fore
SplineSet
55 128 m 0,0,1
 55 198 55 198 136.5 236.5 c 128,-1,2
 218 275 218 275 355 277 c 1,3,4
 355 328 355 328 321 353.5 c 128,-1,5
 287 379 287 379 227 379 c 0,6,7
 205 379 205 379 191 378 c 0,8,9
 176 377 176 377 173 375 c 128,-1,10
 170 373 170 373 170 367 c 0,11,12
 169 342 169 342 155 331.5 c 128,-1,13
 141 321 141 321 126 321 c 0,14,15
 107 321 107 321 94 333 c 128,-1,16
 81 345 81 345 81 367 c 0,17,18
 81 440 81 440 226 440 c 0,19,20
 325 440 325 440 374.5 393 c 128,-1,21
 424 346 424 346 424 285 c 2,22,-1
 424 69 l 1,23,24
 445 61 445 61 484 61 c 0,25,26
 524 61 524 61 524 31 c 0,27,28
 524 16 524 16 516.5 9 c 128,-1,29
 509 2 509 2 500.5 1 c 128,-1,30
 492 0 492 0 474 0 c 0,31,32
 389 0 389 0 366 32 c 1,33,34
 308 -6 308 -6 220 -6 c 0,35,36
 146 -6 146 -6 100.5 34 c 128,-1,37
 55 74 55 74 55 128 c 0,0,1
77 526 m 0,38,39
 77 542 77 542 100 557 c 0,40,41
 226 641 226 641 233 643 c 0,42,43
 236 644 236 644 240 644 c 2,44,-1
 241 644 l 2,45,46
 249 644 249 644 326 593 c 0,47,48
 359 571 359 571 380 557 c 0,49,50
 403 543 403 543 403 526 c 0,51,52
 403 515 403 515 392.5 501.5 c 128,-1,53
 382 488 382 488 368 488 c 2,54,-1
 366 488 l 2,55,56
 355 488 355 488 301 528 c 128,-1,57
 247 568 247 568 240 568 c 0,58,59
 235 568 235 568 209 549 c 0,60,61
 130 492 130 492 120 489 c 0,62,63
 116 488 116 488 112 488 c 0,64,65
 98 488 98 488 87.5 502 c 128,-1,66
 77 516 77 516 77 526 c 0,38,39
124 128 m 0,67,68
 124 98 124 98 153 76.5 c 128,-1,69
 182 55 182 55 227 55 c 0,70,71
 280 55 280 55 316 72 c 0,72,73
 334 80 334 80 343 91.5 c 128,-1,74
 352 103 352 103 353.5 111 c 128,-1,75
 355 119 355 119 355 134 c 2,76,-1
 355 218 l 1,77,78
 248 215 248 215 186 190 c 128,-1,79
 124 165 124 165 124 128 c 0,67,68
EndSplineSet
Substitution2: "'locl' Localized Forms in Latin lookup 11 subtable" acircumflex.vn
AlternateSubs2: "'ss01' Style Set 1 lookup 10 subtable" acircumflex.vn
AlternateSubs2: "'salt' Stylistic Alternatives in Latin lookup 9 subtable" acircumflex.vn
EndChar

StartChar: atilde
Encoding: 227 227 165
Width: 525
GlyphClass: 2
Flags: W
TeX: 638 0
AnchorPoint: "Anchor-5" 226 591 basechar 0
AnchorPoint: "Anchor-4" 226 0 basechar 0
LayerCount: 2
Fore
SplineSet
55 128 m 0,0,1
 55 198 55 198 136.5 236.5 c 128,-1,2
 218 275 218 275 355 277 c 1,3,4
 355 328 355 328 321 353.5 c 128,-1,5
 287 379 287 379 227 379 c 0,6,7
 205 379 205 379 191 378 c 0,8,9
 176 377 176 377 173 375 c 128,-1,10
 170 373 170 373 170 367 c 0,11,12
 169 342 169 342 155 331.5 c 128,-1,13
 141 321 141 321 126 321 c 0,14,15
 107 321 107 321 94 333 c 128,-1,16
 81 345 81 345 81 367 c 0,17,18
 81 440 81 440 226 440 c 0,19,20
 325 440 325 440 374.5 393 c 128,-1,21
 424 346 424 346 424 285 c 2,22,-1
 424 69 l 1,23,24
 445 61 445 61 484 61 c 0,25,26
 524 61 524 61 524 31 c 0,27,28
 524 16 524 16 516.5 9 c 128,-1,29
 509 2 509 2 500.5 1 c 128,-1,30
 492 0 492 0 474 0 c 0,31,32
 389 0 389 0 366 32 c 1,33,34
 308 -6 308 -6 220 -6 c 0,35,36
 146 -6 146 -6 100.5 34 c 128,-1,37
 55 74 55 74 55 128 c 0,0,1
96 523 m 0,38,39
 96 537 96 537 112 551 c 0,40,41
 177 611 177 611 222 611 c 0,42,43
 245 611 245 611 264.5 597.5 c 128,-1,44
 284 584 284 584 297.5 570.5 c 128,-1,45
 311 557 311 557 321 557 c 0,46,47
 339 557 339 557 370.5 583.5 c 128,-1,48
 402 610 402 610 412 610 c 0,49,50
 424 610 424 610 434 601 c 128,-1,51
 444 592 444 592 444 579 c 0,52,53
 444 567 444 567 428 551 c 0,54,55
 365 491 365 491 317 491 c 0,56,57
 294 491 294 491 275 504.5 c 128,-1,58
 256 518 256 518 242.5 531 c 128,-1,59
 229 544 229 544 219 544 c 0,60,61
 202 544 202 544 169.5 517.5 c 128,-1,62
 137 491 137 491 127 491 c 0,63,64
 114 491 114 491 105 501 c 128,-1,65
 96 511 96 511 96 523 c 0,38,39
124 128 m 0,66,67
 124 98 124 98 153 76.5 c 128,-1,68
 182 55 182 55 227 55 c 0,69,70
 280 55 280 55 316 72 c 0,71,72
 334 80 334 80 343 91.5 c 128,-1,73
 352 103 352 103 353.5 111 c 128,-1,74
 355 119 355 119 355 134 c 2,75,-1
 355 218 l 1,76,77
 248 215 248 215 186 190 c 128,-1,78
 124 165 124 165 124 128 c 0,66,67
EndSplineSet
Substitution2: "'locl' Localized Forms in Latin lookup 11 subtable" atilde.vn
AlternateSubs2: "'ss01' Style Set 1 lookup 10 subtable" atilde.vn
AlternateSubs2: "'salt' Stylistic Alternatives in Latin lookup 9 subtable" atilde.vn
EndChar

StartChar: aring
Encoding: 229 229 167
Width: 525
GlyphClass: 2
Flags: W
TeX: 638 0
LayerCount: 2
Fore
SplineSet
55 128 m 0,0,1
 55 198 55 198 136.5 236.5 c 128,-1,2
 218 275 218 275 355 277 c 1,3,4
 355 328 355 328 321 353.5 c 128,-1,5
 287 379 287 379 227 379 c 0,6,7
 205 379 205 379 191 378 c 0,8,9
 176 377 176 377 173 375 c 128,-1,10
 170 373 170 373 170 367 c 0,11,12
 169 342 169 342 155 331.5 c 128,-1,13
 141 321 141 321 126 321 c 0,14,15
 107 321 107 321 94 333 c 128,-1,16
 81 345 81 345 81 367 c 0,17,18
 81 440 81 440 226 440 c 0,19,20
 325 440 325 440 374.5 393 c 128,-1,21
 424 346 424 346 424 285 c 2,22,-1
 424 69 l 1,23,24
 445 61 445 61 484 61 c 0,25,26
 524 61 524 61 524 31 c 0,27,28
 524 16 524 16 516.5 9 c 128,-1,29
 509 2 509 2 500.5 1 c 128,-1,30
 492 0 492 0 474 0 c 0,31,32
 389 0 389 0 366 32 c 1,33,34
 308 -6 308 -6 220 -6 c 0,35,36
 146 -6 146 -6 100.5 34 c 128,-1,37
 55 74 55 74 55 128 c 0,0,1
121 560 m 0,38,39
 121 596 121 596 156 621.5 c 128,-1,40
 191 647 191 647 240 647 c 0,41,42
 288 647 288 647 323.5 622 c 128,-1,43
 359 597 359 597 359 560 c 0,44,45
 359 524 359 524 324 498.5 c 128,-1,46
 289 473 289 473 240 473 c 0,47,48
 187 473 187 473 154 499.5 c 128,-1,49
 121 526 121 526 121 560 c 0,38,39
124 128 m 0,50,51
 124 98 124 98 153 76.5 c 128,-1,52
 182 55 182 55 227 55 c 0,53,54
 280 55 280 55 316 72 c 0,55,56
 334 80 334 80 343 91.5 c 128,-1,57
 352 103 352 103 353.5 111 c 128,-1,58
 355 119 355 119 355 134 c 2,59,-1
 355 218 l 1,60,61
 248 215 248 215 186 190 c 128,-1,62
 124 165 124 165 124 128 c 0,50,51
179 560 m 0,63,64
 179 540 179 540 196.5 524 c 128,-1,65
 214 508 214 508 240 508 c 0,66,67
 267 508 267 508 283.5 524 c 128,-1,68
 300 540 300 540 300 560 c 0,69,70
 300 584 300 584 281.5 598 c 128,-1,71
 263 612 263 612 240 612 c 0,72,73
 214 612 214 612 196.5 596.5 c 128,-1,74
 179 581 179 581 179 560 c 0,63,64
EndSplineSet
EndChar

StartChar: ae
Encoding: 230 230 168
Width: 525
GlyphClass: 2
Flags: W
TeX: 430 0
AnchorPoint: "Anchor-5" 256 440 basechar 0
AnchorPoint: "Anchor-4" 268 0 basechar 0
LayerCount: 2
Fore
SplineSet
32 119 m 0,0,1
 32 133 32 133 37 148 c 128,-1,2
 42 163 42 163 56 184.5 c 128,-1,3
 70 206 70 206 105 223 c 128,-1,4
 140 240 140 240 192 246 c 0,5,6
 206 248 206 248 234 250 c 1,7,-1
 234 278 l 2,8,9
 234 341 234 341 196 366 c 0,10,11
 180 377 180 377 155 377 c 0,12,13
 137 377 137 377 128 376 c 1,14,15
 129 372 129 372 129 366 c 0,16,17
 129 345 129 345 115.5 332.5 c 128,-1,18
 102 320 102 320 85 320 c 0,19,20
 69 320 69 320 55 332 c 128,-1,21
 41 344 41 344 41 366 c 0,22,23
 41 395 41 395 67 417 c 128,-1,24
 93 439 93 439 158 439 c 0,25,26
 203 439 203 439 231 416 c 128,-1,27
 259 393 259 393 272 368 c 1,28,29
 314 439 314 439 379 439 c 0,30,31
 427 439 427 439 465.5 390.5 c 128,-1,32
 504 342 504 342 504 228 c 0,33,34
 504 211 504 211 497.5 202.5 c 128,-1,35
 491 194 491 194 485 192.5 c 128,-1,36
 479 191 479 191 469 191 c 2,37,-1
 292 191 l 1,38,39
 300 127 300 127 330.5 91.5 c 128,-1,40
 361 56 361 56 393 56 c 0,41,42
 405 56 405 56 415 61.5 c 128,-1,43
 425 67 425 67 431.5 76 c 128,-1,44
 438 85 438 85 441.5 93 c 128,-1,45
 445 101 445 101 448 110 c 128,-1,46
 451 119 451 119 451 120 c 0,47,48
 459 137 459 137 477 137 c 0,49,50
 487 137 487 137 495.5 129 c 128,-1,51
 504 121 504 121 504 109 c 0,52,53
 504 77 504 77 473 36 c 128,-1,54
 442 -5 442 -5 390 -5 c 0,55,56
 321 -5 321 -5 277 63 c 1,57,58
 229 -5 229 -5 147 -5 c 0,59,60
 95 -5 95 -5 63.5 33 c 128,-1,61
 32 71 32 71 32 119 c 0,0,1
89 118 m 0,62,63
 89 95 89 95 106.5 75.5 c 128,-1,64
 124 56 124 56 153 56 c 0,65,66
 180 56 180 56 206.5 72.5 c 128,-1,67
 233 89 233 89 233 127 c 2,68,-1
 233 136 l 2,69,70
 233 141 233 141 233.5 160 c 128,-1,71
 234 179 234 179 234 189 c 1,72,73
 169 187 169 187 129 168.5 c 128,-1,74
 89 150 89 150 89 118 c 0,62,63
293 252 m 1,75,-1
 447 252 l 1,76,77
 443 316 443 316 424.5 346.5 c 128,-1,78
 406 377 406 377 380 377 c 0,79,80
 352 377 352 377 326.5 344 c 128,-1,81
 301 311 301 311 293 252 c 1,75,-1
EndSplineSet
EndChar

